# This file uses centimeters as units for non-parametric coordinates.

mtllib chilis.mtl
g default
v 2.745366 0.181055 -0.118617
v 2.745366 0.057933 0.153608
v 2.745366 0.087419 0.450924
v 2.745366 0.261613 0.693664
v 2.745366 0.533839 0.816786
v 2.745366 0.831154 0.787300
v 2.745366 1.073894 0.613106
v 2.745366 1.197016 0.340880
v 2.745366 1.167530 0.043565
v 2.745366 0.993336 -0.199175
v 2.745366 0.721110 -0.322297
v 2.745366 0.423795 -0.292811
v 0.745366 0.181055 -0.118617
v 0.745366 0.057933 0.153608
v 0.745366 0.087419 0.450924
v 0.745366 0.261613 0.693664
v 0.745366 0.533839 0.816786
v 0.745366 0.831154 0.787300
v 0.745366 1.073894 0.613106
v 0.745366 1.197016 0.340880
v 0.745366 1.167530 0.043565
v 0.745366 0.993336 -0.199175
v 0.745366 0.721110 -0.322297
v 0.745366 0.423795 -0.292811
v 0.062713 0.126483 -0.263316
v 0.000000 0.000000 0.000000
v -0.085668 0.024896 0.285144
v -0.171336 0.194499 0.515712
v -0.234049 0.463364 0.629924
v -0.257004 0.759450 0.597177
v -0.234049 1.003420 0.426245
v -0.171336 1.129902 0.162929
v -0.085668 1.105006 -0.122215
v 0.000000 0.935403 -0.352784
v 0.062713 0.666538 -0.466995
v 0.085668 0.370452 -0.434248
v -0.781692 -0.013546 -0.634601
v -0.894167 -0.148112 -0.392719
v -1.047812 -0.134259 -0.136853
v -1.201457 0.024302 0.064437
v -1.313933 0.285085 0.157216
v -1.355102 0.578211 0.116623
v -1.313932 0.825140 -0.046464
v -1.201457 0.959706 -0.288346
v -1.047812 0.945852 -0.544212
v -0.894167 0.787291 -0.745502
v -0.781692 0.526509 -0.838281
v -0.740522 0.233382 -0.797688
v -1.688667 -0.196981 -1.232084
v -1.863790 -0.334374 -1.079032
v -2.103011 -0.351239 -0.934385
v -2.342232 -0.243054 -0.836899
v -2.517356 -0.038810 -0.812694
v -2.581455 0.206767 -0.868259
v -2.517356 0.427875 -0.988703
v -2.342234 0.565268 -1.141753
v -2.103012 0.582132 -1.286401
v -1.863791 0.473949 -1.383887
v -1.688667 0.269704 -1.408091
v -1.624567 0.024127 -1.352527
v -3.431487 -0.448159 -2.458532
v -3.459259 -0.476347 -2.426200
v -3.659217 -0.450838 -2.611894
v -3.497196 -0.479499 -2.395367
v -3.535134 -0.456771 -2.374294
v -3.562906 -0.414253 -2.368629
v -3.573072 -0.363338 -2.379888
v -3.562907 -0.317668 -2.405054
v -3.535134 -0.289481 -2.437387
v -3.497197 -0.286329 -2.468220
v -3.459259 -0.309057 -2.489293
v -3.431486 -0.351575 -2.494958
v -3.421320 -0.402490 -2.483699
v 3.324944 0.366975 0.033753
v 3.324944 0.295130 0.192605
v 3.324944 0.312336 0.366098
v 3.324944 0.413983 0.507744
v 3.324944 0.572835 0.579589
v 3.324944 0.746328 0.562383
v 3.324944 0.887974 0.460736
v 3.324944 0.959819 0.301884
v 3.324944 0.942613 0.128391
v 3.324944 0.840966 -0.013255
v 3.324944 0.682114 -0.085100
v 3.324944 0.508621 -0.067894
v 3.477943 0.460812 0.110657
v 3.477943 0.414847 0.212287
v 3.477943 0.425855 0.323284
v 3.477943 0.490887 0.413906
v 3.477943 0.592517 0.459871
v 3.477943 0.703514 0.448863
v 3.477943 0.794136 0.383832
v 3.477943 0.840101 0.282201
v 3.477943 0.829093 0.171204
v 3.477943 0.764062 0.080582
v 3.477943 0.662431 0.034617
v 3.477943 0.551435 0.045625
v 3.477943 0.552879 0.186110
v 3.477943 0.532306 0.231598
v 3.477943 0.537233 0.281278
v 3.477943 0.566340 0.321839
v 3.477943 0.611828 0.342412
v 3.477943 0.661508 0.337485
v 3.477943 0.702069 0.308378
v 3.477943 0.722642 0.262890
v 3.477943 0.717716 0.213210
v 3.477943 0.688608 0.172649
v 3.477943 0.643121 0.152076
v 3.477943 0.593440 0.157003
v 3.895216 0.552879 0.186110
v 3.895216 0.532306 0.231598
v 3.895216 0.537233 0.281278
v 3.895216 0.566340 0.321838
v 3.895216 0.611828 0.342411
v 3.895216 0.661508 0.337485
v 3.895216 0.702069 0.308378
v 3.895216 0.722642 0.262890
v 3.895216 0.717716 0.213210
v 3.895216 0.688609 0.172651
v 3.895216 0.643121 0.152078
v 3.895216 0.593440 0.157003
v 4.239606 0.509510 0.071115
v 4.249114 0.488476 0.115384
v 4.262101 0.492775 0.163397
v 4.275088 0.521252 0.202288
v 4.284596 0.566280 0.221641
v 4.288076 0.615792 0.216268
v 4.284596 0.656521 0.187608
v 4.275088 0.677554 0.143340
v 4.262101 0.673256 0.095326
v 4.249114 0.644779 0.056435
v 4.239606 0.599751 0.037082
v 4.236126 0.550239 0.042455
v 4.603072 0.426884 -0.147964
v 4.622235 0.404317 -0.107763
v 4.648409 0.406520 -0.065307
v 4.674581 0.432900 -0.031975
v 4.693742 0.476394 -0.016691
v 4.700757 0.525345 -0.023552
v 4.693743 0.566635 -0.050723
v 4.674582 0.589203 -0.090922
v 4.648407 0.587001 -0.133379
v 4.622232 0.560618 -0.166715
v 4.603072 0.517126 -0.181998
v 4.596059 0.468176 -0.175135
v 4.854667 0.382371 -0.343440
v 4.873829 0.370873 -0.330584
v 4.900002 0.408575 -0.333166
v 4.900003 0.369478 -0.318420
v 4.926175 0.378558 -0.310209
v 4.945336 0.395681 -0.308147
v 4.952351 0.416260 -0.312790
v 4.945337 0.434778 -0.322892
v 4.926177 0.446276 -0.335748
v 4.900002 0.447671 -0.347912
v 4.873827 0.438591 -0.356125
v 4.854667 0.421468 -0.358185
v 4.847653 0.400890 -0.353542
v 1.533162 1.486268 -0.368587
v 1.733364 1.339789 -0.202067
v 1.941479 1.340165 0.012302
v 2.101745 1.487297 0.217077
v 2.171217 1.741760 0.357391
v 2.131282 2.035371 0.395646
v 1.992639 2.289458 0.321592
v 1.792438 2.435938 0.155071
v 1.584322 2.435561 -0.059297
v 1.424056 2.288429 -0.264073
v 1.354584 2.033966 -0.404387
v 1.394519 1.740355 -0.442642
v 0.123296 1.116085 1.000807
v 0.323497 0.969606 1.167328
v 0.531613 0.969982 1.381696
v 0.691878 1.117114 1.586472
v 0.761351 1.371577 1.726786
v 0.721416 1.665188 1.765041
v 0.582772 1.919275 1.690987
v 0.382571 2.065755 1.524466
v 0.174456 2.065378 1.310098
v 0.014190 1.918247 1.105322
v -0.055283 1.663783 0.965008
v -0.015347 1.370172 0.926753
v -0.456630 0.950210 1.355915
v -0.306715 0.789689 1.558461
v -0.167292 0.770884 1.822039
v -0.075719 0.898835 2.076025
v -0.056533 1.139257 2.252363
v -0.114874 1.427729 2.303804
v -0.235111 1.686955 2.216564
v -0.385026 1.847476 2.014019
v -0.524449 1.866280 1.750441
v -0.616022 1.738330 1.496455
v -0.635209 1.497908 1.320116
v -0.576867 1.209436 1.268675
v -1.305140 0.692507 1.645918
v -1.204924 0.516921 1.865900
v -1.133391 0.477537 2.153299
v -1.109708 0.584909 2.431106
v -1.140221 0.810266 2.624882
v -1.216754 1.093224 2.682705
v -1.318799 1.357965 2.589082
v -1.419015 1.533550 2.369100
v -1.490548 1.572934 2.081701
v -1.514231 1.465562 1.803894
v -1.483718 1.240204 1.610119
v -1.407185 0.957247 1.552295
v -2.354743 0.402423 1.811514
v -2.361254 0.220980 2.011528
v -2.426633 0.146361 2.273428
v -2.533360 0.198560 2.527040
v -2.652840 0.363589 2.704408
v -2.753057 0.597231 2.758006
v -2.807158 0.836879 2.673473
v -2.800647 1.018321 2.473459
v -2.735268 1.092940 2.211558
v -2.628540 1.040742 1.957948
v -2.509060 0.875712 1.780579
v -2.408843 0.642071 1.726980
v -4.433480 -0.048414 2.094854
v -4.428410 -0.084218 2.130958
v -4.702171 -0.078503 2.142689
v -4.433170 -0.097274 2.177934
v -4.446490 -0.084085 2.223194
v -4.464798 -0.048183 2.254612
v -4.483190 0.000811 2.263768
v -4.496736 0.049769 2.248210
v -4.501807 0.085572 2.212105
v -4.497046 0.098629 2.165129
v -4.483727 0.085439 2.119869
v -4.465418 0.049538 2.088452
v -4.447026 0.000544 2.079295
v 2.037405 1.760795 -0.621703
v 2.154229 1.675320 -0.524534
v 2.275671 1.675540 -0.399443
v 2.369190 1.761396 -0.279950
v 2.409730 1.909883 -0.198073
v 2.386426 2.081214 -0.175750
v 2.305524 2.229481 -0.218963
v 2.188700 2.314956 -0.316133
v 2.067258 2.314737 -0.441223
v 1.973739 2.228881 -0.560716
v 1.933199 2.080394 -0.642593
v 1.956503 1.909063 -0.664916
v 2.193550 1.873529 -0.653924
v 2.268291 1.818844 -0.591756
v 2.345987 1.818985 -0.511726
v 2.405819 1.873913 -0.435277
v 2.431756 1.968912 -0.382894
v 2.416847 2.078526 -0.368612
v 2.365087 2.173385 -0.396259
v 2.290346 2.228070 -0.458426
v 2.212650 2.227929 -0.538456
v 2.152818 2.173001 -0.614905
v 2.126882 2.078002 -0.667289
v 2.141791 1.968388 -0.681570
v 2.240930 1.956352 -0.582754
v 2.274383 1.931876 -0.554929
v 2.309158 1.931939 -0.519109
v 2.335938 1.956524 -0.484892
v 2.347547 1.999044 -0.461446
v 2.340874 2.048105 -0.455054
v 2.317707 2.090562 -0.467428
v 2.284254 2.115038 -0.495253
v 2.249479 2.114975 -0.531073
v 2.222699 2.090390 -0.565290
v 2.211091 2.047870 -0.588736
v 2.217763 1.998809 -0.595129
v 2.535079 2.033586 -0.868460
v 2.568532 2.009109 -0.840635
v 2.603308 2.009172 -0.804815
v 2.630086 2.033757 -0.770599
v 2.641695 2.076277 -0.747153
v 2.635023 2.125339 -0.740759
v 2.611856 2.167795 -0.753134
v 2.578403 2.192272 -0.780958
v 2.543628 2.192209 -0.816779
v 2.516850 2.167624 -0.850995
v 2.505241 2.125104 -0.874441
v 2.511913 2.076042 -0.880834
v 2.699411 2.065920 -1.193512
v 2.738735 2.042871 -1.173143
v 2.781528 2.044882 -1.147510
v 2.816324 2.071415 -1.123480
v 2.833803 2.115361 -1.107491
v 2.829279 2.164945 -1.103828
v 2.803964 2.206880 -1.113473
v 2.764640 2.229929 -1.133841
v 2.721847 2.227918 -1.159475
v 2.687051 2.201385 -1.183504
v 2.669572 2.157439 -1.199493
v 2.674096 2.107855 -1.203156
v 2.806193 2.073356 -1.612406
v 2.849548 2.050983 -1.601805
v 2.897847 2.053917 -1.589513
v 2.938144 2.081372 -1.578826
v 2.959653 2.125994 -1.572605
v 2.956605 2.175825 -1.572517
v 2.929815 2.217512 -1.578586
v 2.886463 2.239887 -1.589187
v 2.838163 2.236952 -1.601479
v 2.797860 2.209495 -1.612167
v 2.776353 2.164875 -1.618388
v 2.779403 2.115044 -1.618476
v 2.848336 2.095101 -1.930594
v 2.871663 2.086172 -1.936977
v 2.885867 2.128137 -1.949235
v 2.898797 2.088487 -1.946644
v 2.922462 2.101426 -1.957004
v 2.936325 2.121523 -1.965284
v 2.936668 2.143392 -1.969264
v 2.923398 2.161173 -1.967876
v 2.900072 2.170103 -1.961494
v 2.872938 2.167787 -1.951827
v 2.849269 2.154847 -1.941465
v 2.835408 2.134751 -1.933185
v 2.835065 2.112882 -1.929206
v -1.342541 1.077127 -0.390248
v -1.563451 0.905451 -0.495092
v -1.818161 0.876638 -0.648580
v -2.038422 0.998410 -0.809586
v -2.165215 1.238136 -0.934968
v -2.164566 1.531583 -0.991130
v -2.036650 1.800123 -0.963024
v -1.815740 1.971799 -0.858180
v -1.561030 2.000611 -0.704691
v -1.340769 1.878841 -0.543686
v -1.213976 1.639114 -0.418304
v -1.214625 1.345666 -0.362142
v -0.297150 0.754394 -2.064464
v -0.518059 0.582717 -2.169308
v -0.772769 0.553905 -2.322797
v -0.993030 0.675676 -2.483803
v -1.119823 0.915403 -2.609184
v -1.119174 1.208850 -2.665346
v -0.991258 1.477389 -2.637240
v -0.770349 1.649065 -2.532396
v -0.515639 1.677878 -2.378908
v -0.295378 1.556107 -2.217902
v -0.168584 1.316380 -2.092520
v -0.169233 1.022933 -2.036358
v 0.186930 0.619329 -2.551655
v 0.006637 0.436000 -2.703809
v -0.192590 0.391268 -2.921922
v -0.357368 0.497120 -3.147554
v -0.443545 0.725194 -3.320245
v -0.428030 1.014375 -3.393723
v -0.314980 1.287180 -3.348300
v -0.134686 1.470510 -3.196147
v 0.064541 1.515241 -2.978033
v 0.229319 1.409389 -2.752402
v 0.315496 1.181316 -2.579711
v 0.299981 0.892134 -2.506233
v 0.954837 0.419162 -3.042300
v 0.819405 0.224113 -3.223628
v 0.681459 0.163373 -3.481596
v 0.577962 0.253216 -3.747082
v 0.536646 0.469570 -3.948948
v 0.568581 0.754462 -4.033105
v 0.665211 1.031556 -3.977004
v 0.800644 1.226605 -3.795675
v 0.938590 1.287346 -3.537707
v 1.042086 1.197502 -3.272222
v 1.083402 0.981148 -3.070355
v 1.051467 0.696256 -2.986198
v 1.950952 0.210520 -3.463563
v 1.923875 0.019760 -3.652897
v 1.927555 -0.063067 -3.920404
v 1.961002 -0.015766 -4.194409
v 2.015256 0.148985 -4.401491
v 2.075780 0.387044 -4.486162
v 2.126356 0.634622 -4.425735
v 2.153431 0.825381 -4.236403
v 2.149752 0.908207 -3.968894
v 2.116305 0.860908 -3.694890
v 2.062050 0.696156 -3.487808
v 2.001526 0.458098 -3.403135
v 3.923232 -0.077242 -4.258540
v 3.912624 -0.115242 -4.291016
v 4.172624 -0.087000 -4.372982
v 3.906548 -0.130362 -4.337214
v 3.906632 -0.118551 -4.384758
v 3.912856 -0.082974 -4.420907
v 3.923551 -0.033164 -4.435976
v 3.935848 0.017533 -4.425925
v 3.946458 0.055532 -4.393449
v 3.952534 0.070653 -4.347250
v 3.952448 0.058842 -4.299706
v 3.946224 0.023265 -4.263557
v 3.935530 -0.026545 -4.248489
v -1.790022 1.321205 -0.024351
v -1.918929 1.221027 -0.085530
v -2.067560 1.204213 -0.175095
v -2.196089 1.275271 -0.269047
v -2.270077 1.415159 -0.342211
v -2.269698 1.586394 -0.374983
v -2.195055 1.743095 -0.358582
v -2.066148 1.843273 -0.297403
v -1.917517 1.860086 -0.207838
v -1.788988 1.789029 -0.113886
v -1.715000 1.649141 -0.040722
v -1.715379 1.477906 -0.007949
v -1.942945 1.421881 0.043528
v -2.025417 1.357789 0.004386
v -2.120508 1.347032 -0.052916
v -2.202738 1.392493 -0.113024
v -2.250073 1.481990 -0.159833
v -2.249831 1.591543 -0.180800
v -2.202076 1.691797 -0.170307
v -2.119604 1.755889 -0.131165
v -2.024513 1.766645 -0.073864
v -1.942283 1.721184 -0.013755
v -1.894947 1.631687 0.033054
v -1.895189 1.522134 0.054021
v -2.014519 1.496434 -0.015535
v -2.051432 1.467747 -0.033054
v -2.093993 1.462933 -0.058702
v -2.130798 1.483281 -0.085605
v -2.151984 1.523338 -0.106556
v -2.151876 1.572372 -0.115940
v -2.130502 1.617243 -0.111244
v -2.093589 1.645930 -0.093725
v -2.051027 1.650744 -0.068078
v -2.014223 1.630397 -0.041174
v -1.993036 1.590340 -0.020224
v -1.993145 1.541306 -0.010839
v -2.232626 1.563768 0.333767
v -2.269539 1.535082 0.316248
v -2.312100 1.530267 0.290600
v -2.348903 1.550614 0.263698
v -2.370090 1.590671 0.242747
v -2.369983 1.639706 0.233362
v -2.348608 1.684578 0.238058
v -2.311695 1.713264 0.255577
v -2.269135 1.718078 0.281225
v -2.232331 1.697731 0.308127
v -2.211144 1.657674 0.329078
v -2.211251 1.608640 0.338463
v -2.311501 1.599547 0.689024
v -2.352311 1.572185 0.680174
v -2.400194 1.569179 0.666370
v -2.442319 1.591335 0.651310
v -2.467402 1.632717 0.639029
v -2.468720 1.682236 0.632818
v -2.445920 1.726623 0.634341
v -2.405110 1.753985 0.643191
v -2.357226 1.756991 0.656995
v -2.315102 1.734835 0.672055
v -2.290019 1.693453 0.684336
v -2.288700 1.643934 0.690547
v -2.308806 1.620488 1.120863
v -2.351086 1.593985 1.122463
v -2.400974 1.592150 1.122934
v -2.445100 1.615476 1.122149
v -2.471651 1.657716 1.120318
v -2.473508 1.707548 1.117932
v -2.450171 1.751621 1.115631
v -2.407894 1.778126 1.114030
v -2.358005 1.779961 1.113558
v -2.313872 1.756633 1.114344
v -2.287323 1.714395 1.116175
v -2.285469 1.664562 1.118561
v -2.270790 1.655711 1.438362
v -2.290772 1.645195 1.450803
v -2.305352 1.686407 1.465021
v -2.314661 1.645722 1.467054
v -2.336053 1.657149 1.482757
v -2.349221 1.676417 1.493711
v -2.350635 1.698362 1.496977
v -2.339914 1.717102 1.491680
v -2.319933 1.727618 1.479241
v -2.296044 1.727091 1.462991
v -2.274649 1.715663 1.447284
v -2.261482 1.696396 1.436331
v -2.260069 1.674452 1.433066
vt 0.376346 0.558623
vt 0.415079 0.558623
vt 0.415079 0.713554
vt 0.376346 0.713554
vt 0.392477 0.513726
vt 0.415079 0.513726
vt 0.453812 0.558623
vt 0.453812 0.713554
vt 0.415079 0.791203
vt 0.376346 0.789425
vt 0.347992 0.558623
vt 0.347992 0.713554
vt 0.375932 0.513726
vt 0.400619 0.501873
vt 0.415079 0.501873
vt 0.437681 0.513726
vt 0.482166 0.558623
vt 0.482166 0.713554
vt 0.453812 0.789425
vt 0.415079 0.876268
vt 0.376346 0.873079
vt 0.347992 0.784567
vt 0.429539 0.501873
vt 0.454227 0.513726
vt 0.482166 0.784567
vt 0.453812 0.873079
vt 0.415079 0.971268
vt 0.381608 0.966303
vt 0.347992 0.864366
vt 0.482166 0.864366
vt 0.448550 0.966303
vt 0.030224 0.058742
vt 0.068957 0.058742
vt 0.068957 0.213673
vt 0.030224 0.213673
vt 0.046355 0.013844
vt 0.068957 0.013844
vt 0.107690 0.058742
vt 0.107690 0.213673
vt 0.068957 0.264777
vt 0.030224 0.266555
vt 0.001870 0.058742
vt 0.001870 0.213673
vt 0.029810 0.013844
vt 0.054497 0.001992
vt 0.068957 0.001992
vt 0.091559 0.013844
vt 0.136044 0.058742
vt 0.136044 0.213673
vt 0.107690 0.266555
vt 0.068957 0.328778
vt 0.030224 0.331967
vt 0.001870 0.271413
vt 0.083417 0.001992
vt 0.108104 0.013844
vt 0.136044 0.271413
vt 0.107690 0.331967
vt 0.068957 0.397261
vt 0.035486 0.402227
vt 0.001870 0.340680
vt 0.136044 0.340680
vt 0.102428 0.402227
vt 0.068957 0.536447
vt 0.062030 0.537235
vt 0.010984 0.415793
vt 0.126930 0.415792
vt 0.075884 0.537235
vt 0.068957 0.554876
vt 0.056959 0.539386
vt 0.080955 0.539386
vt 0.207176 0.982939
vt 0.200704 0.982939
vt 0.200704 0.950615
vt 0.207176 0.950615
vt 0.195966 0.982939
vt 0.195966 0.950615
vt 0.200704 0.920451
vt 0.207176 0.920182
vt 0.213648 0.982939
vt 0.213648 0.950615
vt 0.195966 0.921188
vt 0.200704 0.888757
vt 0.207176 0.888213
vt 0.213648 0.920451
vt 0.218386 0.982939
vt 0.218386 0.950615
vt 0.195966 0.890241
vt 0.213648 0.888757
vt 0.218386 0.921188
vt 0.218386 0.890241
vt 0.107036 0.672839
vt 0.100564 0.672839
vt 0.100564 0.640514
vt 0.107036 0.640514
vt 0.095826 0.672839
vt 0.095826 0.640514
vt 0.100564 0.613836
vt 0.107036 0.614106
vt 0.113508 0.672839
vt 0.113508 0.640514
vt 0.095826 0.613099
vt 0.100564 0.585680
vt 0.107036 0.586223
vt 0.113508 0.613836
vt 0.118246 0.672839
vt 0.118246 0.640514
vt 0.095826 0.584196
vt 0.104232 0.566190
vt 0.107036 0.566733
vt 0.113509 0.585680
vt 0.118246 0.613099
vt 0.102180 0.564706
vt 0.107036 0.562678
vt 0.109840 0.566190
vt 0.118246 0.584195
vt 0.111893 0.564706
vt 0.101428 0.562678
vt 0.102180 0.560650
vt 0.112645 0.562678
vt 0.104232 0.559166
vt 0.111893 0.560651
vt 0.107036 0.558623
vt 0.109840 0.559166
vt 0.287144 0.531430
vt 0.282073 0.534155
vt 0.275146 0.501873
vt 0.333119 0.734615
vt 0.308617 0.747327
vt 0.275146 0.535152
vt 0.289000 0.527707
vt 0.342233 0.860465
vt 0.313879 0.884467
vt 0.275146 0.751980
vt 0.268219 0.534155
vt 0.241675 0.747327
vt 0.263148 0.531430
vt 0.217173 0.734615
vt 0.261292 0.527707
vt 0.236413 0.884467
vt 0.208059 0.860465
vt 0.185754 0.596941
vt 0.202300 0.613487
vt 0.188198 0.621628
vt 0.177613 0.611043
vt 0.174363 0.629616
vt 0.169625 0.624878
vt 0.163153 0.590885
vt 0.163153 0.607168
vt 0.192073 0.636088
vt 0.176097 0.636088
vt 0.163153 0.623144
vt 0.163153 0.558623
vt 0.201885 0.569001
vt 0.140551 0.596941
vt 0.148693 0.611043
vt 0.188198 0.650548
vt 0.174363 0.642560
vt 0.156681 0.624878
vt 0.124420 0.569001
vt 0.124005 0.613487
vt 0.138107 0.621628
vt 0.177613 0.661134
vt 0.169625 0.647298
vt 0.151943 0.629616
vt 0.202300 0.658690
vt 0.185754 0.675236
vt 0.163153 0.665009
vt 0.163153 0.649033
vt 0.134232 0.636088
vt 0.150208 0.636088
vt 0.163153 0.681292
vt 0.148693 0.661134
vt 0.156681 0.647298
vt 0.138107 0.650548
vt 0.151943 0.642560
vt 0.201885 0.703175
vt 0.163153 0.713554
vt 0.140551 0.675236
vt 0.124420 0.703175
vt 0.124005 0.658690
vt 0.236446 0.931163
vt 0.229974 0.929706
vt 0.233642 0.889283
vt 0.236446 0.889675
vt 0.225236 0.925727
vt 0.231589 0.888213
vt 0.242918 0.929707
vt 0.239250 0.889283
vt 0.247656 0.925727
vt 0.241303 0.888213
vt 0.220380 0.498127
vt 0.181647 0.498127
vt 0.181647 0.343196
vt 0.220380 0.343196
vt 0.142914 0.498127
vt 0.142914 0.343196
vt 0.205426 0.278819
vt 0.242413 0.285455
vt 0.168440 0.272183
vt 0.265958 0.204286
vt 0.298745 0.216188
vt 0.233170 0.192384
vt 0.376387 0.122544
vt 0.393752 0.141076
vt 0.359021 0.104013
vt 0.565928 0.014543
vt 0.569651 0.017482
vt 0.562206 0.011604
vt 0.591762 0.001992
vt 0.487925 0.501873
vt 0.526658 0.501873
vt 0.526658 0.656804
vt 0.487925 0.656804
vt 0.565391 0.501873
vt 0.565391 0.656804
vt 0.550437 0.721181
vt 0.513451 0.727817
vt 0.587424 0.714545
vt 0.610969 0.795714
vt 0.578181 0.807616
vt 0.643756 0.783812
vt 0.721398 0.877456
vt 0.704032 0.895987
vt 0.738763 0.858924
vt 0.910939 0.985457
vt 0.907217 0.988396
vt 0.914662 0.982518
vt 0.936773 0.998008
vt 0.008342 0.676585
vt 0.014814 0.676585
vt 0.014814 0.708909
vt 0.008342 0.708909
vt 0.031484 0.736324
vt 0.025251 0.737330
vt 0.001870 0.676585
vt 0.001870 0.708909
vt 0.063492 0.765228
vt 0.058056 0.767256
vt 0.019018 0.738336
vt 0.093057 0.784718
vt 0.091596 0.786746
vt 0.052621 0.769283
vt 0.090135 0.788773
vt 0.105481 0.829489
vt 0.099009 0.829489
vt 0.099009 0.797164
vt 0.105481 0.797164
vt 0.116158 0.767737
vt 0.122391 0.768743
vt 0.111954 0.829489
vt 0.111953 0.797164
vt 0.149760 0.736790
vt 0.155196 0.738818
vt 0.128623 0.769750
vt 0.187274 0.717300
vt 0.188736 0.719328
vt 0.160632 0.740846
vt 0.190197 0.721356
vt 0.107690 0.058742
vt 0.136044 0.058742
vt 0.136044 0.213673
vt 0.107690 0.213673
vt 0.220380 0.498127
vt 0.181647 0.498127
vt 0.181647 0.343196
vt 0.220380 0.343196
vt 0.142914 0.498127
vt 0.142914 0.343196
vt 0.347992 0.558623
vt 0.376346 0.558623
vt 0.376346 0.713554
vt 0.347992 0.713554
vt 0.415079 0.558623
vt 0.415079 0.713554
vt 0.453812 0.558623
vt 0.453812 0.713554
vt 0.482166 0.558623
vt 0.482166 0.713554
vt 0.487925 0.501873
vt 0.526658 0.501873
vt 0.526658 0.656804
vt 0.487925 0.656804
vt 0.565391 0.501873
vt 0.565391 0.656804
vt 0.001870 0.058742
vt 0.030224 0.058742
vt 0.030224 0.213673
vt 0.001870 0.213673
vt 0.068957 0.058742
vt 0.068957 0.213673
vt 0.111893 0.564706
vt 0.109840 0.566190
vt 0.107036 0.562678
vt 0.112645 0.562678
vt 0.111893 0.560651
vt 0.109840 0.559166
vt 0.107036 0.558623
vt 0.104232 0.559166
vt 0.102180 0.560650
vt 0.101428 0.562678
vt 0.102180 0.564706
vt 0.104232 0.566190
vt 0.107036 0.566733
vt 0.075884 0.537235
vt 0.080955 0.539386
vt 0.068957 0.554876
vt 0.569651 0.017482
vt 0.565928 0.014543
vt 0.591762 0.001992
vt 0.289000 0.527707
vt 0.287144 0.531430
vt 0.275146 0.501873
vt 0.282073 0.534155
vt 0.275146 0.535152
vt 0.268219 0.534155
vt 0.263148 0.531430
vt 0.261292 0.527707
vt 0.910939 0.985457
vt 0.914662 0.982518
vt 0.936773 0.998008
vt 0.056959 0.539386
vt 0.062030 0.537235
vt 0.068957 0.536447
vt 0.136044 0.271413
vt 0.107690 0.266555
vt 0.205426 0.278819
vt 0.242413 0.285455
vt 0.168440 0.272183
vt 0.376346 0.789425
vt 0.347992 0.784567
vt 0.415079 0.791203
vt 0.453812 0.789425
vt 0.482166 0.784567
vt 0.550437 0.721181
vt 0.513451 0.727817
vt 0.587424 0.714545
vt 0.030224 0.266555
vt 0.001870 0.271413
vt 0.068957 0.264777
vt 0.136044 0.340680
vt 0.107690 0.331967
vt 0.265958 0.204286
vt 0.298745 0.216188
vt 0.233170 0.192384
vt 0.376346 0.873079
vt 0.347992 0.864366
vt 0.415079 0.876268
vt 0.453812 0.873079
vt 0.482166 0.864366
vt 0.610969 0.795714
vt 0.578181 0.807616
vt 0.643756 0.783812
vt 0.030224 0.331967
vt 0.001870 0.340680
vt 0.068957 0.328778
vt 0.126930 0.415792
vt 0.102428 0.402227
vt 0.376387 0.122544
vt 0.393752 0.141076
vt 0.359021 0.104013
vt 0.342233 0.860465
vt 0.313879 0.884467
vt 0.308617 0.747327
vt 0.333119 0.734615
vt 0.415079 0.971268
vt 0.381608 0.966303
vt 0.448550 0.966303
vt 0.236413 0.884467
vt 0.208059 0.860465
vt 0.217173 0.734615
vt 0.241675 0.747327
vt 0.721398 0.877456
vt 0.704032 0.895987
vt 0.738763 0.858924
vt 0.035486 0.402227
vt 0.010984 0.415793
vt 0.068957 0.397261
vt 0.562206 0.011604
vt 0.275146 0.751980
vt 0.907217 0.988396
vt 0.091559 0.013844
vt 0.108104 0.013844
vt 0.163153 0.558623
vt 0.201885 0.569001
vt 0.185754 0.596941
vt 0.163153 0.590885
vt 0.124420 0.569001
vt 0.140551 0.596941
vt 0.375932 0.513726
vt 0.392477 0.513726
vt 0.415079 0.513726
vt 0.437681 0.513726
vt 0.454227 0.513726
vt 0.163153 0.713554
vt 0.124420 0.703175
vt 0.140551 0.675236
vt 0.163153 0.681292
vt 0.201885 0.703175
vt 0.185754 0.675236
vt 0.029810 0.013844
vt 0.046355 0.013844
vt 0.068957 0.013844
vt 0.202300 0.613487
vt 0.188198 0.621628
vt 0.177613 0.611043
vt 0.163153 0.607168
vt 0.148693 0.611043
vt 0.124005 0.613487
vt 0.138107 0.621628
vt 0.400619 0.501873
vt 0.415079 0.501873
vt 0.429539 0.501873
vt 0.124005 0.658690
vt 0.138107 0.650548
vt 0.148693 0.661134
vt 0.163153 0.665009
vt 0.177613 0.661134
vt 0.202300 0.658690
vt 0.188198 0.650548
vt 0.054497 0.001992
vt 0.068957 0.001992
vt 0.083417 0.001992
vt 0.174363 0.629616
vt 0.169625 0.624878
vt 0.163153 0.623144
vt 0.156681 0.624878
vt 0.151943 0.629616
vt 0.134232 0.636088
vt 0.150208 0.636088
vt 0.151943 0.642560
vt 0.156681 0.647298
vt 0.163153 0.649033
vt 0.169625 0.647298
vt 0.174363 0.642560
vt 0.192073 0.636088
vt 0.176097 0.636088
vt 0.118246 0.672839
vt 0.113508 0.672839
vt 0.113508 0.640514
vt 0.118246 0.640514
vt 0.008342 0.676585
vt 0.014814 0.676585
vt 0.014814 0.708909
vt 0.008342 0.708909
vt 0.001870 0.676585
vt 0.001870 0.708909
vt 0.200704 0.982939
vt 0.195966 0.982939
vt 0.195966 0.950615
vt 0.200704 0.950615
vt 0.207176 0.982939
vt 0.207176 0.950615
vt 0.213648 0.982939
vt 0.213648 0.950615
vt 0.218386 0.982939
vt 0.218386 0.950615
vt 0.105481 0.829489
vt 0.099009 0.829489
vt 0.099009 0.797164
vt 0.105481 0.797164
vt 0.111954 0.829489
vt 0.111953 0.797164
vt 0.100564 0.672839
vt 0.095826 0.672839
vt 0.095826 0.640514
vt 0.100564 0.640514
vt 0.107036 0.672839
vt 0.107036 0.640514
vt 0.113508 0.613836
vt 0.118246 0.613099
vt 0.031484 0.736324
vt 0.025251 0.737330
vt 0.019018 0.738336
vt 0.195966 0.921188
vt 0.200704 0.920451
vt 0.207176 0.920182
vt 0.213648 0.920451
vt 0.218386 0.921188
vt 0.116158 0.767737
vt 0.122391 0.768743
vt 0.128623 0.769750
vt 0.095826 0.613099
vt 0.100564 0.613836
vt 0.107036 0.614106
vt 0.113509 0.585680
vt 0.118246 0.584195
vt 0.063492 0.765228
vt 0.058056 0.767256
vt 0.052621 0.769283
vt 0.195966 0.890241
vt 0.200704 0.888757
vt 0.207176 0.888213
vt 0.213648 0.888757
vt 0.218386 0.890241
vt 0.149760 0.736790
vt 0.155196 0.738818
vt 0.160632 0.740846
vt 0.095826 0.584196
vt 0.100564 0.585680
vt 0.107036 0.586223
vt 0.093057 0.784718
vt 0.091596 0.786746
vt 0.090135 0.788773
vt 0.229974 0.929706
vt 0.225236 0.925727
vt 0.231589 0.888213
vt 0.233642 0.889283
vt 0.236446 0.931163
vt 0.236446 0.889675
vt 0.242918 0.929707
vt 0.239250 0.889283
vt 0.247656 0.925727
vt 0.241303 0.888213
vt 0.187274 0.717300
vt 0.188736 0.719328
vt 0.190197 0.721356
vt 0.107690 0.058742
vt 0.136044 0.058742
vt 0.136044 0.213673
vt 0.107690 0.213673
vt 0.220380 0.498127
vt 0.181647 0.498127
vt 0.181647 0.343196
vt 0.220380 0.343196
vt 0.142914 0.498127
vt 0.142914 0.343196
vt 0.347992 0.558623
vt 0.376346 0.558623
vt 0.376346 0.713554
vt 0.347992 0.713554
vt 0.415079 0.558623
vt 0.415079 0.713554
vt 0.453812 0.558623
vt 0.453812 0.713554
vt 0.482166 0.558623
vt 0.482166 0.713554
vt 0.487925 0.501873
vt 0.526658 0.501873
vt 0.526658 0.656804
vt 0.487925 0.656804
vt 0.565391 0.501873
vt 0.565391 0.656804
vt 0.001870 0.058742
vt 0.030224 0.058742
vt 0.030224 0.213673
vt 0.001870 0.213673
vt 0.068957 0.058742
vt 0.068957 0.213673
vt 0.111893 0.564706
vt 0.109840 0.566190
vt 0.107036 0.562678
vt 0.112645 0.562678
vt 0.111893 0.560651
vt 0.109840 0.559166
vt 0.107036 0.558623
vt 0.104232 0.559166
vt 0.102180 0.560650
vt 0.101428 0.562678
vt 0.102180 0.564706
vt 0.104232 0.566190
vt 0.107036 0.566733
vt 0.075884 0.537235
vt 0.080955 0.539386
vt 0.068957 0.554876
vt 0.569651 0.017482
vt 0.565928 0.014543
vt 0.591762 0.001992
vt 0.289000 0.527707
vt 0.287144 0.531430
vt 0.275146 0.501873
vt 0.282073 0.534155
vt 0.275146 0.535152
vt 0.268219 0.534155
vt 0.263148 0.531430
vt 0.261292 0.527707
vt 0.910939 0.985457
vt 0.914662 0.982518
vt 0.936773 0.998008
vt 0.056959 0.539386
vt 0.062030 0.537235
vt 0.068957 0.536447
vt 0.136044 0.271413
vt 0.107690 0.266555
vt 0.205426 0.278819
vt 0.242413 0.285455
vt 0.168440 0.272183
vt 0.376346 0.789425
vt 0.347992 0.784567
vt 0.415079 0.791203
vt 0.453812 0.789425
vt 0.482166 0.784567
vt 0.550437 0.721181
vt 0.513451 0.727817
vt 0.587424 0.714545
vt 0.030224 0.266555
vt 0.001870 0.271413
vt 0.068957 0.264777
vt 0.136044 0.340680
vt 0.107690 0.331967
vt 0.265958 0.204286
vt 0.298745 0.216188
vt 0.233170 0.192384
vt 0.376346 0.873079
vt 0.347992 0.864366
vt 0.415079 0.876268
vt 0.453812 0.873079
vt 0.482166 0.864366
vt 0.610969 0.795714
vt 0.578181 0.807616
vt 0.643756 0.783812
vt 0.030224 0.331967
vt 0.001870 0.340680
vt 0.068957 0.328778
vt 0.126930 0.415792
vt 0.102428 0.402227
vt 0.376387 0.122544
vt 0.393752 0.141076
vt 0.359021 0.104013
vt 0.342233 0.860465
vt 0.313879 0.884467
vt 0.308617 0.747327
vt 0.333119 0.734615
vt 0.415079 0.971268
vt 0.381608 0.966303
vt 0.448550 0.966303
vt 0.236413 0.884467
vt 0.208059 0.860465
vt 0.217173 0.734615
vt 0.241675 0.747327
vt 0.721398 0.877456
vt 0.704032 0.895987
vt 0.738763 0.858924
vt 0.035486 0.402227
vt 0.010984 0.415793
vt 0.068957 0.397261
vt 0.562206 0.011604
vt 0.275146 0.751980
vt 0.907217 0.988396
vt 0.091559 0.013844
vt 0.108104 0.013844
vt 0.163153 0.558623
vt 0.201885 0.569001
vt 0.185754 0.596941
vt 0.163153 0.590885
vt 0.124420 0.569001
vt 0.140551 0.596941
vt 0.375932 0.513726
vt 0.392477 0.513726
vt 0.415079 0.513726
vt 0.437681 0.513726
vt 0.454227 0.513726
vt 0.163153 0.713554
vt 0.124420 0.703175
vt 0.140551 0.675236
vt 0.163153 0.681292
vt 0.201885 0.703175
vt 0.185754 0.675236
vt 0.029810 0.013844
vt 0.046355 0.013844
vt 0.068957 0.013844
vt 0.202300 0.613487
vt 0.188198 0.621628
vt 0.177613 0.611043
vt 0.163153 0.607168
vt 0.148693 0.611043
vt 0.124005 0.613487
vt 0.138107 0.621628
vt 0.400619 0.501873
vt 0.415079 0.501873
vt 0.429539 0.501873
vt 0.124005 0.658690
vt 0.138107 0.650548
vt 0.148693 0.661134
vt 0.163153 0.665009
vt 0.177613 0.661134
vt 0.202300 0.658690
vt 0.188198 0.650548
vt 0.054497 0.001992
vt 0.068957 0.001992
vt 0.083417 0.001992
vt 0.174363 0.629616
vt 0.169625 0.624878
vt 0.163153 0.623144
vt 0.156681 0.624878
vt 0.151943 0.629616
vt 0.134232 0.636088
vt 0.150208 0.636088
vt 0.151943 0.642560
vt 0.156681 0.647298
vt 0.163153 0.649033
vt 0.169625 0.647298
vt 0.174363 0.642560
vt 0.192073 0.636088
vt 0.176097 0.636088
vt 0.118246 0.672839
vt 0.113508 0.672839
vt 0.113508 0.640514
vt 0.118246 0.640514
vt 0.008342 0.676585
vt 0.014814 0.676585
vt 0.014814 0.708909
vt 0.008342 0.708909
vt 0.001870 0.676585
vt 0.001870 0.708909
vt 0.200704 0.982939
vt 0.195966 0.982939
vt 0.195966 0.950615
vt 0.200704 0.950615
vt 0.207176 0.982939
vt 0.207176 0.950615
vt 0.213648 0.982939
vt 0.213648 0.950615
vt 0.218386 0.982939
vt 0.218386 0.950615
vt 0.105481 0.829489
vt 0.099009 0.829489
vt 0.099009 0.797164
vt 0.105481 0.797164
vt 0.111954 0.829489
vt 0.111953 0.797164
vt 0.100564 0.672839
vt 0.095826 0.672839
vt 0.095826 0.640514
vt 0.100564 0.640514
vt 0.107036 0.672839
vt 0.107036 0.640514
vt 0.113508 0.613836
vt 0.118246 0.613099
vt 0.031484 0.736324
vt 0.025251 0.737330
vt 0.019018 0.738336
vt 0.195966 0.921188
vt 0.200704 0.920451
vt 0.207176 0.920182
vt 0.213648 0.920451
vt 0.218386 0.921188
vt 0.116158 0.767737
vt 0.122391 0.768743
vt 0.128623 0.769750
vt 0.095826 0.613099
vt 0.100564 0.613836
vt 0.107036 0.614106
vt 0.113509 0.585680
vt 0.118246 0.584195
vt 0.063492 0.765228
vt 0.058056 0.767256
vt 0.052621 0.769283
vt 0.195966 0.890241
vt 0.200704 0.888757
vt 0.207176 0.888213
vt 0.213648 0.888757
vt 0.218386 0.890241
vt 0.149760 0.736790
vt 0.155196 0.738818
vt 0.160632 0.740846
vt 0.095826 0.584196
vt 0.100564 0.585680
vt 0.107036 0.586223
vt 0.093057 0.784718
vt 0.091596 0.786746
vt 0.090135 0.788773
vt 0.229974 0.929706
vt 0.225236 0.925727
vt 0.231589 0.888213
vt 0.233642 0.889283
vt 0.236446 0.931163
vt 0.236446 0.889675
vt 0.242918 0.929707
vt 0.239250 0.889283
vt 0.247656 0.925727
vt 0.241303 0.888213
vt 0.187274 0.717300
vt 0.188736 0.719328
vt 0.190197 0.721356
vn 0.070697 -0.908863 -0.411060
vn 0.070697 -0.908863 -0.411060
vn 0.038401 -0.911001 -0.410612
vn 0.044400 -0.910858 -0.410326
vn 0.070697 -0.992628 0.098444
vn 0.070697 -0.992628 0.098444
vn 0.014286 -0.994956 0.099289
vn 0.017252 -0.994897 0.099411
vn 0.070697 -0.810420 0.581569
vn 0.070697 -0.810420 0.581569
vn -0.015002 -0.812709 0.582477
vn -0.017922 -0.812738 0.582354
vn 0.070697 -0.411060 0.908863
vn 0.070697 -0.411060 0.908863
vn -0.043717 -0.412790 0.909777
vn -0.049459 -0.412823 0.909468
vn 0.070697 0.098444 0.992628
vn 0.070697 0.098444 0.992628
vn -0.063481 0.097877 0.993172
vn -0.066320 0.097832 0.992991
vn 0.070697 0.581569 0.810419
vn 0.070697 0.581569 0.810419
vn -0.066320 0.582268 0.810288
vn -0.063481 0.582353 0.810454
vn 0.070697 0.908863 0.411060
vn 0.070697 0.908863 0.411060
vn -0.049459 0.910586 0.410349
vn -0.043717 0.910766 0.410603
vn 0.070697 0.992628 -0.098444
vn 0.070697 0.992628 -0.098444
vn -0.017922 0.994888 -0.099385
vn -0.015002 0.994947 -0.099274
vn 0.070697 0.810420 -0.581569
vn 0.070697 0.810420 -0.581569
vn 0.017252 0.812762 -0.582340
vn 0.014286 0.812726 -0.582471
vn 0.070697 0.411060 -0.908863
vn 0.070697 0.411060 -0.908863
vn 0.044400 0.413042 -0.909629
vn 0.038401 0.412961 -0.909939
vn 0.070697 -0.098444 -0.992628
vn 0.070697 -0.098444 -0.992628
vn 0.056700 -0.097809 -0.993589
vn 0.053683 -0.097864 -0.993751
vn 0.070697 -0.581569 -0.810419
vn 0.070697 -0.581569 -0.810419
vn 0.053683 -0.582745 -0.810880
vn 0.056700 -0.582680 -0.810722
vn 0.384088 -0.325824 -0.863895
vn 0.384088 -0.325836 -0.863891
vn 0.384093 -0.325819 -0.863895
vn 0.384093 -0.325825 -0.863893
vn 0.384094 -0.325836 -0.863888
vn 0.384098 -0.325808 -0.863897
vn 0.384099 -0.325808 -0.863897
vn 0.384094 -0.325822 -0.863893
vn 0.384096 -0.325812 -0.863896
vn 0.384097 -0.325813 -0.863896
vn 0.384085 -0.325817 -0.863899
vn 0.384089 -0.325805 -0.863902
vn 0.384092 -0.325818 -0.863896
vn 0.414172 -0.681705 -0.603108
vn 0.162225 -0.938868 -0.303660
vn -0.613558 -0.278654 -0.738849
vn -0.215699 -0.975928 0.032222
vn -0.598937 -0.744801 0.294189
vn -0.857768 -0.334904 0.389965
vn -0.944617 0.115800 0.307067
vn -0.857774 0.509005 0.071684
vn -0.598942 0.753575 -0.270913
vn -0.215696 0.754149 -0.620269
vn 0.162224 0.504515 -0.848026
vn 0.414171 0.113657 -0.903075
vn 0.499069 -0.305796 -0.810814
vn 0.238329 -0.895573 -0.375698
vn 0.240142 -0.895348 -0.375078
vn 0.086114 -0.990045 0.111336
vn 0.086940 -0.989941 0.111616
vn -0.084957 -0.816922 0.570457
vn -0.085694 -0.817016 0.570212
vn -0.229654 -0.423961 0.876080
vn -0.230983 -0.424129 0.875649
vn -0.312147 0.081253 0.946553
vn -0.312771 0.081176 0.946353
vn -0.312771 0.563978 0.764266
vn -0.312147 0.564052 0.764467
vn -0.230983 0.896744 0.377488
vn -0.229654 0.896902 0.377922
vn -0.085694 0.990082 -0.111327
vn -0.084957 0.990173 -0.111082
vn 0.086939 0.817101 -0.569902
vn 0.086114 0.816994 -0.570181
vn 0.240142 0.424672 -0.872918
vn 0.238329 0.424431 -0.873532
vn 0.329475 -0.079545 -0.940807
vn 0.328521 -0.079670 -0.941131
vn 0.328521 -0.561660 -0.759350
vn 0.329475 -0.561540 -0.759025
vn 0.346948 -0.876598 -0.333471
vn 0.346569 -0.876684 -0.333640
vn 0.114428 -0.986947 0.113323
vn 0.114383 -0.986943 0.113401
vn -0.158192 -0.835318 0.526516
vn -0.157584 -0.835140 0.526981
vn -0.397002 -0.459704 0.794394
vn -0.396091 -0.459461 0.794989
vn -0.535590 0.039728 0.843543
vn -0.535152 0.039835 0.843816
vn -0.535151 0.527311 0.659967
vn -0.535590 0.527211 0.659691
vn -0.396091 0.870011 0.293584
vn -0.397002 0.869801 0.292978
vn -0.157584 0.975144 -0.155760
vn -0.158192 0.974971 -0.156228
vn 0.114383 0.816028 -0.566582
vn 0.114427 0.815979 -0.566643
vn 0.346568 0.438020 -0.829475
vn 0.346948 0.438067 -0.829291
vn 0.479043 -0.056227 -0.875989
vn 0.479242 -0.056190 -0.875882
vn 0.479242 -0.536204 -0.694847
vn 0.479043 -0.536246 -0.694952
vn 0.379635 -0.860948 -0.338594
vn 0.381599 -0.862628 -0.332047
vn 0.095361 -0.994096 0.051768
vn 0.103642 -0.991959 0.072635
vn -0.242320 -0.877830 0.413154
vn -0.225196 -0.866502 0.445490
vn -0.543814 -0.526614 0.653410
vn -0.521867 -0.512161 0.682163
vn -0.716716 -0.023472 0.696970
vn -0.705607 -0.018219 0.708369
vn -0.705606 0.481462 0.519918
vn -0.716716 0.477879 0.507888
vn -0.521867 0.835080 0.174057
vn -0.543814 0.826946 0.142921
vn -0.225196 0.944882 -0.237666
vn -0.242319 0.932035 -0.269429
vn 0.103642 0.792874 -0.600507
vn 0.095360 0.780699 -0.617589
vn 0.381598 0.428518 -0.818997
vn 0.379634 0.422933 -0.822804
vn 0.540533 -0.048906 -0.839900
vn 0.540657 -0.049455 -0.839788
vn 0.540657 -0.517426 -0.663295
vn 0.540533 -0.517912 -0.663017
vn 0.374594 -0.856516 -0.355049
vn 0.374593 -0.856516 -0.355049
vn 0.079279 -0.996786 0.011519
vn 0.079279 -0.996786 0.011519
vn -0.277722 -0.897717 0.342015
vn -0.277722 -0.897717 0.342015
vn -0.610944 -0.568973 0.550470
vn -0.610944 -0.568973 0.550470
vn -0.819412 -0.077236 0.567978
vn -0.819412 -0.077236 0.567978
vn -0.819412 0.433070 0.375520
vn -0.819412 0.433070 0.375520
vn -0.610945 0.790778 0.037645
vn -0.610945 0.790778 0.037645
vn -0.277722 0.899992 -0.335984
vn -0.277722 0.899992 -0.335984
vn 0.079280 0.756140 -0.649590
vn 0.079280 0.756140 -0.649590
vn 0.374592 0.408739 -0.832234
vn 0.374592 0.408739 -0.832234
vn 0.541551 -0.053434 -0.838968
vn 0.541551 -0.053434 -0.838968
vn 0.541551 -0.513896 -0.665307
vn 0.541551 -0.513896 -0.665307
vn 0.371886 -0.845794 -0.382535
vn 0.371886 -0.845794 -0.382535
vn 0.371886 -0.923747 0.091612
vn 0.371886 -0.923747 0.091612
vn 0.371886 -0.754182 0.541212
vn 0.371886 -0.754182 0.541212
vn 0.371886 -0.382535 0.845794
vn 0.371886 -0.382535 0.845794
vn 0.371886 0.091612 0.923747
vn 0.371886 0.091612 0.923747
vn 0.371886 0.541212 0.754182
vn 0.371886 0.541212 0.754182
vn 0.371886 0.845794 0.382535
vn 0.371886 0.845794 0.382535
vn 0.371886 0.923747 -0.091612
vn 0.371886 0.923747 -0.091612
vn 0.371886 0.754182 -0.541212
vn 0.371886 0.754182 -0.541212
vn 0.371886 0.382535 -0.845794
vn 0.371886 0.382535 -0.845794
vn 0.371886 -0.091612 -0.923747
vn 0.371886 -0.091612 -0.923747
vn 0.371886 -0.541212 -0.754182
vn 0.371886 -0.541212 -0.754182
vn 0.608077 -0.723336 -0.327150
vn 0.608077 -0.723336 -0.327150
vn 0.608077 -0.723336 -0.327150
vn 0.608077 -0.723336 -0.327150
vn 0.608076 -0.790003 0.078348
vn 0.608076 -0.790003 0.078348
vn 0.608076 -0.790003 0.078348
vn 0.608076 -0.790003 0.078348
vn 0.608076 -0.644989 0.462853
vn 0.608076 -0.644989 0.462853
vn 0.608076 -0.644989 0.462853
vn 0.608076 -0.644989 0.462853
vn 0.608076 -0.327150 0.723337
vn 0.608076 -0.327150 0.723337
vn 0.608076 -0.327150 0.723337
vn 0.608076 -0.327150 0.723337
vn 0.608076 0.078347 0.790003
vn 0.608076 0.078347 0.790003
vn 0.608076 0.078347 0.790003
vn 0.608076 0.078347 0.790003
vn 0.608077 0.462853 0.644989
vn 0.608077 0.462853 0.644988
vn 0.608077 0.462853 0.644989
vn 0.608077 0.462853 0.644988
vn 0.608076 0.723337 0.327150
vn 0.608076 0.723337 0.327150
vn 0.608076 0.723337 0.327150
vn 0.608076 0.723337 0.327150
vn 0.608076 0.790003 -0.078348
vn 0.608076 0.790003 -0.078348
vn 0.608076 0.790003 -0.078348
vn 0.608076 0.790003 -0.078348
vn 0.608076 0.644988 -0.462853
vn 0.608076 0.644988 -0.462853
vn 0.608076 0.644988 -0.462853
vn 0.608076 0.644988 -0.462853
vn 0.608076 0.327152 -0.723336
vn 0.608076 0.327152 -0.723336
vn 0.608076 0.327152 -0.723336
vn 0.608076 0.327152 -0.723336
vn 0.608076 -0.078348 -0.790003
vn 0.608076 -0.078348 -0.790003
vn 0.608076 -0.078348 -0.790003
vn 0.608076 -0.078348 -0.790003
vn 0.608076 -0.462854 -0.644988
vn 0.608076 -0.462854 -0.644988
vn 0.608076 -0.462854 -0.644988
vn 0.608076 -0.462854 -0.644988
vn 1.000000 -0.000001 0.000000
vn 1.000000 -0.000001 0.000000
vn 1.000000 -0.000001 0.000000
vn 1.000000 -0.000001 0.000000
vn 1.000000 0.000002 0.000000
vn 1.000000 0.000002 0.000000
vn 1.000000 0.000002 0.000000
vn 1.000000 0.000002 0.000000
vn 1.000000 0.000000 0.000000
vn 1.000000 0.000000 0.000000
vn 1.000000 0.000000 0.000000
vn 1.000000 0.000000 0.000000
vn 1.000000 0.000003 0.000000
vn 1.000000 0.000003 0.000000
vn 1.000000 0.000003 0.000000
vn 1.000000 0.000003 0.000000
vn 1.000000 0.000000 0.000000
vn 1.000000 0.000000 0.000000
vn 1.000000 0.000000 0.000000
vn 1.000000 0.000000 0.000000
vn 1.000000 0.000003 0.000000
vn 1.000000 0.000003 0.000000
vn 1.000000 0.000003 0.000000
vn 1.000000 0.000003 0.000000
vn 1.000000 -0.000002 0.000000
vn 1.000000 -0.000002 0.000000
vn 1.000000 -0.000002 0.000000
vn 1.000000 -0.000002 0.000000
vn 1.000000 0.000000 0.000000
vn 1.000000 0.000000 0.000000
vn 1.000000 0.000000 0.000000
vn 1.000000 0.000000 0.000000
vn 1.000000 0.000003 0.000000
vn 1.000000 0.000003 0.000000
vn 1.000000 0.000003 0.000000
vn 1.000000 0.000003 0.000000
vn 1.000000 0.000000 0.000000
vn 1.000000 0.000000 0.000000
vn 1.000000 0.000000 0.000000
vn 1.000000 0.000000 0.000000
vn 1.000000 0.000000 0.000000
vn 1.000000 0.000000 0.000000
vn 1.000000 0.000000 0.000000
vn 1.000000 0.000000 0.000000
vn 1.000000 0.000000 0.000000
vn 1.000000 0.000000 0.000000
vn 1.000000 0.000000 0.000000
vn 1.000000 0.000000 0.000000
vn 0.000000 -0.911143 -0.412090
vn 0.000000 -0.911143 -0.412090
vn -0.121081 -0.907328 -0.402611
vn -0.102790 -0.908772 -0.404436
vn 0.000000 -0.995118 0.098688
vn 0.000000 -0.995118 0.098688
vn -0.045203 -0.993744 0.102125
vn -0.036211 -0.994181 0.101458
vn 0.000001 -0.812449 0.583033
vn 0.000001 -0.812449 0.583033
vn 0.044958 -0.813654 0.579609
vn 0.036303 -0.813550 0.580360
vn 0.000003 -0.412091 0.911143
vn 0.000003 -0.412091 0.911143
vn 0.119533 -0.415236 0.901826
vn 0.135794 -0.152144 0.978985
vn 0.000002 0.098674 0.995120
vn 0.000002 0.098674 0.995120
vn 0.148497 0.094562 0.984381
vn 0.000000 0.583028 0.812452
vn 0.000000 0.583028 0.812452
vn 0.148497 0.579022 0.801675
vn 0.156461 0.578437 0.800581
vn 0.000000 0.911143 0.412090
vn 0.000000 0.911143 0.412090
vn 0.103046 0.908661 0.404619
vn 0.119532 0.907355 0.403013
vn 0.000000 0.995118 -0.098689
vn 0.000000 0.995118 -0.098689
vn 0.036302 0.994181 -0.101425
vn 0.044958 0.993762 -0.102058
vn 0.000000 0.812449 -0.583032
vn 0.000000 0.812449 -0.583032
vn -0.036212 0.813573 -0.580335
vn -0.045205 0.813685 -0.579545
vn 0.000003 0.412091 -0.911143
vn 0.000003 0.412091 -0.911143
vn -0.102790 0.415361 -0.903830
vn -0.139146 0.179840 -0.973805
vn 0.000002 -0.098674 -0.995120
vn 0.000002 -0.098674 -0.995120
vn -0.158396 -0.094036 -0.982888
vn 0.000000 -0.583028 -0.812452
vn 0.000000 -0.583028 -0.812452
vn -0.158397 -0.578430 -0.800206
vn -0.149224 -0.579103 -0.801481
vn -0.325761 -0.879412 -0.347153
vn -0.216510 -0.971075 -0.100677
vn -0.113685 -0.986468 0.118138
vn 0.118162 -0.819817 0.560302
vn 0.112334 -0.818737 0.563072
vn 0.315380 -0.430601 0.845647
vn 0.378222 -0.172811 0.909442
vn 0.415466 0.069517 0.906948
vn 0.415469 0.546685 0.726994
vn 0.421020 0.545765 0.724488
vn 0.304043 0.883666 0.355939
vn 0.315377 0.881795 0.350677
vn 0.112327 0.986659 -0.117841
vn 0.118155 0.985640 -0.120635
vn -0.113688 0.818797 -0.562714
vn -0.119626 0.819925 -0.559833
vn -0.313831 0.428786 -0.847144
vn -0.390234 0.199279 -0.898891
vn -0.439226 -0.066346 -0.895924
vn -0.439227 -0.541800 -0.716611
vn -0.433264 -0.542827 -0.719459
vn -0.386076 -0.866565 -0.316243
vn -0.271888 -0.957850 -0.092736
vn -0.141714 -0.981089 0.131837
vn 0.140649 -0.823659 0.549367
vn 0.140649 -0.823659 0.549367
vn 0.378425 -0.440998 0.813828
vn 0.461106 -0.196763 0.865254
vn 0.510739 0.052185 0.858150
vn 0.510743 0.527471 0.678907
vn 0.510743 0.527472 0.678907
vn 0.378420 0.868591 0.319918
vn 0.378420 0.868591 0.319918
vn 0.140636 0.981304 -0.131389
vn 0.140636 0.981305 -0.131389
vn -0.141715 0.823806 -0.548873
vn -0.141715 0.823806 -0.548873
vn -0.386095 0.441875 -0.809739
vn -0.386095 0.441875 -0.809739
vn -0.524419 -0.049748 -0.850006
vn -0.524419 -0.049748 -0.850006
vn -0.524421 -0.523948 -0.671164
vn -0.524421 -0.523948 -0.671164
vn -0.378129 -0.878798 -0.291087
vn -0.378129 -0.878798 -0.291087
vn -0.378129 -0.878799 -0.291087
vn -0.378129 -0.878799 -0.291087
vn -0.065804 -0.994798 0.077758
vn -0.065804 -0.994798 0.077758
vn -0.065804 -0.994798 0.077758
vn -0.065804 -0.994798 0.077758
vn 0.269722 -0.873335 0.405631
vn 0.269722 -0.873335 0.405631
vn 0.269722 -0.873335 0.405631
vn 0.269722 -0.873335 0.405631
vn 0.565265 -0.536633 0.626499
vn 0.565265 -0.536633 0.626499
vn 0.565265 -0.536633 0.626499
vn 0.565265 -0.536633 0.626499
vn 0.748344 -0.041462 0.662014
vn 0.748344 -0.041462 0.662014
vn 0.748344 -0.041462 0.662014
vn 0.748344 -0.041462 0.662014
vn 0.748351 0.468275 0.469775
vn 0.748351 0.468275 0.469775
vn 0.748351 0.468275 0.469775
vn 0.748351 0.468275 0.469775
vn 0.565272 0.816694 0.116100
vn 0.565272 0.816694 0.116100
vn 0.565272 0.816694 0.116100
vn 0.565272 0.816694 0.116100
vn 0.269697 0.923691 -0.272137
vn 0.269697 0.923691 -0.272137
vn 0.269697 0.923691 -0.272137
vn 0.269697 0.923691 -0.272137
vn -0.065801 0.798385 -0.598541
vn -0.065801 0.798385 -0.598541
vn -0.065801 0.798385 -0.598541
vn -0.065801 0.798385 -0.598541
vn -0.378155 0.467662 -0.798931
vn -0.378155 0.467662 -0.798931
vn -0.378155 0.467662 -0.798931
vn -0.378155 0.467662 -0.798931
vn -0.579795 -0.017820 -0.814567
vn -0.579795 -0.017820 -0.814567
vn -0.579795 -0.017820 -0.814567
vn -0.579795 -0.017820 -0.814567
vn -0.579793 -0.524527 -0.623467
vn -0.579793 -0.524527 -0.623468
vn -0.579793 -0.524527 -0.623468
vn -0.579793 -0.524527 -0.623468
vn -0.182107 -0.836475 -0.516863
vn -0.182107 -0.836475 -0.516863
vn -0.204420 -0.844587 -0.494860
vn -0.199998 -0.843363 -0.498738
vn 0.183167 -0.967176 -0.176126
vn 0.183167 -0.967176 -0.176126
vn 0.144148 -0.979975 -0.137370
vn 0.146321 -0.979380 -0.139303
vn 0.512715 -0.835217 0.198834
vn 0.512715 -0.835217 0.198834
vn 0.453092 -0.853406 0.257695
vn 0.450949 -0.853962 0.259603
vn 0.718235 -0.475957 0.507546
vn 0.718235 -0.475957 0.507546
vn 0.638338 -0.498914 0.586183
vn 0.634074 -0.499979 0.589891
vn 0.744659 0.014343 0.667291
vn 0.744659 0.014343 0.667291
vn 0.650493 -0.011099 0.759431
vn 0.648367 -0.011651 0.761239
vn 0.584905 0.504305 0.635266
vn 0.584905 0.504305 0.635266
vn 0.488180 0.479640 0.729127
vn 0.490292 0.480233 0.727316
vn 0.281781 0.862645 0.420051
vn 0.281781 0.862646 0.420051
vn 0.196466 0.842159 0.502165
vn 0.200682 0.843373 0.498447
vn -0.083493 0.993347 0.079314
vn -0.083493 0.993347 0.079314
vn -0.146774 0.979244 0.139779
vn -0.144641 0.979832 0.137869
vn -0.413042 0.861388 -0.295647
vn -0.413042 0.861388 -0.295647
vn -0.451413 0.853861 -0.259130
vn -0.453593 0.853289 -0.257198
vn -0.618562 0.502128 -0.604358
vn -0.618562 0.502128 -0.604358
vn -0.637768 0.499273 -0.586497
vn -0.642211 0.498113 -0.582623
vn -0.644986 0.011828 -0.764103
vn -0.644985 0.011828 -0.764103
vn -0.655572 0.009950 -0.755067
vn -0.657810 0.009353 -0.753126
vn -0.485232 -0.478134 -0.732078
vn -0.485232 -0.478134 -0.732078
vn -0.497476 -0.482390 -0.720984
vn -0.495241 -0.481782 -0.722926
vn -0.318522 -0.164874 -0.933467
vn -0.318517 -0.164880 -0.933468
vn -0.318516 -0.164872 -0.933469
vn -0.318513 -0.164876 -0.933470
vn -0.318518 -0.164875 -0.933468
vn -0.318518 -0.164869 -0.933469
vn -0.318521 -0.164863 -0.933469
vn -0.318519 -0.164860 -0.933470
vn -0.318508 -0.164866 -0.933473
vn -0.318509 -0.164871 -0.933472
vn -0.318521 -0.164881 -0.933466
vn -0.318527 -0.164866 -0.933467
vn -0.318518 -0.164866 -0.933470
vn -0.090231 -0.532344 -0.841706
vn -0.039796 -0.859160 -0.510157
vn -0.936500 -0.315367 -0.153333
vn -0.066572 -0.997513 -0.023165
vn -0.166541 -0.867471 0.468783
vn -0.307695 -0.523644 0.794432
vn -0.456437 -0.090976 0.885093
vn -0.586749 0.332209 0.738487
vn -0.662003 0.652113 0.369460
vn -0.638653 0.757047 -0.137847
vn -0.517078 0.604648 -0.605831
vn -0.353234 0.274273 -0.894427
vn -0.201258 -0.129092 -0.970995
vn -0.039814 -0.795834 -0.604204
vn -0.038112 -0.795338 -0.604967
vn 0.202975 -0.963030 -0.177127
vn 0.203748 -0.962803 -0.177476
vn 0.395559 -0.869324 0.296328
vn 0.394873 -0.869528 0.296642
vn 0.484180 -0.541029 0.687646
vn 0.482950 -0.541398 0.688220
vn 0.443339 -0.068922 0.893700
vn 0.442762 -0.069093 0.893973
vn 0.283116 0.420542 0.861969
vn 0.283693 0.420711 0.861696
vn 0.046181 0.798168 0.600663
vn 0.047415 0.798527 0.600089
vn -0.202675 0.963144 0.176853
vn -0.201988 0.963346 0.176539
vn -0.393781 0.869812 -0.297261
vn -0.394553 0.869581 -0.296912
vn -0.474599 0.543363 -0.692468
vn -0.476296 0.542851 -0.691705
vn -0.427174 0.073248 -0.901197
vn -0.428068 0.072981 -0.900795
vn -0.268690 -0.415830 -0.868845
vn -0.267795 -0.415567 -0.869247
vn 0.065363 -0.761214 -0.645199
vn 0.064982 -0.761352 -0.645074
vn 0.224139 -0.954950 -0.194506
vn 0.224162 -0.954962 -0.194420
vn 0.314077 -0.896665 0.312007
vn 0.314823 -0.896422 0.311952
vn 0.310809 -0.599142 0.737853
vn 0.311856 -0.598793 0.737694
vn 0.215734 -0.141031 0.966214
vn 0.216228 -0.140871 0.966127
vn 0.055036 0.353504 0.933812
vn 0.054539 0.353352 0.933899
vn -0.127756 0.749494 0.649567
vn -0.128814 0.749177 0.649723
vn -0.283778 0.939481 0.191952
vn -0.284526 0.939244 0.192006
vn -0.372021 0.873525 -0.313935
vn -0.372029 0.873491 -0.314018
vn -0.369748 0.571959 -0.732223
vn -0.369354 0.572057 -0.732344
vn -0.277454 0.117533 -0.953523
vn -0.277240 0.117596 -0.953577
vn -0.118515 -0.369210 -0.921758
vn -0.118727 -0.369279 -0.921703
vn 0.083780 -0.739366 -0.668071
vn 0.089898 -0.741273 -0.665156
vn 0.167678 -0.959578 -0.226039
vn 0.188118 -0.957953 -0.216651
vn 0.177431 -0.942962 0.281675
vn 0.211615 -0.931809 0.294875
vn 0.112032 -0.678260 0.726231
vn 0.146884 -0.662815 0.734235
vn -0.011420 -0.222336 0.974903
vn 0.004126 -0.216233 0.976333
vn -0.161101 0.290517 0.943211
vn -0.177199 0.286108 0.941670
vn -0.298604 0.703492 0.644930
vn -0.335545 0.694455 0.636507
vn -0.387350 0.905210 0.174801
vn -0.421032 0.892516 0.161702
vn -0.402067 0.852139 -0.334964
vn -0.419189 0.840333 -0.343687
vn -0.337042 0.568145 -0.750742
vn -0.340757 0.562683 -0.753175
vn -0.209086 0.132620 -0.968863
vn -0.208884 0.132095 -0.968978
vn -0.054142 -0.342498 -0.937957
vn -0.054002 -0.343023 -0.937773
vn 0.068318 -0.734389 -0.675281
vn 0.068318 -0.734389 -0.675281
vn 0.128084 -0.961333 -0.243790
vn 0.128084 -0.961333 -0.243790
vn 0.103503 -0.962156 0.252079
vn 0.103503 -0.962156 0.252079
vn -0.005280 -0.722260 0.691601
vn -0.005280 -0.722260 0.691601
vn -0.171473 -0.281578 0.944093
vn -0.171473 -0.281578 0.944093
vn -0.340212 0.235945 0.910267
vn -0.340212 0.235945 0.910267
vn -0.454906 0.656734 0.601466
vn -0.454906 0.656734 0.601466
vn -0.490941 0.860995 0.132912
vn -0.490941 0.860995 0.132912
vn -0.451550 0.816401 -0.359988
vn -0.451550 0.816401 -0.359988
vn -0.350059 0.548771 -0.759150
vn -0.350059 0.548771 -0.759150
vn -0.207419 0.128290 -0.969804
vn -0.207419 0.128290 -0.969804
vn -0.055160 -0.338687 -0.939281
vn -0.055160 -0.338687 -0.939281
vn 0.046306 -0.721773 -0.690579
vn 0.046306 -0.721773 -0.690579
vn 0.386233 -0.843405 -0.373486
vn 0.386233 -0.843405 -0.373486
vn 0.692913 -0.720603 -0.024545
vn 0.692913 -0.720603 -0.024545
vn 0.884171 -0.386273 0.262743
vn 0.884172 -0.386273 0.262743
vn 0.908761 0.070003 0.411403
vn 0.908761 0.070003 0.411403
vn 0.760093 0.525965 0.381601
vn 0.760093 0.525965 0.381601
vn 0.478004 0.859439 0.181319
vn 0.478004 0.859439 0.181319
vn 0.138077 0.981071 -0.135773
vn 0.138077 0.981071 -0.135773
vn -0.168603 0.858269 -0.484713
vn -0.168603 0.858269 -0.484713
vn -0.359861 0.523939 -0.772003
vn -0.359861 0.523939 -0.772003
vn -0.384452 0.067663 -0.920662
vn -0.384452 0.067663 -0.920662
vn -0.235783 -0.388299 -0.890859
vn -0.235783 -0.388299 -0.890859
vn 0.244057 -0.563588 -0.789180
vn 0.244057 -0.563588 -0.789180
vn 0.244057 -0.563588 -0.789180
vn 0.244057 -0.563588 -0.789180
vn 0.534766 -0.667611 -0.517997
vn 0.534766 -0.667611 -0.517997
vn 0.534766 -0.667611 -0.517997
vn 0.534766 -0.667611 -0.517997
vn 0.797045 -0.562588 -0.219577
vn 0.797045 -0.562588 -0.219577
vn 0.797045 -0.562588 -0.219577
vn 0.797045 -0.562588 -0.219577
vn 0.960612 -0.276663 0.026117
vn 0.960612 -0.276663 0.026117
vn 0.960612 -0.276663 0.026117
vn 0.960612 -0.276663 0.026117
vn 0.981642 0.113549 0.153253
vn 0.981642 0.113549 0.153253
vn 0.981642 0.113549 0.153253
vn 0.981642 0.113549 0.153253
vn 0.854498 0.503497 0.127766
vn 0.854498 0.503497 0.127766
vn 0.854498 0.503497 0.127766
vn 0.854498 0.503497 0.127766
vn 0.613250 0.788689 -0.043517
vn 0.613250 0.788689 -0.043517
vn 0.613250 0.788689 -0.043517
vn 0.613250 0.788689 -0.043517
vn 0.322540 0.892710 -0.314700
vn 0.322540 0.892710 -0.314700
vn 0.322540 0.892710 -0.314700
vn 0.322540 0.892710 -0.314700
vn 0.060262 0.787688 -0.613119
vn 0.060262 0.787689 -0.613119
vn 0.060262 0.787688 -0.613119
vn 0.060262 0.787688 -0.613119
vn -0.103305 0.501764 -0.858814
vn -0.103305 0.501764 -0.858814
vn -0.103305 0.501764 -0.858814
vn -0.103305 0.501764 -0.858814
vn -0.124335 0.111550 -0.985950
vn -0.124335 0.111550 -0.985950
vn -0.124335 0.111550 -0.985950
vn -0.124335 0.111550 -0.985950
vn 0.002809 -0.278397 -0.960462
vn 0.002809 -0.278397 -0.960462
vn 0.002809 -0.278397 -0.960462
vn 0.002809 -0.278397 -0.960462
vn 0.704931 0.185092 -0.684699
vn 0.704931 0.185092 -0.684699
vn 0.704931 0.185092 -0.684699
vn 0.704931 0.185092 -0.684699
vn 0.704934 0.185091 -0.684697
vn 0.704934 0.185091 -0.684697
vn 0.704934 0.185091 -0.684697
vn 0.704934 0.185091 -0.684697
vn 0.704934 0.185092 -0.684696
vn 0.704934 0.185092 -0.684696
vn 0.704934 0.185092 -0.684696
vn 0.704934 0.185092 -0.684696
vn 0.704933 0.185091 -0.684698
vn 0.704933 0.185091 -0.684698
vn 0.704933 0.185091 -0.684698
vn 0.704933 0.185091 -0.684698
vn 0.704934 0.185091 -0.684696
vn 0.704934 0.185091 -0.684696
vn 0.704934 0.185091 -0.684696
vn 0.704934 0.185091 -0.684696
vn 0.704934 0.185089 -0.684697
vn 0.704934 0.185089 -0.684697
vn 0.704934 0.185089 -0.684697
vn 0.704934 0.185089 -0.684697
vn 0.704932 0.185092 -0.684698
vn 0.704932 0.185092 -0.684698
vn 0.704932 0.185092 -0.684699
vn 0.704932 0.185092 -0.684699
vn 0.704932 0.185091 -0.684698
vn 0.704932 0.185091 -0.684698
vn 0.704932 0.185091 -0.684698
vn 0.704932 0.185091 -0.684698
vn 0.704933 0.185092 -0.684697
vn 0.704933 0.185092 -0.684697
vn 0.704933 0.185092 -0.684697
vn 0.704933 0.185092 -0.684697
vn 0.704932 0.185094 -0.684698
vn 0.704932 0.185094 -0.684698
vn 0.704932 0.185094 -0.684698
vn 0.704932 0.185094 -0.684698
vn 0.704934 0.185092 -0.684697
vn 0.704934 0.185092 -0.684697
vn 0.704934 0.185092 -0.684697
vn 0.704934 0.185092 -0.684697
vn 0.704934 0.185090 -0.684697
vn 0.704934 0.185090 -0.684697
vn 0.704934 0.185090 -0.684697
vn 0.704934 0.185090 -0.684697
vn -0.232525 -0.851692 -0.469631
vn -0.232525 -0.851692 -0.469631
vn -0.311429 -0.871278 -0.379325
vn -0.299731 -0.869130 -0.393414
vn 0.133664 -0.982721 -0.128039
vn 0.133664 -0.982721 -0.128039
vn 0.104138 -0.990072 -0.094407
vn 0.110034 -0.988771 -0.101118
vn 0.464043 -0.850428 0.247866
vn 0.464043 -0.850428 0.247866
vn 0.493394 -0.842957 0.214442
vn 0.487817 -0.844530 0.220916
vn 0.670077 -0.490274 0.557341
vn 0.670077 -0.490274 0.557341
vn 0.747958 -0.470334 0.468343
vn 0.797015 -0.217391 0.563478
vn 0.696567 0.001242 0.717491
vn 0.696567 0.001242 0.717491
vn 0.793926 0.025736 0.607469
vn 0.536412 0.492454 0.685384
vn 0.536412 0.492454 0.685384
vn 0.633737 0.517052 0.575356
vn 0.638616 0.518059 0.569021
vn 0.232525 0.851691 0.469633
vn 0.232525 0.851691 0.469633
vn 0.300049 0.869051 0.393346
vn 0.310620 0.870978 0.380673
vn -0.133664 0.982720 0.128043
vn -0.133664 0.982720 0.128043
vn -0.109946 0.988784 0.101080
vn -0.104265 0.990038 0.094627
vn -0.464042 0.850427 -0.247868
vn -0.464042 0.850427 -0.247868
vn -0.487737 0.844565 -0.220958
vn -0.493526 0.842935 -0.214224
vn -0.670075 0.490271 -0.557346
vn -0.670075 0.490271 -0.557346
vn -0.737581 0.473742 -0.481189
vn -0.797499 0.243361 -0.552060
vn -0.696565 -0.001242 -0.717493
vn -0.696565 -0.001242 -0.717493
vn -0.799883 -0.027194 -0.599539
vn -0.536410 -0.492450 -0.685388
vn -0.536410 -0.492450 -0.685388
vn -0.639715 -0.518445 -0.567433
vn -0.634106 -0.517283 -0.574742
vn -0.418338 -0.887167 -0.194751
vn -0.161330 -0.980194 -0.114857
vn 0.066707 -0.997164 -0.034845
vn 0.531757 -0.833587 0.149557
vn 0.529535 -0.833876 0.155704
vn 0.847323 -0.443729 0.291801
vn 0.920117 -0.186073 0.344618
vn 0.929036 0.058069 0.365403
vn 0.771260 0.541989 0.333776
vn 0.773462 0.542356 0.328036
vn 0.408960 0.886468 0.216626
vn 0.413353 0.887240 0.204804
vn -0.067467 0.997071 0.036019
vn -0.065267 0.997421 0.029868
vn -0.530243 0.833647 -0.154515
vn -0.532467 0.833375 -0.148205
vn -0.847173 0.442381 -0.294273
vn -0.922833 0.208728 -0.323745
vn -0.938202 -0.060413 -0.340774
vn -0.780986 -0.542604 -0.309259
vn -0.778728 -0.542232 -0.315543
vn -0.439851 -0.888725 -0.129227
vn -0.195608 -0.978270 -0.068749
vn 0.056278 -0.998403 -0.004981
vn 0.540132 -0.832136 0.125729
vn 0.540132 -0.832136 0.125729
vn 0.869960 -0.439180 0.224256
vn 0.948873 -0.189926 0.252128
vn 0.962843 0.063422 0.262511
vn 0.805690 0.545434 0.231008
vn 0.805690 0.545434 0.231008
vn 0.436916 0.888939 0.137448
vn 0.436916 0.888939 0.137448
vn -0.056736 0.998371 0.006073
vn -0.056736 0.998371 0.006073
vn -0.540546 0.832033 -0.124625
vn -0.540546 0.832033 -0.124625
vn -0.872535 0.438227 -0.215964
vn -0.872535 0.438227 -0.215964
vn -0.966891 -0.064340 -0.246948
vn -0.966891 -0.064340 -0.246948
vn -0.810086 -0.545266 -0.215514
vn -0.810086 -0.545266 -0.215514
vn -0.415689 -0.901629 -0.119451
vn -0.415689 -0.901629 -0.119451
vn -0.415689 -0.901629 -0.119451
vn -0.415689 -0.901629 -0.119451
vn 0.072472 -0.992583 -0.097602
vn 0.072472 -0.992583 -0.097602
vn 0.072472 -0.992583 -0.097602
vn 0.072472 -0.992583 -0.097602
vn 0.532782 -0.843072 -0.073303
vn 0.532782 -0.843072 -0.073303
vn 0.532782 -0.843072 -0.073303
vn 0.532782 -0.843072 -0.073303
vn 0.875491 -0.480206 -0.054012
vn 0.875491 -0.480206 -0.054012
vn 0.875491 -0.480206 -0.054012
vn 0.875491 -0.480206 -0.054012
vn 0.997815 0.034587 -0.056302
vn 0.997815 0.034587 -0.056302
vn 0.997815 0.034587 -0.056302
vn 0.997815 0.034587 -0.056302
vn 0.829271 0.551537 -0.090092
vn 0.829271 0.551537 -0.090092
vn 0.829271 0.551537 -0.090092
vn 0.829271 0.551537 -0.090092
vn 0.427996 0.892280 -0.143722
vn 0.427996 0.892280 -0.143722
vn 0.427996 0.892280 -0.143722
vn 0.427996 0.892280 -0.143722
vn -0.061470 0.979384 -0.192428
vn -0.061470 0.979384 -0.192428
vn -0.061470 0.979384 -0.192428
vn -0.061470 0.979384 -0.192428
vn -0.520475 0.825982 -0.216470
vn -0.520475 0.825982 -0.216470
vn -0.520475 0.825982 -0.216470
vn -0.520475 0.825982 -0.216470
vn -0.860961 0.463882 -0.208709
vn -0.860961 0.463882 -0.208709
vn -0.860961 0.463882 -0.208709
vn -0.860961 0.463882 -0.208709
vn -0.982946 -0.046771 -0.177849
vn -0.982946 -0.046771 -0.177849
vn -0.982946 -0.046771 -0.177849
vn -0.982946 -0.046771 -0.177849
vn -0.815398 -0.560638 -0.144261
vn -0.815398 -0.560638 -0.144261
vn -0.815398 -0.560638 -0.144261
vn -0.815398 -0.560638 -0.144261
vn 0.386363 -0.788952 0.477785
vn 0.386363 -0.788952 0.477786
vn 0.403039 -0.796319 0.451038
vn 0.399649 -0.795267 0.455885
vn -0.039119 -0.968306 0.246686
vn -0.039119 -0.968306 0.246686
vn -0.010160 -0.979825 0.199600
vn -0.011818 -0.979312 0.202009
vn -0.464020 -0.885146 -0.034656
vn -0.464020 -0.885146 -0.034656
vn -0.419809 -0.901366 -0.106299
vn -0.418176 -0.901842 -0.108676
vn -0.774490 -0.561755 -0.290855
vn -0.774490 -0.561755 -0.290855
vn -0.715320 -0.582069 -0.386670
vn -0.712053 -0.582968 -0.391317
vn -0.887336 -0.084788 -0.453261
vn -0.887337 -0.084787 -0.453261
vn -0.817617 -0.107092 -0.565715
vn -0.815976 -0.107560 -0.567992
vn -0.772324 0.417958 -0.478359
vn -0.772324 0.417958 -0.478359
vn -0.700651 0.396550 -0.593158
vn -0.702283 0.397058 -0.590883
vn -0.460269 0.811768 -0.359423
vn -0.460269 0.811768 -0.359423
vn -0.397003 0.794184 -0.460066
vn -0.400234 0.795235 -0.455427
vn -0.034787 0.991122 -0.128323
vn -0.034787 0.991122 -0.128323
vn 0.012146 0.979190 -0.202580
vn 0.010521 0.979698 -0.200205
vn 0.390113 0.907963 0.153018
vn 0.390113 0.907963 0.153018
vn 0.418512 0.901755 0.108102
vn 0.420176 0.901267 0.105692
vn 0.700583 0.584572 0.409217
vn 0.700583 0.584572 0.409217
vn 0.714816 0.582395 0.387109
vn 0.718221 0.581409 0.382259
vn 0.813430 0.107603 0.571623
vn 0.813430 0.107603 0.571623
vn 0.821510 0.106144 0.560228
vn 0.823229 0.105635 0.557795
vn 0.698418 -0.395142 0.596721
vn 0.698418 -0.395142 0.596721
vn 0.707798 -0.398937 0.582984
vn 0.706081 -0.398417 0.585417
vn 0.559024 -0.086721 0.824604
vn 0.559015 -0.086739 0.824608
vn 0.559020 -0.086725 0.824606
vn 0.559017 -0.086722 0.824609
vn 0.559021 -0.086730 0.824605
vn 0.559022 -0.086712 0.824606
vn 0.559018 -0.086717 0.824608
vn 0.559018 -0.086729 0.824607
vn 0.559014 -0.086724 0.824611
vn 0.559019 -0.086739 0.824606
vn 0.559032 -0.086727 0.824598
vn 0.559024 -0.086704 0.824606
vn 0.559014 -0.086723 0.824610
vn 0.351175 -0.476623 0.805920
vn 0.249846 -0.823940 0.508625
vn 0.970512 -0.226185 -0.083352
vn 0.165403 -0.985584 0.035591
vn 0.124476 -0.874257 -0.469234
vn 0.144890 -0.537782 -0.830541
vn 0.223689 -0.099585 -0.969560
vn 0.345802 0.340412 -0.874380
vn 0.481177 0.684965 -0.547075
vn 0.577265 0.814751 -0.054280
vn 0.593457 0.678057 0.433644
vn 0.540517 0.351035 0.764602
vn 0.452235 -0.059033 0.889943
vn 0.267646 -0.755859 0.597530
vn 0.266154 -0.755469 0.598689
vn -0.058329 -0.965805 0.252625
vn -0.059006 -0.965625 0.253154
vn -0.372699 -0.914414 -0.157935
vn -0.372098 -0.914576 -0.158409
vn -0.588621 -0.616386 -0.523063
vn -0.587547 -0.616679 -0.523923
vn -0.646718 -0.154316 -0.746955
vn -0.646216 -0.154452 -0.747361
vn -0.531281 0.347956 -0.772443
vn -0.531783 0.348090 -0.772036
vn -0.273101 0.757834 -0.592541
vn -0.274176 0.758117 -0.591680
vn 0.058098 0.965907 -0.252286
vn 0.057497 0.966067 -0.251812
vn 0.371177 0.914800 0.159279
vn 0.371854 0.914617 0.158750
vn 0.580397 0.618156 0.530115
vn 0.581886 0.617749 0.528957
vn 0.632645 0.157657 0.758224
vn 0.633429 0.157444 0.757614
vn 0.518686 -0.344120 0.782653
vn 0.517901 -0.343912 0.783264
vn 0.173483 -0.728113 0.663141
vn 0.173832 -0.728224 0.662927
vn -0.075068 -0.958621 0.274611
vn -0.075111 -0.958639 0.274534
vn -0.295624 -0.935560 -0.193219
vn -0.296351 -0.935379 -0.192981
vn -0.428902 -0.662227 -0.614409
vn -0.429903 -0.661960 -0.613997
vn -0.439111 -0.210692 -0.873379
vn -0.439580 -0.210570 -0.873172
vn -0.323532 0.296702 -0.898496
vn -0.323061 0.296588 -0.898703
vn -0.113410 0.721502 -0.683062
vn -0.112402 0.721268 -0.683476
vn 0.134604 0.948419 -0.287024
vn 0.135332 0.948244 -0.287262
vn 0.354103 0.917549 0.180871
vn 0.354135 0.917521 0.180950
vn 0.486810 0.639869 0.594629
vn 0.486452 0.639941 0.594845
vn 0.497553 0.191857 0.845950
vn 0.497355 0.191904 0.846056
vn 0.383083 -0.307603 0.870993
vn 0.383279 -0.307656 0.870887
vn 0.159463 -0.706703 0.689306
vn 0.153018 -0.709275 0.688124
vn -0.012282 -0.956743 0.290676
vn -0.034494 -0.957363 0.286820
vn -0.151970 -0.968414 -0.197685
vn -0.189289 -0.960925 -0.201975
vn -0.227045 -0.723481 -0.651940
vn -0.264100 -0.711498 -0.651170
vn -0.214879 -0.272815 -0.937763
vn -0.230790 -0.268137 -0.935328
vn -0.111835 0.251835 -0.961287
vn -0.095527 0.248895 -0.963808
vn 0.056622 0.690453 -0.721158
vn 0.095182 0.685045 -0.722256
vn 0.241928 0.924019 -0.296075
vn 0.278885 0.914948 -0.291706
vn 0.390403 0.899951 0.194099
vn 0.410224 0.890125 0.198476
vn 0.460387 0.634304 0.621049
vn 0.465102 0.629316 0.622608
vn 0.434188 0.201903 0.877904
vn 0.434073 0.201370 0.878084
vn 0.322669 -0.285603 0.902394
vn 0.322537 -0.286148 0.902269
vn 0.175698 -0.700053 0.692139
vn 0.175698 -0.700053 0.692139
vn 0.030498 -0.954178 0.297683
vn 0.030498 -0.954178 0.297683
vn -0.071469 -0.979653 -0.187545
vn -0.071469 -0.979653 -0.187545
vn -0.101132 -0.755455 -0.647348
vn -0.101132 -0.755455 -0.647348
vn -0.047335 -0.316540 -0.947397
vn -0.047335 -0.316540 -0.947397
vn 0.074149 0.214487 -0.973908
vn 0.074149 0.214487 -0.973908
vn 0.222570 0.659513 -0.717987
vn 0.222570 0.659514 -0.717987
vn 0.356493 0.891061 -0.280934
vn 0.356493 0.891061 -0.280934
vn 0.447798 0.869934 0.206619
vn 0.447798 0.869934 0.206619
vn 0.476903 0.616584 0.626408
vn 0.476903 0.616584 0.626408
vn 0.433236 0.197503 0.879374
vn 0.433236 0.197503 0.879374
vn 0.323620 -0.281653 0.903295
vn 0.323620 -0.281653 0.903295
vn 0.199558 -0.684811 0.700865
vn 0.199558 -0.684811 0.700865
vn -0.196398 -0.851719 0.485802
vn -0.196398 -0.851718 0.485802
vn -0.591815 -0.774330 0.223983
vn -0.591815 -0.774330 0.223983
vn -0.880740 -0.473380 -0.014437
vn -0.880740 -0.473380 -0.014437
vn -0.985756 -0.029510 -0.165573
vn -0.985756 -0.029510 -0.165573
vn -0.878725 0.438347 -0.188929
vn -0.878725 0.438347 -0.188929
vn -0.588323 0.804831 -0.078247
vn -0.588323 0.804831 -0.078247
vn -0.192368 0.971739 0.136816
vn -0.192368 0.971739 0.136816
vn 0.203047 0.894350 0.398634
vn 0.203047 0.894351 0.398634
vn 0.491973 0.593400 0.637055
vn 0.491973 0.593400 0.637055
vn 0.596989 0.149529 0.788191
vn 0.596989 0.149529 0.788191
vn 0.489957 -0.318328 0.811547
vn 0.489957 -0.318328 0.811547
vn 0.019065 -0.538858 0.842181
vn 0.019065 -0.538858 0.842181
vn 0.019065 -0.538858 0.842181
vn 0.019065 -0.538858 0.842181
vn -0.319562 -0.681602 0.658255
vn -0.319562 -0.681602 0.658255
vn -0.319562 -0.681602 0.658255
vn -0.319562 -0.681602 0.658255
vn -0.657730 -0.615417 0.434343
vn -0.657730 -0.615417 0.434343
vn -0.657730 -0.615417 0.434343
vn -0.657730 -0.615417 0.434343
vn -0.904823 -0.358039 0.230444
vn -0.904823 -0.358039 0.230444
vn -0.904823 -0.358039 0.230444
vn -0.904823 -0.358039 0.230444
vn -0.994633 0.021566 0.101189
vn -0.994633 0.021566 0.101189
vn -0.994633 0.021566 0.101189
vn -0.994633 0.021566 0.101189
vn -0.903099 0.421683 0.081215
vn -0.903099 0.421683 0.081215
vn -0.903099 0.421683 0.081215
vn -0.903099 0.421683 0.081215
vn -0.654744 0.735105 0.175871
vn -0.654744 0.735105 0.175871
vn -0.654744 0.735105 0.175871
vn -0.654744 0.735105 0.175871
vn -0.316115 0.877849 0.359796
vn -0.316115 0.877849 0.359796
vn -0.316114 0.877849 0.359797
vn -0.316114 0.877849 0.359796
vn 0.022050 0.811664 0.583709
vn 0.022050 0.811664 0.583709
vn 0.022050 0.811664 0.583709
vn 0.022050 0.811664 0.583709
vn 0.269143 0.554287 0.787609
vn 0.269143 0.554287 0.787609
vn 0.269143 0.554287 0.787609
vn 0.269143 0.554287 0.787609
vn 0.358956 0.174682 0.916863
vn 0.358956 0.174682 0.916863
vn 0.358956 0.174682 0.916863
vn 0.358956 0.174682 0.916863
vn 0.267421 -0.225437 0.936837
vn 0.267421 -0.225437 0.936837
vn 0.267421 -0.225437 0.936837
vn 0.267421 -0.225437 0.936837
vn -0.522697 0.161365 0.837107
vn -0.522697 0.161365 0.837107
vn -0.522697 0.161365 0.837107
vn -0.522697 0.161365 0.837107
vn -0.522695 0.161367 0.837109
vn -0.522695 0.161367 0.837109
vn -0.522695 0.161367 0.837109
vn -0.522695 0.161367 0.837109
vn -0.522698 0.161367 0.837106
vn -0.522698 0.161367 0.837106
vn -0.522698 0.161367 0.837106
vn -0.522698 0.161367 0.837106
vn -0.522695 0.161368 0.837108
vn -0.522695 0.161368 0.837108
vn -0.522695 0.161368 0.837108
vn -0.522695 0.161368 0.837108
vn -0.522696 0.161364 0.837109
vn -0.522696 0.161364 0.837109
vn -0.522696 0.161364 0.837109
vn -0.522696 0.161364 0.837108
vn -0.522695 0.161370 0.837108
vn -0.522695 0.161370 0.837108
vn -0.522696 0.161370 0.837108
vn -0.522695 0.161370 0.837108
vn -0.522698 0.161364 0.837108
vn -0.522698 0.161364 0.837108
vn -0.522698 0.161364 0.837108
vn -0.522698 0.161364 0.837108
vn -0.522694 0.161365 0.837110
vn -0.522694 0.161365 0.837110
vn -0.522694 0.161365 0.837110
vn -0.522694 0.161365 0.837110
vn -0.522697 0.161367 0.837107
vn -0.522697 0.161367 0.837107
vn -0.522697 0.161367 0.837108
vn -0.522697 0.161367 0.837108
vn -0.522695 0.161368 0.837108
vn -0.522695 0.161367 0.837108
vn -0.522695 0.161367 0.837108
vn -0.522695 0.161367 0.837108
vn -0.522695 0.161369 0.837108
vn -0.522695 0.161369 0.837108
vn -0.522695 0.161369 0.837108
vn -0.522695 0.161369 0.837108
vn -0.522695 0.161368 0.837108
vn -0.522695 0.161368 0.837108
vn -0.522695 0.161368 0.837108
vn -0.522695 0.161368 0.837108
vn 0.424378 -0.802367 0.419656
vn 0.424378 -0.802367 0.419656
vn 0.479310 -0.820042 0.312720
vn 0.471415 -0.818136 0.329274
vn -0.002172 -0.982172 0.187973
vn -0.002172 -0.982172 0.187973
vn 0.018429 -0.988799 0.148115
vn 0.014330 -0.987641 0.156075
vn -0.428142 -0.898802 -0.094076
vn -0.428142 -0.898802 -0.094076
vn -0.448638 -0.892052 -0.054468
vn -0.444760 -0.893494 -0.062108
vn -0.739386 -0.574606 -0.350908
vn -0.739386 -0.574606 -0.350908
vn -0.793702 -0.556562 -0.245512
vn -0.889244 -0.314184 -0.332468
vn -0.852517 -0.096445 -0.513725
vn -0.852517 -0.096445 -0.513725
vn -0.920686 -0.074395 -0.383149
vn -0.737218 0.407564 -0.538889
vn -0.737218 0.407564 -0.538889
vn -0.805363 0.429728 -0.408319
vn -0.808550 0.430658 -0.400974
vn -0.424377 0.802369 -0.419653
vn -0.424377 0.802369 -0.419653
vn -0.471695 0.818036 -0.329122
vn -0.478842 0.819742 -0.314220
vn 0.002172 0.982172 -0.187973
vn 0.002172 0.982172 -0.187973
vn -0.014405 0.987650 -0.156015
vn -0.018358 0.988763 -0.148358
vn 0.428142 0.898801 0.094076
vn 0.428142 0.898801 0.094076
vn 0.444689 0.893525 0.062166
vn 0.448711 0.892031 0.054223
vn 0.739384 0.574604 0.350915
vn 0.739384 0.574604 0.350915
vn 0.786640 0.559771 0.260487
vn 0.884329 0.339452 0.320524
vn 0.852515 0.096457 0.513725
vn 0.852515 0.096457 0.513725
vn 0.924549 0.073027 0.374001
vn 0.737213 -0.407575 0.538888
vn 0.737213 -0.407575 0.538888
vn 0.809238 -0.431045 0.399166
vn 0.805581 -0.429970 0.407633
vn 0.536946 -0.836750 0.107420
vn 0.278204 -0.955382 0.099238
vn 0.040044 -0.995896 0.081170
vn -0.470015 -0.882479 0.017788
vn -0.469407 -0.882910 0.011289
vn -0.847140 -0.528990 -0.050237
vn -0.955254 -0.281649 -0.090354
vn -0.992469 -0.040618 -0.115563
vn -0.878883 0.455924 -0.140352
vn -0.879582 0.456412 -0.134253
vn -0.533400 0.835667 -0.130941
vn -0.534707 0.836700 -0.118415
vn -0.039599 0.995804 -0.082498
vn -0.040191 0.996298 -0.076001
vn 0.469809 0.882678 -0.012612
vn 0.470377 0.882255 -0.019270
vn 0.847748 0.527774 0.052704
vn 0.950409 0.303298 0.068805
vn 0.995273 0.037733 0.089488
vn 0.882089 -0.457035 0.114188
vn 0.881472 -0.456517 0.120828
vn 0.541191 -0.840011 0.038647
vn 0.299326 -0.953050 0.045824
vn 0.042633 -0.997855 0.049680
vn -0.472176 -0.880459 0.042914
vn -0.472176 -0.880459 0.042914
vn -0.852240 -0.522741 0.020687
vn -0.959119 -0.282930 0.006494
vn -0.999439 -0.032603 -0.007648
vn -0.886300 0.461982 -0.032340
vn -0.886300 0.461982 -0.032340
vn -0.540479 0.840025 -0.047348
vn -0.540479 0.840025 -0.047348
vn -0.042463 0.997803 -0.050851
vn -0.042463 0.997803 -0.050851
vn 0.472307 0.880331 -0.044083
vn 0.472307 0.880331 -0.044083
vn 0.852706 0.521567 -0.029330
vn 0.852706 0.521567 -0.029330
vn 0.999478 0.031192 -0.008398
vn 0.999478 0.031192 -0.008398
vn 0.886590 -0.462272 0.016239
vn 0.886589 -0.462272 0.016239
vn 0.516694 -0.855421 0.035815
vn 0.516694 -0.855421 0.035815
vn 0.516694 -0.855421 0.035815
vn 0.516694 -0.855421 0.035815
vn 0.049963 -0.988443 0.143126
vn 0.049963 -0.988443 0.143126
vn 0.049963 -0.988443 0.143126
vn 0.049963 -0.988443 0.143126
vn -0.413601 -0.879984 0.233588
vn -0.413601 -0.879984 0.233588
vn -0.413601 -0.879984 0.233588
vn -0.413601 -0.879984 0.233588
vn -0.783096 -0.549024 0.292119
vn -0.783096 -0.549024 0.292119
vn -0.783096 -0.549024 0.292119
vn -0.783096 -0.549024 0.292119
vn -0.949521 -0.047072 0.310151
vn -0.949521 -0.047072 0.310151
vn -0.949521 -0.047072 0.310151
vn -0.949521 -0.047072 0.310151
vn -0.828182 0.483367 0.283672
vn -0.828182 0.483367 0.283672
vn -0.828182 0.483368 0.283672
vn -0.828182 0.483367 0.283672
vn -0.460931 0.859267 0.221819
vn -0.460931 0.859267 0.221819
vn -0.460931 0.859267 0.221819
vn -0.460931 0.859267 0.221819
vn 0.014232 0.990017 0.140227
vn 0.014232 0.990017 0.140227
vn 0.014232 0.990017 0.140227
vn 0.014232 0.990017 0.140227
vn 0.476846 0.877565 0.049973
vn 0.476846 0.877565 0.049973
vn 0.476846 0.877565 0.049973
vn 0.476846 0.877565 0.049973
vn 0.837272 0.545720 -0.034139
vn 0.837272 0.545720 -0.034139
vn 0.837272 0.545720 -0.034139
vn 0.837272 0.545720 -0.034139
vn 0.995734 0.046312 -0.079800
vn 0.995734 0.046312 -0.079800
vn 0.995734 0.046312 -0.079800
vn 0.995735 0.046312 -0.079800
vn 0.875112 -0.480956 -0.053479
vn 0.875112 -0.480956 -0.053479
vn 0.875112 -0.480956 -0.053479
vn 0.875112 -0.480956 -0.053479
s 1
g pCylinder26
usemtl initialShadingGroup
f 1/38/1 2/48/2 14/49/3 13/39/4
s 2
f 2/191/5 3/192/6 15/193/7 14/194/8
s 3
f 3/192/9 4/195/10 16/196/11 15/193/12
s 4
f 4/11/13 5/1/14 17/4/15 16/12/16
s 5
f 5/1/17 6/2/18 18/3/19 17/4/20
s 6
f 6/2/21 7/7/22 19/8/23 18/3/24
s 7
f 7/7/25 8/17/26 20/18/27 19/8/28
s 8
f 8/210/29 9/211/30 21/212/31 20/213/32
s 9
f 9/211/33 10/214/34 22/215/35 21/212/36
s 10
f 10/42/37 11/32/38 23/35/39 22/43/40
s 11
f 11/32/41 12/33/42 24/34/43 23/35/44
s 12
f 12/33/45 1/38/46 13/39/47 24/34/48
s 13
f 147/116/49 146/114/50 148/113/51
f 149/119/52 147/116/49 148/113/51
f 150/121/53 149/119/52 148/113/51
f 151/123/54 150/121/53 148/113/51
f 152/122/55 151/123/54 148/113/51
f 153/120/56 152/122/55 148/113/51
f 154/118/57 153/120/56 148/113/51
f 155/117/58 154/118/57 148/113/51
f 156/112/59 155/117/58 148/113/51
f 157/108/60 156/112/59 148/113/51
f 158/109/61 157/108/60 148/113/51
f 146/114/50 158/109/61 148/113/51
s 14
f 61/67/62 62/70/63 63/68/64
f 62/207/63 64/206/65 63/209/64
f 64/130/65 65/124/66 63/126/64
f 65/124/66 66/125/67 63/126/64
f 66/125/67 67/129/68 63/126/64
f 67/129/68 68/134/69 63/126/64
f 68/134/69 69/136/70 63/126/64
f 69/136/70 70/138/71 63/126/64
f 70/225/71 71/227/72 63/228/64
f 71/69/72 72/64/73 63/68/64
f 72/64/73 73/63/74 63/68/64
f 73/63/74 61/67/62 63/68/64
s 1
f 13/39/4 14/49/3 26/56/75 25/50/76
s 2
f 14/194/8 15/193/7 27/197/77 26/198/78
s 3
f 15/193/12 16/196/11 28/199/79 27/197/80
s 4
f 16/12/16 17/4/15 29/10/81 28/22/82
s 5
f 17/4/20 18/3/19 30/9/83 29/10/84
s 6
f 18/3/24 19/8/23 31/19/85 30/9/86
s 7
f 19/8/28 20/18/27 32/25/87 31/19/88
s 8
f 20/213/32 21/212/31 33/216/89 32/217/90
s 9
f 21/212/36 22/215/35 34/218/91 33/216/92
s 10
f 22/43/40 23/35/39 35/41/93 34/53/94
s 11
f 23/35/44 24/34/43 36/40/95 35/41/96
s 12
f 24/34/48 13/39/47 25/50/97 36/40/98
s 1
f 25/50/76 26/56/75 38/61/99 37/57/100
s 2
f 26/198/78 27/197/77 39/200/101 38/201/102
s 3
f 27/197/80 28/199/79 40/202/103 39/200/104
s 4
f 28/22/82 29/10/81 41/21/105 40/29/106
s 5
f 29/10/84 30/9/83 42/20/107 41/21/108
s 6
f 30/9/86 31/19/85 43/26/109 42/20/110
s 7
f 31/19/88 32/25/87 44/30/111 43/26/112
s 8
f 32/217/90 33/216/89 45/219/113 44/220/114
s 9
f 33/216/92 34/218/91 46/221/115 45/219/116
s 10
f 34/53/94 35/41/93 47/52/117 46/60/118
s 11
f 35/41/96 36/40/95 48/51/119 47/52/120
s 12
f 36/40/98 25/50/97 37/57/121 48/51/122
s 1
f 37/57/100 38/61/99 50/66/123 49/62/124
s 2
f 38/201/102 39/200/101 51/203/125 50/204/126
s 3
f 39/200/104 40/202/103 52/205/127 51/203/128
s 4
f 40/131/106 41/132/105 53/128/129 52/127/130
s 5
f 41/21/108 42/20/107 54/27/131 53/28/132
s 6
f 42/20/110 43/26/109 55/31/133 54/27/134
s 7
f 43/139/112 44/140/111 56/137/135 55/135/136
s 8
f 44/220/114 45/219/113 57/222/137 56/223/138
s 9
f 45/219/116 46/221/115 58/224/139 57/222/140
s 10
f 46/60/118 47/52/117 59/59/141 58/65/142
s 11
f 47/52/120 48/51/119 60/58/143 59/59/144
s 12
f 48/51/122 37/57/121 49/62/145 60/58/146
s 1
f 49/62/124 50/66/123 62/70/147 61/67/148
s 2
f 50/204/126 51/203/125 64/206/149 62/207/150
s 3
f 51/203/128 52/205/127 65/208/151 64/206/152
s 4
f 52/127/130 53/128/129 66/125/153 65/124/154
s 5
f 53/128/132 54/133/131 67/129/155 66/125/156
s 6
f 54/133/134 55/135/133 68/134/157 67/129/158
s 7
f 55/135/136 56/137/135 69/136/159 68/134/160
s 8
f 56/223/138 57/222/137 70/225/161 69/226/162
s 9
f 57/222/140 58/224/139 71/227/163 70/225/164
s 10
f 58/65/142 59/59/141 72/64/165 71/69/166
s 11
f 59/59/144 60/58/143 73/63/167 72/64/168
s 12
f 60/58/146 49/62/145 61/67/169 73/63/170
s 1
f 2/48/2 1/38/1 74/47/171 75/55/172
s 2
f 3/152/6 2/153/5 75/141/173 76/147/174
s 3
f 4/159/10 3/152/9 76/147/175 77/154/176
s 4
f 5/1/14 4/11/13 77/13/177 78/5/178
s 5
f 6/2/18 5/1/17 78/5/179 79/6/180
s 6
f 7/7/22 6/2/21 79/6/181 80/16/182
s 7
f 8/17/26 7/7/25 80/16/183 81/24/184
s 8
f 9/177/30 8/179/29 81/178/185 82/171/186
s 9
f 10/176/34 9/177/33 82/171/187 83/166/188
s 10
f 11/32/38 10/42/37 83/44/189 84/36/190
s 11
f 12/33/42 11/32/41 84/36/191 85/37/192
s 12
f 1/38/46 12/33/45 85/37/193 74/47/194
s off
f 75/141/195 74/142/196 86/143/197 87/144/198
f 76/147/199 75/141/200 87/144/201 88/148/202
f 77/154/203 76/147/204 88/148/205 89/155/206
f 78/160/207 77/154/208 89/155/209 90/161/210
f 79/6/211 78/5/212 90/14/213 91/15/214
f 80/16/215 79/6/216 91/15/217 92/23/218
f 81/178/219 80/180/220 92/174/221 93/172/222
f 82/171/223 81/178/224 93/172/225 94/167/226
f 83/166/227 82/171/228 94/167/229 95/162/230
f 84/165/231 83/166/232 95/162/233 96/156/234
f 85/37/235 84/36/236 96/45/237 97/46/238
f 74/47/239 85/37/240 97/46/241 86/54/242
f 87/144/243 86/143/244 98/145/245 99/146/246
f 88/148/247 87/144/248 99/146/249 100/151/250
f 89/155/251 88/148/252 100/151/253 101/158/254
f 90/161/255 89/155/256 101/158/257 102/164/258
f 91/169/259 90/161/260 102/164/261 103/170/262
f 92/174/263 91/169/264 103/170/265 104/175/266
f 93/172/267 92/174/268 104/175/269 105/173/270
f 94/167/271 93/172/272 105/173/273 106/168/274
f 95/162/275 94/167/276 106/168/277 107/163/278
f 96/156/279 95/162/280 107/163/281 108/157/282
f 97/149/283 96/156/284 108/157/285 109/150/286
f 86/143/287 97/149/288 109/150/289 98/145/290
s 15
f 99/105/291 98/99/292 110/100/293 111/106/294
f 100/229/295 99/230/296 111/231/297 112/232/298
s 17
f 101/235/299 100/229/300 112/232/301 113/236/302
s 18
f 102/72/303 101/75/304 113/76/305 114/73/306
f 103/71/307 102/72/308 114/73/306 115/74/309
s 20
f 104/79/310 103/71/311 115/74/312 116/80/313
s 21
f 105/85/314 104/79/315 116/80/316 117/86/317
s 22
f 106/244/318 105/245/319 117/246/320 118/247/321
s 23
f 107/250/322 106/244/323 118/247/324 119/251/325
s 24
f 108/92/326 107/95/327 119/96/328 120/93/329
f 109/91/330 108/92/331 120/93/329 121/94/332
s 26
f 98/99/333 109/91/334 121/94/335 110/100/336
s 15
f 111/106/294 110/100/293 122/104/337 123/111/338
f 112/232/298 111/231/297 123/233/338 124/234/339
s 17
f 113/236/302 112/232/301 124/234/340 125/239/341
s 18
f 114/73/306 113/76/305 125/81/342 126/77/343
f 115/74/309 114/73/306 126/77/343 127/78/344
s 20
f 116/80/313 115/74/312 127/78/345 128/84/346
s 21
f 117/86/317 116/80/316 128/84/347 129/89/348
s 22
f 118/247/321 117/246/320 129/248/349 130/249/350
s 23
f 119/251/325 118/247/324 130/249/351 131/254/352
s 24
f 120/93/329 119/96/328 131/101/353 132/97/354
f 121/94/332 120/93/329 132/97/354 133/98/355
s 26
f 110/100/336 121/94/335 133/98/356 122/104/357
s 15
f 123/111/338 122/104/337 134/110/358 135/115/359
f 124/234/339 123/233/338 135/237/359 136/238/360
s 17
f 125/239/341 124/234/340 136/238/361 137/242/362
s 18
f 126/77/343 125/81/342 137/87/363 138/82/364
f 127/78/344 126/77/343 138/82/364 139/83/365
s 20
f 128/84/346 127/78/345 139/83/366 140/88/367
s 21
f 129/89/348 128/84/347 140/88/368 141/90/369
s 22
f 130/249/350 129/248/349 141/252/370 142/253/371
s 23
f 131/254/352 130/249/351 142/253/372 143/257/373
s 24
f 132/97/354 131/101/353 143/107/374 144/102/375
f 133/98/355 132/97/354 144/102/376 145/103/377
s 26
f 122/104/357 133/98/356 145/103/378 134/110/379
s off
f 135/115/380 134/110/381 146/114/382 147/116/383
f 136/238/384 135/237/385 147/240/386 149/241/387
f 137/242/388 136/238/389 149/241/390 150/243/391
f 138/182/392 137/185/393 150/186/394 151/183/395
f 139/181/396 138/182/397 151/183/398 152/184/399
f 140/187/400 139/181/401 152/184/402 153/188/403
f 141/189/404 140/187/405 153/188/406 154/190/407
f 142/253/408 141/252/409 154/255/410 155/256/411
f 143/257/412 142/253/413 155/256/414 156/258/415
f 144/102/416 143/107/417 156/112/418 157/108/419
f 145/103/420 144/102/421 157/108/422 158/109/423
f 134/110/424 145/103/425 158/109/426 146/114/427
s 27
f 159/259/428 160/260/429 172/261/430 171/262/431
s 28
f 160/263/432 161/264/433 173/265/434 172/266/435
s 29
f 161/264/436 162/267/437 174/268/438 173/265/439
s 30
f 162/269/440 163/270/441 175/271/442 174/272/443
s 31
f 163/270/444 164/273/445 176/274/446 175/271/447
s 32
f 164/273/448 165/275/449 177/276/450 176/274/451
s 33
f 165/275/452 166/277/453 178/278/454 177/276/455
s 34
f 166/279/456 167/280/457 179/281/458 178/282/459
s 35
f 167/280/460 168/283/461 180/284/462 179/281/463
s 36
f 168/285/464 169/286/465 181/287/466 180/288/467
s 37
f 169/286/468 170/289/469 182/290/470 181/287/471
s 38
f 170/289/472 159/259/473 171/262/474 182/290/475
s 39
f 305/291/476 304/292/477 306/293/478
f 307/294/479 305/291/476 306/293/478
f 308/295/480 307/294/479 306/293/478
f 309/296/481 308/295/480 306/293/478
f 310/297/482 309/296/481 306/293/478
f 311/298/483 310/297/482 306/293/478
f 312/299/484 311/298/483 306/293/478
f 313/300/485 312/299/484 306/293/478
f 314/301/486 313/300/485 306/293/478
f 315/302/487 314/301/486 306/293/478
f 316/303/488 315/302/487 306/293/478
f 304/292/477 316/303/488 306/293/478
s 40
f 219/304/489 220/305/490 221/306/491
f 220/307/490 222/308/492 221/309/491
f 222/310/492 223/311/493 221/312/491
f 223/311/493 224/313/494 221/312/491
f 224/313/494 225/314/495 221/312/491
f 225/314/495 226/315/496 221/312/491
f 226/315/496 227/316/497 221/312/491
f 227/316/497 228/317/498 221/312/491
f 228/318/498 229/319/499 221/320/491
f 229/321/499 230/322/500 221/306/491
f 230/322/500 231/323/501 221/306/491
f 231/323/501 219/304/489 221/306/491
s 27
f 171/262/431 172/261/430 184/324/502 183/325/503
s 28
f 172/266/435 173/265/434 185/326/504 184/327/505
s 29
f 173/265/439 174/268/438 186/328/506 185/326/507
s 30
f 174/272/443 175/271/442 187/329/508 186/330/509
s 31
f 175/271/447 176/274/446 188/331/510 187/329/511
s 32
f 176/274/451 177/276/450 189/332/512 188/331/513
s 33
f 177/276/455 178/278/454 190/333/514 189/332/515
s 34
f 178/282/459 179/281/458 191/334/516 190/335/517
s 35
f 179/281/463 180/284/462 192/336/518 191/334/519
s 36
f 180/288/467 181/287/466 193/337/520 192/338/521
s 37
f 181/287/471 182/290/470 194/339/522 193/337/523
s 38
f 182/290/475 171/262/474 183/325/524 194/339/525
s 27
f 183/325/503 184/324/502 196/340/526 195/341/527
s 28
f 184/327/505 185/326/504 197/342/528 196/343/529
s 29
f 185/326/507 186/328/506 198/344/530 197/342/531
s 30
f 186/330/509 187/329/508 199/345/532 198/346/533
s 31
f 187/329/511 188/331/510 200/347/534 199/345/535
s 32
f 188/331/513 189/332/512 201/348/536 200/347/537
s 33
f 189/332/515 190/333/514 202/349/538 201/348/539
s 34
f 190/335/517 191/334/516 203/350/540 202/351/541
s 35
f 191/334/519 192/336/518 204/352/542 203/350/543
s 36
f 192/338/521 193/337/520 205/353/544 204/354/545
s 37
f 193/337/523 194/339/522 206/355/546 205/353/547
s 38
f 194/339/525 183/325/524 195/341/548 206/355/549
s 27
f 195/341/527 196/340/526 208/356/550 207/357/551
s 28
f 196/343/529 197/342/528 209/358/552 208/359/553
s 29
f 197/342/531 198/344/530 210/360/554 209/358/555
s 30
f 198/361/533 199/362/532 211/363/556 210/364/557
s 31
f 199/345/535 200/347/534 212/365/558 211/366/559
s 32
f 200/347/537 201/348/536 213/367/560 212/365/561
s 33
f 201/368/539 202/369/538 214/370/562 213/371/563
s 34
f 202/351/541 203/350/540 215/372/564 214/373/565
s 35
f 203/350/543 204/352/542 216/374/566 215/372/567
s 36
f 204/354/545 205/353/544 217/375/568 216/376/569
s 37
f 205/353/547 206/355/546 218/377/570 217/375/571
s 38
f 206/355/549 195/341/548 207/357/572 218/377/573
s 27
f 207/357/551 208/356/550 220/305/574 219/304/575
s 28
f 208/359/553 209/358/552 222/308/576 220/307/577
s 29
f 209/358/555 210/360/554 223/378/578 222/308/579
s 30
f 210/364/557 211/363/556 224/313/580 223/311/581
s 31
f 211/363/559 212/379/558 225/314/582 224/313/583
s 32
f 212/379/561 213/371/560 226/315/584 225/314/585
s 33
f 213/371/563 214/370/562 227/316/586 226/315/587
s 34
f 214/373/565 215/372/564 228/318/588 227/380/589
s 35
f 215/372/567 216/374/566 229/319/590 228/318/591
s 36
f 216/376/569 217/375/568 230/322/592 229/321/593
s 37
f 217/375/571 218/377/570 231/323/594 230/322/595
s 38
f 218/377/573 207/357/572 219/304/596 231/323/597
s 27
f 160/260/429 159/259/428 232/381/598 233/382/599
s 28
f 161/383/433 160/384/432 233/385/600 234/386/601
s 29
f 162/387/437 161/383/436 234/386/602 235/388/603
s 30
f 163/270/441 162/269/440 235/389/604 236/390/605
s 31
f 164/273/445 163/270/444 236/390/606 237/391/607
s 32
f 165/275/449 164/273/448 237/391/608 238/392/609
s 33
f 166/277/453 165/275/452 238/392/610 239/393/611
s 34
f 167/394/457 166/395/456 239/396/612 240/397/613
s 35
f 168/398/461 167/394/460 240/397/614 241/399/615
s 36
f 169/286/465 168/285/464 241/400/616 242/401/617
s 37
f 170/289/469 169/286/468 242/401/618 243/402/619
s 38
f 159/259/473 170/289/472 243/402/620 232/381/621
s off
f 233/385/622 232/403/623 244/404/624 245/405/625
f 234/386/626 233/385/627 245/405/628 246/406/629
f 235/388/630 234/386/631 246/406/632 247/407/633
f 236/408/634 235/388/635 247/407/636 248/409/637
f 237/391/638 236/390/639 248/410/640 249/411/641
f 238/392/642 237/391/643 249/411/644 250/412/645
f 239/396/646 238/413/647 250/414/648 251/415/649
f 240/397/650 239/396/651 251/415/652 252/416/653
f 241/399/654 240/397/655 252/416/656 253/417/657
f 242/418/658 241/399/659 253/417/660 254/419/661
f 243/402/662 242/401/663 254/420/664 255/421/665
f 232/381/666 243/402/667 255/421/668 244/422/669
f 245/405/670 244/404/671 256/423/672 257/424/673
f 246/406/674 245/405/675 257/424/676 258/425/677
f 247/407/678 246/406/679 258/425/680 259/426/681
f 248/409/682 247/407/683 259/426/684 260/427/685
f 249/428/686 248/409/687 260/427/688 261/429/689
f 250/414/690 249/428/691 261/429/692 262/430/693
f 251/415/694 250/414/695 262/430/696 263/431/697
f 252/416/698 251/415/699 263/431/700 264/432/701
f 253/417/702 252/416/703 264/432/704 265/433/705
f 254/419/706 253/417/707 265/433/708 266/434/709
f 255/435/710 254/419/711 266/434/712 267/436/713
f 244/404/714 255/435/715 267/436/716 256/423/717
s 41
f 257/437/718 256/438/719 268/439/720 269/440/721
f 258/441/722 257/442/723 269/443/724 270/444/725
s 43
f 259/445/726 258/441/727 270/444/728 271/446/729
s 44
f 260/447/730 259/448/731 271/449/732 272/450/733
f 261/451/734 260/447/735 272/450/733 273/452/736
s 46
f 262/453/737 261/451/738 273/452/739 274/454/740
s 47
f 263/455/741 262/453/742 274/454/743 275/456/744
s 48
f 264/457/745 263/458/746 275/459/747 276/460/748
s 49
f 265/461/749 264/457/750 276/460/751 277/462/752
s 50
f 266/463/753 265/464/754 277/465/755 278/466/756
f 267/467/757 266/463/758 278/466/756 279/468/759
s 52
f 256/438/760 267/467/761 279/468/762 268/439/763
s 41
f 269/440/721 268/439/720 280/469/764 281/470/765
f 270/444/725 269/443/724 281/471/765 282/472/766
s 43
f 271/446/729 270/444/728 282/472/767 283/473/768
s 44
f 272/450/733 271/449/732 283/474/769 284/475/770
f 273/452/736 272/450/733 284/475/770 285/476/771
s 46
f 274/454/740 273/452/739 285/476/772 286/477/773
s 47
f 275/456/744 274/454/743 286/477/774 287/478/775
s 48
f 276/460/748 275/459/747 287/479/776 288/480/777
s 49
f 277/462/752 276/460/751 288/480/778 289/481/779
s 50
f 278/466/756 277/465/755 289/482/780 290/483/781
f 279/468/759 278/466/756 290/483/781 291/484/782
s 52
f 268/439/763 279/468/762 291/484/783 280/469/784
s 41
f 281/470/765 280/469/764 292/485/785 293/486/786
f 282/472/766 281/471/765 293/487/786 294/488/787
s 43
f 283/473/768 282/472/767 294/488/788 295/489/789
s 44
f 284/475/770 283/474/769 295/490/790 296/491/791
f 285/476/771 284/475/770 296/491/791 297/492/792
s 46
f 286/477/773 285/476/772 297/492/793 298/493/794
s 47
f 287/478/775 286/477/774 298/493/795 299/494/796
s 48
f 288/480/777 287/479/776 299/495/797 300/496/798
s 49
f 289/481/779 288/480/778 300/496/799 301/497/800
s 50
f 290/483/781 289/482/780 301/498/801 302/499/802
f 291/484/782 290/483/781 302/499/803 303/500/804
s 52
f 280/469/784 291/484/783 303/500/805 292/485/806
s off
f 293/486/807 292/485/808 304/292/809 305/291/810
f 294/488/811 293/487/812 305/501/813 307/502/814
f 295/489/815 294/488/816 307/502/817 308/503/818
f 296/504/819 295/505/820 308/506/821 309/507/822
f 297/508/823 296/504/824 309/507/825 310/509/826
f 298/510/827 297/508/828 310/509/829 311/511/830
f 299/512/831 298/510/832 311/511/833 312/513/834
f 300/496/835 299/495/836 312/514/837 313/515/838
f 301/497/839 300/496/840 313/515/841 314/516/842
f 302/499/843 301/498/844 314/301/845 315/302/846
f 303/500/847 302/499/848 315/302/849 316/303/850
f 292/485/851 303/500/852 316/303/853 304/292/854
s 53
f 317/517/855 318/518/856 330/519/857 329/520/858
s 54
f 318/521/859 319/522/860 331/523/861 330/524/862
s 55
f 319/522/863 320/525/864 332/526/865 331/523/866
s 56
f 320/527/867 321/528/868 333/529/869 332/530/870
s 57
f 321/528/871 322/531/872 334/532/873 333/529/874
s 58
f 322/531/875 323/533/876 335/534/877 334/532/878
s 59
f 323/533/879 324/535/880 336/536/881 335/534/882
s 60
f 324/537/883 325/538/884 337/539/885 336/540/886
s 61
f 325/538/887 326/541/888 338/542/889 337/539/890
s 62
f 326/543/891 327/544/892 339/545/893 338/546/894
s 63
f 327/544/895 328/547/896 340/548/897 339/545/898
s 64
f 328/547/899 317/517/900 329/520/901 340/548/902
s 65
f 463/549/903 462/550/904 464/551/905
f 465/552/906 463/549/903 464/551/905
f 466/553/907 465/552/906 464/551/905
f 467/554/908 466/553/907 464/551/905
f 468/555/909 467/554/908 464/551/905
f 469/556/910 468/555/909 464/551/905
f 470/557/911 469/556/910 464/551/905
f 471/558/912 470/557/911 464/551/905
f 472/559/913 471/558/912 464/551/905
f 473/560/914 472/559/913 464/551/905
f 474/561/915 473/560/914 464/551/905
f 462/550/904 474/561/915 464/551/905
s 66
f 377/562/916 378/563/917 379/564/918
f 378/565/917 380/566/919 379/567/918
f 380/568/919 381/569/920 379/570/918
f 381/569/920 382/571/921 379/570/918
f 382/571/921 383/572/922 379/570/918
f 383/572/922 384/573/923 379/570/918
f 384/573/923 385/574/924 379/570/918
f 385/574/924 386/575/925 379/570/918
f 386/576/925 387/577/926 379/578/918
f 387/579/926 388/580/927 379/564/918
f 388/580/927 389/581/928 379/564/918
f 389/581/928 377/562/916 379/564/918
s 53
f 329/520/858 330/519/857 342/582/929 341/583/930
s 54
f 330/524/862 331/523/861 343/584/931 342/585/932
s 55
f 331/523/866 332/526/865 344/586/933 343/584/934
s 56
f 332/530/870 333/529/869 345/587/935 344/588/936
s 57
f 333/529/874 334/532/873 346/589/937 345/587/938
s 58
f 334/532/878 335/534/877 347/590/939 346/589/940
s 59
f 335/534/882 336/536/881 348/591/941 347/590/942
s 60
f 336/540/886 337/539/885 349/592/943 348/593/944
s 61
f 337/539/890 338/542/889 350/594/945 349/592/946
s 62
f 338/546/894 339/545/893 351/595/947 350/596/948
s 63
f 339/545/898 340/548/897 352/597/949 351/595/950
s 64
f 340/548/902 329/520/901 341/583/951 352/597/952
s 53
f 341/583/930 342/582/929 354/598/953 353/599/954
s 54
f 342/585/932 343/584/931 355/600/955 354/601/956
s 55
f 343/584/934 344/586/933 356/602/957 355/600/958
s 56
f 344/588/936 345/587/935 357/603/959 356/604/960
s 57
f 345/587/938 346/589/937 358/605/961 357/603/962
s 58
f 346/589/940 347/590/939 359/606/963 358/605/964
s 59
f 347/590/942 348/591/941 360/607/965 359/606/966
s 60
f 348/593/944 349/592/943 361/608/967 360/609/968
s 61
f 349/592/946 350/594/945 362/610/969 361/608/970
s 62
f 350/596/948 351/595/947 363/611/971 362/612/972
s 63
f 351/595/950 352/597/949 364/613/973 363/611/974
s 64
f 352/597/952 341/583/951 353/599/975 364/613/976
s 53
f 353/599/954 354/598/953 366/614/977 365/615/978
s 54
f 354/601/956 355/600/955 367/616/979 366/617/980
s 55
f 355/600/958 356/602/957 368/618/981 367/616/982
s 56
f 356/619/960 357/620/959 369/621/983 368/622/984
s 57
f 357/603/962 358/605/961 370/623/985 369/624/986
s 58
f 358/605/964 359/606/963 371/625/987 370/623/988
s 59
f 359/626/966 360/627/965 372/628/989 371/629/990
s 60
f 360/609/968 361/608/967 373/630/991 372/631/992
s 61
f 361/608/970 362/610/969 374/632/993 373/630/994
s 62
f 362/612/972 363/611/971 375/633/995 374/634/996
s 63
f 363/611/974 364/613/973 376/635/997 375/633/998
s 64
f 364/613/976 353/599/975 365/615/999 376/635/1000
s 53
f 365/615/978 366/614/977 378/563/1001 377/562/1002
s 54
f 366/617/980 367/616/979 380/566/1003 378/565/1004
s 55
f 367/616/982 368/618/981 381/636/1005 380/566/1006
s 56
f 368/622/984 369/621/983 382/571/1007 381/569/1008
s 57
f 369/621/986 370/637/985 383/572/1009 382/571/1010
s 58
f 370/637/988 371/629/987 384/573/1011 383/572/1012
s 59
f 371/629/990 372/628/989 385/574/1013 384/573/1014
s 60
f 372/631/992 373/630/991 386/576/1015 385/638/1016
s 61
f 373/630/994 374/632/993 387/577/1017 386/576/1018
s 62
f 374/634/996 375/633/995 388/580/1019 387/579/1020
s 63
f 375/633/998 376/635/997 389/581/1021 388/580/1022
s 64
f 376/635/1000 365/615/999 377/562/1023 389/581/1024
s 53
f 318/518/856 317/517/855 390/639/1025 391/640/1026
s 54
f 319/641/860 318/642/859 391/643/1027 392/644/1028
s 55
f 320/645/864 319/641/863 392/644/1029 393/646/1030
s 56
f 321/528/868 320/527/867 393/647/1031 394/648/1032
s 57
f 322/531/872 321/528/871 394/648/1033 395/649/1034
s 58
f 323/533/876 322/531/875 395/649/1035 396/650/1036
s 59
f 324/535/880 323/533/879 396/650/1037 397/651/1038
s 60
f 325/652/884 324/653/883 397/654/1039 398/655/1040
s 61
f 326/656/888 325/652/887 398/655/1041 399/657/1042
s 62
f 327/544/892 326/543/891 399/658/1043 400/659/1044
s 63
f 328/547/896 327/544/895 400/659/1045 401/660/1046
s 64
f 317/517/900 328/547/899 401/660/1047 390/639/1048
s off
f 391/643/1049 390/661/1050 402/662/1051 403/663/1052
f 392/644/1053 391/643/1054 403/663/1055 404/664/1056
f 393/646/1057 392/644/1058 404/664/1059 405/665/1060
f 394/666/1061 393/646/1062 405/665/1063 406/667/1064
f 395/649/1065 394/648/1066 406/668/1067 407/669/1068
f 396/650/1069 395/649/1070 407/669/1071 408/670/1072
f 397/654/1073 396/671/1074 408/672/1075 409/673/1076
f 398/655/1077 397/654/1078 409/673/1079 410/674/1080
f 399/657/1081 398/655/1082 410/674/1083 411/675/1084
f 400/676/1085 399/657/1086 411/675/1087 412/677/1088
f 401/660/1089 400/659/1090 412/678/1091 413/679/1092
f 390/639/1093 401/660/1094 413/679/1095 402/680/1096
f 403/663/1097 402/662/1098 414/681/1099 415/682/1100
f 404/664/1101 403/663/1102 415/682/1103 416/683/1104
f 405/665/1105 404/664/1106 416/683/1107 417/684/1108
f 406/667/1109 405/665/1110 417/684/1111 418/685/1112
f 407/686/1113 406/667/1114 418/685/1115 419/687/1116
f 408/672/1117 407/686/1118 419/687/1119 420/688/1120
f 409/673/1121 408/672/1122 420/688/1123 421/689/1124
f 410/674/1125 409/673/1126 421/689/1127 422/690/1128
f 411/675/1129 410/674/1130 422/690/1131 423/691/1132
f 412/677/1133 411/675/1134 423/691/1135 424/692/1136
f 413/693/1137 412/677/1138 424/692/1139 425/694/1140
f 402/662/1141 413/693/1142 425/694/1143 414/681/1144
s 67
f 415/695/1145 414/696/1146 426/697/1147 427/698/1148
f 416/699/1149 415/700/1150 427/701/1151 428/702/1152
s 69
f 417/703/1153 416/699/1154 428/702/1155 429/704/1156
s 70
f 418/705/1157 417/706/1158 429/707/1159 430/708/1160
f 419/709/1161 418/705/1162 430/708/1160 431/710/1163
s 72
f 420/711/1164 419/709/1165 431/710/1166 432/712/1167
s 73
f 421/713/1168 420/711/1169 432/712/1170 433/714/1171
s 74
f 422/715/1172 421/716/1173 433/717/1174 434/718/1175
s 75
f 423/719/1176 422/715/1177 434/718/1178 435/720/1179
s 76
f 424/721/1180 423/722/1181 435/723/1182 436/724/1183
f 425/725/1184 424/721/1185 436/724/1183 437/726/1186
s 78
f 414/696/1187 425/725/1188 437/726/1189 426/697/1190
s 67
f 427/698/1148 426/697/1147 438/727/1191 439/728/1192
f 428/702/1152 427/701/1151 439/729/1192 440/730/1193
s 69
f 429/704/1156 428/702/1155 440/730/1194 441/731/1195
s 70
f 430/708/1160 429/707/1159 441/732/1196 442/733/1197
f 431/710/1163 430/708/1160 442/733/1197 443/734/1198
s 72
f 432/712/1167 431/710/1166 443/734/1199 444/735/1200
s 73
f 433/714/1171 432/712/1170 444/735/1201 445/736/1202
s 74
f 434/718/1175 433/717/1174 445/737/1203 446/738/1204
s 75
f 435/720/1179 434/718/1178 446/738/1205 447/739/1206
s 76
f 436/724/1183 435/723/1182 447/740/1207 448/741/1208
f 437/726/1186 436/724/1183 448/741/1208 449/742/1209
s 78
f 426/697/1190 437/726/1189 449/742/1210 438/727/1211
s 67
f 439/728/1192 438/727/1191 450/743/1212 451/744/1213
f 440/730/1193 439/729/1192 451/745/1213 452/746/1214
s 69
f 441/731/1195 440/730/1194 452/746/1215 453/747/1216
s 70
f 442/733/1197 441/732/1196 453/748/1217 454/749/1218
f 443/734/1198 442/733/1197 454/749/1218 455/750/1219
s 72
f 444/735/1200 443/734/1199 455/750/1220 456/751/1221
s 73
f 445/736/1202 444/735/1201 456/751/1222 457/752/1223
s 74
f 446/738/1204 445/737/1203 457/753/1224 458/754/1225
s 75
f 447/739/1206 446/738/1205 458/754/1226 459/755/1227
s 76
f 448/741/1208 447/740/1207 459/756/1228 460/757/1229
f 449/742/1209 448/741/1208 460/757/1230 461/758/1231
s 78
f 438/727/1211 449/742/1210 461/758/1232 450/743/1233
s off
f 451/744/1234 450/743/1235 462/550/1236 463/549/1237
f 452/746/1238 451/745/1239 463/759/1240 465/760/1241
f 453/747/1242 452/746/1243 465/760/1244 466/761/1245
f 454/762/1246 453/763/1247 466/764/1248 467/765/1249
f 455/766/1250 454/762/1251 467/765/1252 468/767/1253
f 456/768/1254 455/766/1255 468/767/1256 469/769/1257
f 457/770/1258 456/768/1259 469/769/1260 470/771/1261
f 458/754/1262 457/753/1263 470/772/1264 471/773/1265
f 459/755/1266 458/754/1267 471/773/1268 472/774/1269
f 460/757/1270 459/756/1271 472/559/1272 473/560/1273
f 461/758/1274 460/757/1275 473/560/1276 474/561/1277
f 450/743/1278 461/758/1279 474/561/1280 462/550/1281
