# This file uses centimeters as units for non-parametric coordinates.

mtllib garlic buo.mtl
g default
v 1.927646 1.293032 -1.112924
v 1.112924 1.293032 -1.927641
v 0.000000 1.293032 -2.225848
v -1.112924 1.293032 -1.927641
v -1.927646 1.293032 -1.112924
v -2.225852 1.293032 0.000000
v -1.927646 1.293032 1.112924
v -1.112924 1.293032 1.927641
v 0.000000 1.293032 2.225848
v 1.112924 1.293032 1.927641
v 1.927646 1.293032 1.112924
v 2.225848 1.293032 0.000000
v 1.927646 2.983714 -1.112924
v 1.112924 2.983714 -1.927641
v 0.000000 2.983714 -2.225848
v -1.112924 2.983714 -1.927641
v -1.927646 2.983714 -1.112924
v -2.225852 2.983714 0.000000
v -1.927646 2.983714 1.112924
v -1.112924 2.983714 1.927641
v 0.000000 2.983714 2.225848
v 1.112924 2.983714 1.927641
v 1.927646 2.983714 1.112924
v 2.225848 2.983714 0.000000
v 1.052868 0.327000 -0.607881
v 0.607883 0.327000 -1.052880
v 0.000000 0.327000 -1.215761
v -0.607883 0.327000 -1.052880
v -1.052885 0.327000 -0.607881
v -1.215766 0.327000 0.000000
v -1.052885 0.327000 0.607881
v -0.607883 0.327000 1.052880
v 0.000000 0.327000 1.215761
v 0.607883 0.327000 1.052880
v 1.052868 0.327000 0.607881
v 1.215758 0.327000 0.000000
v 1.052868 3.949746 -0.607881
v 0.607883 3.949746 -1.052880
v 0.000000 3.949746 -1.215761
v -0.607883 3.949746 -1.052880
v -1.052885 3.949746 -0.607881
v -1.215766 3.949746 0.000000
v -1.052885 3.949746 0.607881
v -0.607883 3.949746 1.052880
v 0.000000 3.949746 1.215761
v 0.607883 3.949746 1.052880
v 1.052868 3.949746 0.607881
v 1.215758 3.949746 0.000000
v 0.341777 0.000000 -0.197327
v 0.197329 0.000000 -0.341780
v 0.000000 0.000000 0.000000
v 0.000000 0.000000 -0.394653
v -0.197329 0.000000 -0.341779
v -0.341786 0.000000 -0.197327
v -0.394659 0.000000 0.000000
v -0.341786 0.000000 0.197327
v -0.197329 0.000000 0.341779
v 0.000000 0.000000 0.394653
v 0.197329 0.000000 0.341779
v 0.341777 0.000000 0.197327
v 0.394642 0.000000 0.000000
v 0.365523 4.550117 -0.211036
v 0.211039 4.550117 -0.365525
v 0.000000 4.550117 -0.422072
v -0.211039 4.550117 -0.365525
v -0.365531 4.550117 -0.211036
v -0.422078 4.550117 0.000000
v -0.365531 4.550117 0.211036
v -0.211039 4.550117 0.365525
v 0.000000 4.550117 0.422072
v 0.211039 4.550117 0.365525
v 0.365523 4.550117 0.211036
v 0.422060 4.550117 0.000000
v 0.215275 5.614252 -0.124292
v 0.124290 5.614252 -0.215280
v -0.000004 5.614252 -0.000000
v -0.000004 5.614252 -0.248584
v -0.124298 5.614252 -0.215280
v -0.215288 5.614252 -0.124293
v -0.248592 5.614252 -0.000000
v -0.215288 5.614252 0.124292
v -0.124298 5.614252 0.215280
v -0.000004 5.614252 0.248584
v 0.124290 5.614252 0.215280
v 0.215275 5.614252 0.124292
v 0.248574 5.614252 0.000000
v 0.640461 4.158669 -0.369774
v 0.739539 4.158669 0.000000
v 0.640461 4.158669 0.369774
v 0.369777 4.158669 0.640467
v 0.000000 4.158669 0.739548
v -0.369777 4.158669 0.640467
v -0.640473 4.158669 0.369774
v -0.739553 4.158669 0.000000
v -0.640473 4.158669 -0.369774
v -0.369777 4.158669 -0.640467
v 0.000000 4.158669 -0.739548
v 0.369777 4.158669 -0.640467
vt 0.328966 0.764306
vt 0.328966 0.651646
vt 0.500111 0.651646
vt 0.500111 0.764306
vt 0.231176 0.713181
vt 0.231176 0.651646
vt 0.328966 0.538987
vt 0.500111 0.538987
vt 0.597902 0.651646
vt 0.597902 0.713181
vt 0.328966 0.846779
vt 0.500111 0.846779
vt 0.231176 0.590111
vt 0.328966 0.456514
vt 0.500111 0.456514
vt 0.597902 0.590111
vt 0.701659 0.764306
vt 0.701659 0.651646
vt 0.872804 0.651646
vt 0.872804 0.764306
vt 0.603868 0.713182
vt 0.603868 0.651646
vt 0.701659 0.538987
vt 0.872804 0.538987
vt 0.970595 0.651646
vt 0.970595 0.713182
vt 0.701659 0.846779
vt 0.872804 0.846779
vt 0.603868 0.590111
vt 0.701659 0.456514
vt 0.872804 0.456514
vt 0.970595 0.590111
vt 0.360237 0.890287
vt 0.381600 0.890287
vt 0.381600 0.998008
vt 0.369018 0.998008
vt 0.344168 0.850661
vt 0.381600 0.850661
vt 0.402963 0.890287
vt 0.394182 0.998008
vt 0.344598 0.890287
vt 0.359807 0.998008
vt 0.419032 0.850661
vt 0.316766 0.850661
vt 0.418602 0.890287
vt 0.403392 0.998008
vt 0.446434 0.850661
vt 0.223767 0.890287
vt 0.245130 0.890287
vt 0.245130 0.998008
vt 0.232548 0.998008
vt 0.207698 0.850661
vt 0.245130 0.850661
vt 0.266493 0.890287
vt 0.257712 0.998008
vt 0.208128 0.890287
vt 0.223337 0.998008
vt 0.282562 0.850661
vt 0.180296 0.850661
vt 0.282131 0.890287
vt 0.266922 0.998008
vt 0.309963 0.850661
vt 0.217046 0.192714
vt 0.231668 0.207337
vt 0.197071 0.227312
vt 0.258606 0.120730
vt 0.303651 0.165777
vt 0.237020 0.227312
vt 0.197071 0.187362
vt 0.309730 0.032179
vt 0.392204 0.114652
vt 0.320140 0.227312
vt 0.197071 0.104242
vt 0.231668 0.247287
vt 0.177095 0.192714
vt 0.197071 0.001992
vt 0.303651 0.288847
vt 0.135535 0.120730
vt 0.217046 0.261910
vt 0.162472 0.207337
vt 0.084411 0.032179
vt 0.258606 0.333894
vt 0.090488 0.165777
vt 0.197071 0.267262
vt 0.157120 0.227312
vt 0.001937 0.114652
vt 0.392204 0.339972
vt 0.309730 0.422445
vt 0.197071 0.350382
vt 0.074000 0.227312
vt 0.177095 0.261910
vt 0.162472 0.247287
vt 0.197071 0.452632
vt 0.135535 0.333894
vt 0.090488 0.288847
vt 0.084411 0.422445
vt 0.001937 0.339972
vt 0.598755 0.888407
vt 0.589545 0.897617
vt 0.576962 0.875825
vt 0.576962 0.900989
vt 0.602126 0.875825
vt 0.564380 0.897617
vt 0.598755 0.863243
vt 0.555169 0.888407
vt 0.589545 0.854032
vt 0.551798 0.875825
vt 0.576962 0.850661
vt 0.555169 0.863243
vt 0.564380 0.854032
vt 0.788536 0.339972
vt 0.706062 0.422445
vt 0.654938 0.333894
vt 0.699983 0.288847
vt 0.593403 0.452632
vt 0.593403 0.350382
vt 0.630835 0.292146
vt 0.658236 0.264744
vt 0.480743 0.422445
vt 0.531867 0.333894
vt 0.593403 0.302175
vt 0.716472 0.227312
vt 0.668265 0.227312
vt 0.398269 0.339972
vt 0.486820 0.288847
vt 0.555970 0.292146
vt 0.593403 0.270038
vt 0.614766 0.264314
vt 0.699983 0.165777
vt 0.658236 0.189880
vt 0.528568 0.264744
vt 0.572039 0.264314
vt 0.654938 0.120730
vt 0.630835 0.162478
vt 0.470332 0.227312
vt 0.518538 0.227312
vt 0.706062 0.032179
vt 0.788536 0.114652
vt 0.593403 0.104242
vt 0.593403 0.152448
vt 0.486820 0.165777
vt 0.528568 0.189880
vt 0.593403 0.001992
vt 0.614766 0.190310
vt 0.593403 0.184586
vt 0.531867 0.120730
vt 0.555970 0.162478
vt 0.480743 0.032179
vt 0.572039 0.190310
vt 0.398269 0.114652
vt 0.225209 0.456514
vt 0.225209 0.569174
vt 0.054063 0.569174
vt 0.054063 0.456514
vt 0.225209 0.681834
vt 0.054063 0.681834
vt 0.001937 0.911035
vt 0.001937 0.798375
vt 0.173083 0.798375
vt 0.173083 0.911035
vt 0.001937 0.685715
vt 0.173083 0.685715
vt 0.495963 0.958382
vt 0.474600 0.958382
vt 0.474599 0.850661
vt 0.487181 0.850661
vt 0.453236 0.958382
vt 0.462017 0.850661
vt 0.502517 0.850661
vt 0.523880 0.850661
vt 0.523880 0.958382
vt 0.511298 0.958382
vt 0.545244 0.850661
vt 0.536462 0.958382
vn 0.707104 0.000000 -0.707109
vn 0.707104 0.000000 -0.707109
vn 0.680428 0.272092 -0.680429
vn 0.680428 0.272091 -0.680430
vn 0.249054 -0.272092 -0.929483
vn 0.249054 -0.272092 -0.929483
vn 0.249054 0.272092 -0.929483
vn 0.249054 0.272092 -0.929483
vn -0.258819 0.000000 -0.965926
vn -0.258819 0.000000 -0.965926
vn -0.249054 0.272092 -0.929483
vn -0.249054 0.272092 -0.929483
vn -0.707105 0.000000 -0.707109
vn -0.707105 0.000000 -0.707109
vn -0.680426 0.272092 -0.680431
vn -0.680426 0.272092 -0.680431
vn -0.965926 0.000000 -0.258818
vn -0.965926 0.000000 -0.258818
vn -0.929483 0.272092 -0.249054
vn -0.929483 0.272092 -0.249054
vn -0.965926 0.000000 0.258818
vn -0.965926 0.000000 0.258818
vn -0.929483 0.272092 0.249054
vn -0.929483 0.272092 0.249054
vn -0.707105 0.000000 0.707109
vn -0.707105 0.000000 0.707109
vn -0.680426 0.272092 0.680431
vn -0.680426 0.272092 0.680431
vn -0.258819 0.000000 0.965926
vn -0.258819 0.000000 0.965926
vn -0.249054 0.272092 0.929483
vn -0.249054 0.272092 0.929483
vn 0.258819 0.000000 0.965926
vn 0.258819 0.000000 0.965926
vn 0.249054 0.272092 0.929483
vn 0.249054 0.272092 0.929483
vn 0.707104 0.000000 0.707109
vn 0.707104 0.000000 0.707109
vn 0.680428 0.272091 0.680430
vn 0.680428 0.272092 0.680429
vn 0.965927 0.000000 0.258815
vn 0.965927 0.000000 0.258815
vn 0.929482 0.272095 0.249051
vn 0.929482 0.272095 0.249051
vn 0.965927 0.000000 -0.258815
vn 0.965927 0.000000 -0.258815
vn 0.929482 0.272095 -0.249051
vn 0.929482 0.272095 -0.249051
vn 0.000000 -1.000000 0.000000
vn 0.000000 -1.000000 0.000000
vn 0.000000 -1.000000 0.000000
vn 0.000000 -1.000000 0.000000
vn 0.000000 -1.000000 0.000000
vn 0.000000 -1.000000 0.000000
vn 0.000000 -1.000000 0.000000
vn 0.000000 -1.000000 0.000000
vn 0.000000 -1.000000 0.000000
vn 0.000000 -1.000000 0.000000
vn 0.000000 -1.000000 0.000000
vn 0.000000 -1.000000 0.000000
vn 0.000000 -1.000000 0.000000
vn -0.000002 1.000000 -0.000000
vn -0.000001 1.000000 -0.000004
vn -0.000000 1.000000 -0.000000
vn 0.000000 1.000000 0.000000
vn 0.000001 1.000000 0.000000
vn 0.000002 1.000000 0.000000
vn 0.000002 1.000000 0.000000
vn 0.000002 1.000000 0.000000
vn 0.000001 1.000000 0.000000
vn 0.000000 1.000000 0.000000
vn -0.000001 1.000000 0.000002
vn -0.000002 1.000000 -0.000002
vn -0.000002 1.000000 -0.000000
vn 0.497513 -0.710610 -0.497509
vn 0.497513 -0.710610 -0.497509
vn 0.497513 -0.710610 -0.497509
vn 0.497513 -0.710610 -0.497509
vn 0.182102 -0.710608 -0.679615
vn 0.182102 -0.710608 -0.679614
vn -0.182102 -0.710608 -0.679614
vn -0.182102 -0.710608 -0.679614
vn -0.182102 -0.710608 -0.679614
vn -0.182102 -0.710608 -0.679614
vn -0.497511 -0.710608 -0.497514
vn -0.497511 -0.710608 -0.497514
vn -0.497511 -0.710608 -0.497514
vn -0.497511 -0.710608 -0.497514
vn -0.679614 -0.710608 -0.182102
vn -0.679614 -0.710608 -0.182102
vn -0.679614 -0.710608 -0.182102
vn -0.679614 -0.710608 -0.182102
vn -0.679614 -0.710608 0.182102
vn -0.679614 -0.710608 0.182102
vn -0.679614 -0.710608 0.182102
vn -0.679614 -0.710608 0.182102
vn -0.497511 -0.710607 0.497514
vn -0.497511 -0.710607 0.497514
vn -0.497511 -0.710608 0.497514
vn -0.497511 -0.710607 0.497514
vn -0.182102 -0.710608 0.679614
vn -0.182102 -0.710608 0.679614
vn -0.182102 -0.710608 0.679614
vn -0.182102 -0.710608 0.679614
vn 0.182102 -0.710608 0.679614
vn 0.182102 -0.710608 0.679614
vn 0.182102 -0.710608 0.679614
vn 0.182102 -0.710608 0.679614
vn 0.497513 -0.710610 0.497509
vn 0.497513 -0.710610 0.497509
vn 0.497513 -0.710610 0.497509
vn 0.497513 -0.710610 0.497509
vn 0.679610 -0.710611 0.182103
vn 0.679610 -0.710611 0.182103
vn 0.679610 -0.710611 0.182103
vn 0.679610 -0.710611 0.182103
vn 0.679610 -0.710611 -0.182102
vn 0.679610 -0.710611 -0.182102
vn 0.679610 -0.710611 -0.182102
vn 0.679610 -0.710611 -0.182102
vn 0.497513 0.710610 -0.497509
vn 0.497513 0.710610 -0.497509
vn 0.182102 0.710608 -0.679614
vn 0.182102 0.710608 -0.679614
vn -0.182102 0.710608 -0.679614
vn -0.182102 0.710608 -0.679614
vn -0.497511 0.710607 -0.497514
vn -0.497511 0.710607 -0.497514
vn -0.679614 0.710608 -0.182102
vn -0.679614 0.710608 -0.182102
vn -0.679614 0.710608 0.182102
vn -0.679614 0.710608 0.182102
vn -0.497511 0.710608 0.497514
vn -0.497511 0.710608 0.497514
vn -0.182102 0.710608 0.679614
vn -0.182102 0.710608 0.679614
vn 0.182102 0.710608 0.679614
vn 0.182102 0.710608 0.679614
vn 0.497513 0.710610 0.497509
vn 0.497513 0.710610 0.497509
vn 0.679610 0.710611 0.182103
vn 0.679610 0.710611 0.182103
vn 0.679610 0.710611 -0.182103
vn 0.679610 0.710611 -0.182103
vn 0.269531 -0.924506 -0.269521
vn 0.269531 -0.924506 -0.269521
vn 0.269531 -0.924506 -0.269521
vn 0.269531 -0.924506 -0.269521
vn 0.098652 -0.924507 -0.368178
vn 0.098652 -0.924507 -0.368178
vn 0.098652 -0.924507 -0.368178
vn 0.098652 -0.924507 -0.368178
vn -0.098652 -0.924507 -0.368178
vn -0.098652 -0.924507 -0.368178
vn -0.098652 -0.924507 -0.368178
vn -0.098652 -0.924507 -0.368178
vn -0.269524 -0.924507 -0.269526
vn -0.269524 -0.924507 -0.269526
vn -0.269524 -0.924506 -0.269526
vn -0.269524 -0.924507 -0.269526
vn -0.368179 -0.924506 -0.098653
vn -0.368179 -0.924507 -0.098653
vn -0.368179 -0.924507 -0.098653
vn -0.368179 -0.924507 -0.098653
vn -0.368179 -0.924506 0.098653
vn -0.368179 -0.924506 0.098653
vn -0.368179 -0.924506 0.098653
vn -0.368179 -0.924506 0.098653
vn -0.269524 -0.924507 0.269526
vn -0.269524 -0.924507 0.269526
vn -0.269524 -0.924506 0.269526
vn -0.269524 -0.924507 0.269526
vn -0.098652 -0.924507 0.368178
vn -0.098652 -0.924507 0.368178
vn -0.098652 -0.924507 0.368178
vn -0.098652 -0.924507 0.368178
vn 0.098652 -0.924507 0.368178
vn 0.098652 -0.924507 0.368178
vn 0.098652 -0.924507 0.368178
vn 0.098652 -0.924507 0.368178
vn 0.269531 -0.924506 0.269521
vn 0.269531 -0.924506 0.269521
vn 0.269531 -0.924506 0.269521
vn 0.269531 -0.924506 0.269521
vn 0.368179 -0.924507 0.098653
vn 0.368179 -0.924506 0.098653
vn 0.368179 -0.924506 0.098653
vn 0.368179 -0.924506 0.098653
vn 0.368178 -0.924506 -0.098653
vn 0.368178 -0.924506 -0.098653
vn 0.368178 -0.924506 -0.098653
vn 0.368178 -0.924506 -0.098653
vn 0.292421 0.910487 -0.292411
vn 0.292421 0.910487 -0.292411
vn 0.384437 0.839301 -0.384424
vn 0.384440 0.839299 -0.384427
vn 0.107031 0.910487 -0.399447
vn 0.107031 0.910487 -0.399447
vn 0.140710 0.839301 -0.525143
vn 0.140710 0.839301 -0.525142
vn -0.107031 0.910487 -0.399446
vn -0.107031 0.910487 -0.399446
vn -0.140710 0.839301 -0.525142
vn -0.140710 0.839301 -0.525142
vn -0.292414 0.910487 -0.292416
vn -0.292414 0.910487 -0.292416
vn -0.384429 0.839301 -0.384433
vn -0.384429 0.839301 -0.384433
vn -0.399447 0.910487 -0.107032
vn -0.399447 0.910487 -0.107032
vn -0.525142 0.839301 -0.140711
vn -0.525142 0.839301 -0.140711
vn -0.399447 0.910487 0.107031
vn -0.399447 0.910487 0.107031
vn -0.525142 0.839301 0.140711
vn -0.525142 0.839301 0.140711
vn -0.292414 0.910487 0.292417
vn -0.292414 0.910487 0.292417
vn -0.384429 0.839301 0.384433
vn -0.384429 0.839301 0.384433
vn -0.107031 0.910487 0.399446
vn -0.107031 0.910487 0.399446
vn -0.140710 0.839301 0.525142
vn -0.140710 0.839301 0.525142
vn 0.107031 0.910487 0.399447
vn 0.107031 0.910487 0.399447
vn 0.140710 0.839301 0.525142
vn 0.140710 0.839301 0.525143
vn 0.292421 0.910487 0.292411
vn 0.292421 0.910487 0.292411
vn 0.384440 0.839299 0.384426
vn 0.384437 0.839301 0.384424
vn 0.399446 0.910487 0.107033
vn 0.399446 0.910487 0.107033
vn 0.525143 0.839301 0.140708
vn 0.525141 0.839302 0.140708
vn 0.399446 0.910487 -0.107033
vn 0.399446 0.910487 -0.107033
vn 0.525141 0.839302 -0.140708
vn 0.525143 0.839301 -0.140708
vn 0.651936 0.387284 -0.651913
vn 0.651935 0.387286 -0.651913
vn 0.698511 0.155562 -0.698486
vn 0.698511 0.155562 -0.698486
vn 0.238618 0.387286 -0.890545
vn 0.238618 0.387285 -0.890546
vn 0.255665 0.155560 -0.954168
vn 0.255665 0.155560 -0.954168
vn -0.238619 0.387285 -0.890546
vn -0.458512 0.398804 -0.794180
vn -0.493478 0.160906 -0.854745
vn -0.255665 0.155559 -0.954168
vn -0.651918 0.387284 -0.651931
vn -0.698490 0.155558 -0.698508
vn -0.890546 0.387284 -0.238620
vn -0.917036 0.398804 -0.000000
vn -0.986970 0.160906 -0.000000
vn -0.954168 0.155558 -0.255668
vn -0.890546 0.387284 0.238620
vn -0.954168 0.155558 0.255667
vn -0.651918 0.387284 0.651931
vn -0.458513 0.398804 0.794180
vn -0.493478 0.160906 0.854745
vn -0.698491 0.155558 0.698507
vn -0.238619 0.387285 0.890546
vn -0.255665 0.155559 0.954168
vn 0.238618 0.387285 0.890546
vn 0.238618 0.387286 0.890546
vn 0.255665 0.155560 0.954168
vn 0.255665 0.155560 0.954168
vn 0.651936 0.387286 0.651912
vn 0.651936 0.387284 0.651913
vn 0.698511 0.155562 0.698486
vn 0.698511 0.155562 0.698486
vn 0.890551 0.387288 0.238592
vn 0.917038 0.398801 0.000000
vn 0.986970 0.160906 0.000000
vn 0.954178 0.155560 0.255629
vn 0.890551 0.387288 -0.238592
vn 0.954178 0.155560 -0.255629
s 1
g pCylinder22
usemtl initialShadingGroup
f 1/23/1 2/30/2 14/31/3 13/24/4
s 2
f 2/151/5 3/152/6 15/153/7 14/154/8
s 3
f 3/152/9 4/155/10 16/156/11 15/153/12
s 4
f 4/11/13 5/1/14 17/4/15 16/12/16
s 5
f 5/1/17 6/2/18 18/3/19 17/4/20
s 6
f 6/2/21 7/7/22 19/8/23 18/3/24
s 7
f 7/7/25 8/14/26 20/15/27 19/8/28
s 8
f 8/157/29 9/158/30 21/159/31 20/160/32
s 9
f 9/158/33 10/161/34 22/162/35 21/159/36
s 10
f 10/27/37 11/17/38 23/20/39 22/28/40
s 11
f 11/17/41 12/18/42 24/19/43 23/20/44
s 12
f 12/18/45 1/23/46 13/24/47 24/19/48
s 13
f 50/63/49 49/64/50 51/65/51
f 52/69/52 50/63/49 51/65/51
f 53/75/53 52/69/52 51/65/51
f 54/80/54 53/75/53 51/65/51
f 55/85/55 54/80/54 51/65/51
f 56/92/56 55/85/55 51/65/51
f 57/91/57 56/92/56 51/65/51
f 58/84/58 57/91/57 51/65/51
f 59/79/59 58/84/58 51/65/51
f 60/74/60 59/79/59 51/65/51
f 61/68/61 60/74/60 51/65/51
f 49/64/50 61/68/61 51/65/51
s 14
f 74/98/62 75/99/63 76/100/64
f 75/99/63 77/101/65 76/100/64
f 77/101/65 78/103/66 76/100/64
f 78/103/66 79/105/67 76/100/64
f 79/105/67 80/107/68 76/100/64
f 80/107/68 81/109/69 76/100/64
f 81/109/69 82/110/70 76/100/64
f 82/110/70 83/108/71 76/100/64
f 83/108/71 84/106/72 76/100/64
f 84/106/72 85/104/73 76/100/64
f 85/104/73 86/102/74 76/100/64
f 86/102/74 74/98/62 76/100/64
s off
f 2/70/75 1/71/76 25/67/77 26/66/78
s 2
f 3/76/6 2/70/5 26/66/79 27/73/80
s off
f 4/81/81 3/76/82 27/73/83 28/78/84
f 5/86/85 4/81/86 28/78/87 29/83/88
f 6/2/89 5/1/90 29/5/91 30/6/92
f 7/7/93 6/2/94 30/6/95 31/13/96
f 8/96/97 7/97/98 31/95/99 32/94/100
f 9/93/101 8/96/102 32/94/103 33/89/104
f 10/88/105 9/93/106 33/89/107 34/82/108
f 11/87/109 10/88/110 34/82/111 35/77/112
f 12/18/113 11/17/114 35/21/115 36/22/116
f 1/23/117 12/18/118 36/22/119 25/29/120
s 1
f 13/111/4 14/112/3 38/113/121 37/114/122
s 2
f 14/112/8 15/115/7 39/116/123 38/113/124
s 3
f 15/115/12 16/119/11 40/120/125 39/116/126
s 4
f 16/119/16 17/124/15 41/125/127 40/120/128
s 5
f 17/4/20 18/3/19 42/9/129 41/10/130
s 6
f 18/3/24 19/8/23 43/16/131 42/9/132
s 7
f 19/150/28 20/148/27 44/146/133 43/141/134
s 8
f 20/148/32 21/143/31 45/139/135 44/146/136
s 9
f 21/143/36 22/137/35 46/133/137 45/139/138
s 10
f 22/137/40 23/138/39 47/129/139 46/133/140
s 11
f 23/20/44 24/19/43 48/25/141 47/26/142
s 12
f 24/19/48 13/24/47 37/32/143 48/25/144
s off
f 26/66/145 25/67/146 49/64/147 50/63/148
f 27/73/149 26/66/150 50/63/151 52/69/152
f 28/78/153 27/73/154 52/69/155 53/75/156
f 29/83/157 28/78/158 53/75/159 54/80/160
f 30/90/161 29/83/162 54/80/163 55/85/164
f 31/95/165 30/90/166 55/85/167 56/92/168
f 32/94/169 31/95/170 56/92/171 57/91/172
f 33/89/173 32/94/174 57/91/175 58/84/176
f 34/82/177 33/89/178 58/84/179 59/79/180
f 35/77/181 34/82/182 59/79/183 60/74/184
f 36/72/185 35/77/186 60/74/187 61/68/188
f 25/67/189 36/72/190 61/68/191 49/64/192
s 15
f 37/114/193 38/113/194 98/117/195 87/118/196
s 16
f 38/113/197 39/116/198 97/121/199 98/117/200
s 17
f 39/116/201 40/120/202 96/126/203 97/121/204
f 40/120/205 41/125/206 95/131/207 96/126/208
s 19
f 41/125/209 42/135/210 94/136/211 95/131/212
f 42/135/213 43/141/214 93/142/215 94/136/216
s 21
f 43/141/217 44/146/218 92/147/219 93/142/220
f 44/146/221 45/139/222 91/140/223 92/147/224
s 23
f 45/139/225 46/133/226 90/134/227 91/140/228
s 24
f 46/133/229 47/129/230 89/130/231 90/134/232
s 25
f 47/129/233 48/122/234 88/123/235 89/130/236
f 48/122/237 37/114/238 87/118/239 88/123/240
s 15
f 62/54/241 63/60/242 75/61/243 74/55/244
s 16
f 63/163/245 64/164/246 77/165/247 75/166/248
s 17
f 64/164/249 65/167/250 78/168/251 77/165/252
f 65/41/250 66/33/253 79/36/254 78/42/251
s 19
f 66/33/255 67/34/256 80/35/257 79/36/258
f 67/34/256 68/39/259 81/40/260 80/35/257
s 21
f 68/39/261 69/45/262 82/46/263 81/40/264
f 69/169/262 70/170/265 83/171/266 82/172/263
s 23
f 70/170/267 71/173/268 84/174/269 83/171/270
s 24
f 71/56/271 72/48/272 85/51/273 84/57/274
s 25
f 72/48/275 73/49/276 86/50/277 85/51/278
f 73/49/276 62/54/279 74/55/280 86/50/277
f 88/53/240 87/58/239 62/54/279 73/49/276
f 89/52/236 88/53/235 73/49/276 72/48/275
s 24
f 90/59/232 89/52/231 72/48/272 71/56/271
s 23
f 91/140/228 90/134/227 71/144/268 70/145/267
s 21
f 92/147/224 91/140/223 70/145/265 69/149/262
f 93/43/220 92/47/219 69/45/262 68/39/261
s 19
f 94/38/216 93/43/215 68/39/259 67/34/256
f 95/37/212 94/38/211 67/34/256 66/33/255
s 17
f 96/44/208 95/37/207 66/33/253 65/41/250
f 97/121/204 96/126/203 65/132/250 64/127/249
s 16
f 98/117/200 97/121/199 64/127/246 63/128/245
s 15
f 87/58/196 98/62/195 63/60/242 62/54/241
