# This file uses centimeters as units for non-parametric coordinates.

mtllib mixing bowl.mtl
g default
v 6.761415 0.000004 -3.903705
v 3.903705 0.000004 -6.761415
v 0.000000 0.000004 -7.807410
v -3.903705 0.000004 -6.761415
v -6.761415 0.000004 -3.903705
v -7.807410 0.000004 0.000000
v -6.761415 0.000004 3.903705
v -3.903705 0.000004 6.761415
v 0.000000 0.000004 7.807410
v 3.903705 0.000004 6.761415
v 6.761415 0.000004 3.903705
v 7.807410 0.000004 0.000000
v 11.954268 12.844921 -6.901800
v 6.901800 12.844921 -11.954268
v 0.000000 12.844921 -13.803600
v -6.901800 12.844921 -11.954268
v -11.954268 12.844921 -6.901800
v -13.803600 12.844921 0.000000
v -11.954268 12.844921 6.901800
v -6.901800 12.844921 11.954268
v 0.000000 12.844921 13.803600
v 6.901800 12.844921 11.954268
v 11.954268 12.844921 6.901800
v 13.803600 12.844921 0.000000
v 0.000000 0.000004 0.000000
v 9.301848 3.216148 -5.370423
v 10.740846 3.216148 0.000000
v 9.301848 3.216148 5.370423
v 5.370423 3.216148 9.301848
v 0.000000 3.216148 10.740846
v -5.370423 3.216148 9.301848
v -9.301848 3.216148 5.370423
v -10.740846 3.216148 0.000000
v -9.301848 3.216148 -5.370423
v -5.370423 3.216148 -9.301848
v 0.000000 3.216148 -10.740846
v 5.370423 3.216148 -9.301848
v 11.481209 7.075523 -6.628680
v 13.257360 7.075523 0.000000
v 11.481209 7.075523 6.628680
v 6.628680 7.075523 11.481209
v 0.000000 7.075523 13.257360
v -6.628680 7.075523 11.481209
v -11.481209 7.075523 6.628680
v -13.257360 7.075523 0.000000
v -11.481209 7.075523 -6.628680
v -6.628680 7.075523 -11.481209
v 0.000000 7.075523 -13.257360
v 6.628680 7.075523 -11.481209
v 11.954268 10.677608 -6.901800
v 13.803600 10.677608 0.000000
v 11.954268 10.677608 6.901800
v 6.901800 10.677608 11.954268
v 0.000000 10.677608 13.803600
v -6.901800 10.677608 11.954268
v -11.954268 10.677608 6.901800
v -13.803600 10.677608 0.000000
v -11.954268 10.677608 -6.901800
v -6.901800 10.677608 -11.954268
v 0.000000 10.677608 -13.803600
v 6.901800 10.677608 -11.954268
v 11.318491 12.844921 -6.534735
v 6.534735 12.844921 -11.318491
v 0.000000 12.844921 -13.069470
v -6.534735 12.844921 -11.318491
v -11.318491 12.844921 -6.534735
v -13.069470 12.844921 0.000000
v -11.318491 12.844921 6.534735
v -6.534735 12.844921 11.318491
v 0.000000 12.844921 13.069470
v 6.534735 12.844921 11.318491
v 11.318491 12.844921 6.534735
v 13.069470 12.844921 0.000000
v 11.318491 10.640451 -6.534735
v 6.534735 10.640451 -11.318491
v 0.000000 10.640451 -13.069470
v -6.534735 10.640451 -11.318491
v -11.318491 10.640451 -6.534735
v -13.069470 10.640451 0.000000
v -11.318491 10.640451 6.534735
v -6.534735 10.640451 11.318491
v 0.000000 10.640451 13.069470
v 6.534735 10.640451 11.318491
v 11.318491 10.640451 6.534735
v 13.069470 10.640451 0.000000
v 10.409017 7.028526 -6.009648
v 6.009648 7.028525 -10.409017
v 0.000000 7.028525 -12.019296
v -6.009648 7.028526 -10.409017
v -10.409017 7.028526 -6.009648
v -12.019296 7.028526 0.000000
v -10.409017 7.028526 6.009648
v -6.009648 7.028525 10.409017
v 0.000000 7.028525 12.019296
v 6.009648 7.028526 10.409017
v 10.409017 7.028526 6.009648
v 12.019296 7.028526 0.000000
v 7.804398 3.225435 -4.505871
v 4.505871 3.225435 -7.804398
v -0.000000 3.225435 -9.011743
v -4.505871 3.225435 -7.804398
v -7.804398 3.225435 -4.505871
v -9.011743 3.225435 -0.000000
v -7.804398 3.225435 4.505871
v -4.505871 3.225435 7.804398
v 0.000000 3.225435 9.011743
v 4.505871 3.225435 7.804398
v 7.804398 3.225435 4.505871
v 9.011743 3.225435 -0.000000
v 5.086933 0.860628 -2.936943
v 2.936943 0.860628 -5.086933
v 0.000000 0.860628 0.000000
v -0.000000 0.860626 -5.873886
v -2.936943 0.860628 -5.086933
v -5.086933 0.860628 -2.936943
v -5.873886 0.860628 -0.000000
v -5.086933 0.860628 2.936943
v -2.936943 0.860628 5.086933
v 0.000000 0.860626 5.873886
v 2.936943 0.860628 5.086933
v 5.086933 0.860628 2.936943
v 5.873886 0.860628 -0.000000
v 11.954268 11.977997 -6.901800
v 13.803600 11.977997 0.000000
v 11.954268 11.977997 6.901800
v 6.901800 11.977997 11.954268
v 0.000000 11.977997 13.803600
v -6.901800 11.977997 11.954268
v -11.954268 11.977997 6.901800
v -13.803600 11.977997 0.000000
v -11.954268 11.977997 -6.901800
v -6.901800 11.977997 -11.954268
v 0.000000 11.977997 -13.803600
v 6.901800 11.977997 -11.954268
v 12.738653 11.977997 -7.354665
v 14.709330 11.977997 0.000000
v 12.738653 12.844921 -7.354665
v 14.709330 12.844921 0.000000
v 12.738653 11.977997 7.354665
v 12.738653 12.844921 7.354665
v 7.354665 11.977997 12.738653
v 7.354665 12.844921 12.738653
v 0.000000 11.977997 14.709330
v 0.000000 12.844921 14.709330
v -7.354665 11.977997 12.738653
v -7.354665 12.844921 12.738653
v -12.738653 11.977997 7.354665
v -12.738653 12.844921 7.354665
v -14.709330 11.977997 0.000000
v -14.709330 12.844921 0.000000
v -12.738653 11.977997 -7.354665
v -12.738653 12.844921 -7.354665
v -7.354665 11.977997 -12.738653
v -7.354665 12.844921 -12.738653
v 0.000000 11.977997 -14.709330
v 0.000000 12.844921 -14.709330
v 7.354665 11.977997 -12.738653
v 7.354665 12.844921 -12.738653
vt 0.613128 0.552430
vt 0.613128 0.481478
vt 0.671979 0.464855
vt 0.671979 0.552430
vt 0.564086 0.552430
vt 0.564086 0.500856
vt 0.613128 0.429538
vt 0.671979 0.400745
vt 0.726907 0.461246
vt 0.726907 0.552430
vt 0.613128 0.623382
vt 0.671979 0.640006
vt 0.564086 0.463101
vt 0.564086 0.604004
vt 0.726907 0.394495
vt 0.746736 0.461246
vt 0.746736 0.552430
vt 0.726907 0.643614
vt 0.613128 0.675323
vt 0.671979 0.704115
vt 0.564086 0.641759
vt 0.746736 0.394495
vt 0.746736 0.643614
vt 0.726907 0.710365
vt 0.746736 0.710365
vt 0.424584 0.552430
vt 0.424584 0.481478
vt 0.483434 0.464855
vt 0.483434 0.552430
vt 0.375541 0.552430
vt 0.375541 0.500856
vt 0.424584 0.429538
vt 0.483434 0.400745
vt 0.538362 0.461246
vt 0.538362 0.552430
vt 0.424584 0.623382
vt 0.483434 0.640006
vt 0.375541 0.463101
vt 0.375541 0.604004
vt 0.538362 0.394495
vt 0.558191 0.461246
vt 0.558191 0.552430
vt 0.538362 0.643614
vt 0.424584 0.675323
vt 0.483434 0.704115
vt 0.375541 0.641759
vt 0.558191 0.394495
vt 0.558191 0.643614
vt 0.538362 0.710365
vt 0.558191 0.710365
vt 0.184660 0.760602
vt 0.184660 0.846937
vt 0.151045 0.846937
vt 0.151045 0.760602
vt 0.184660 0.933271
vt 0.151045 0.933271
vt 0.095967 0.846937
vt 0.095967 0.767539
vt 0.184660 0.697401
vt 0.151045 0.697401
vt 0.184660 0.996472
vt 0.151045 0.996472
vt 0.095967 0.926334
vt 0.037974 0.846937
vt 0.037974 0.787407
vt 0.095967 0.709417
vt 0.095967 0.984456
vt 0.037974 0.906466
vt 0.001914 0.846937
vt 0.001914 0.808135
vt 0.037974 0.743828
vt 0.037974 0.950045
vt 0.001914 0.885738
vt 0.369647 0.457696
vt 0.369647 0.544030
vt 0.336031 0.544030
vt 0.336031 0.457696
vt 0.369647 0.630365
vt 0.336031 0.630365
vt 0.280953 0.544030
vt 0.280953 0.464633
vt 0.369647 0.394495
vt 0.336031 0.394495
vt 0.369647 0.693566
vt 0.336031 0.693566
vt 0.280953 0.623428
vt 0.222961 0.544030
vt 0.222961 0.484501
vt 0.280953 0.406511
vt 0.280953 0.681550
vt 0.222961 0.603560
vt 0.186900 0.544030
vt 0.186900 0.505229
vt 0.222961 0.440922
vt 0.222961 0.647139
vt 0.186900 0.582832
vt 0.792288 0.170290
vt 0.792288 0.073123
vt 0.805507 0.073123
vt 0.805507 0.170290
vt 0.792288 0.001992
vt 0.805507 0.001992
vt 0.792288 0.267457
vt 0.805507 0.267457
vt 0.792288 0.338588
vt 0.805507 0.338588
vt 0.812885 0.170290
vt 0.812885 0.073123
vt 0.826105 0.073123
vt 0.826105 0.170290
vt 0.812885 0.001992
vt 0.826105 0.001992
vt 0.812885 0.267457
vt 0.826105 0.267457
vt 0.812885 0.338588
vt 0.826105 0.338588
vt 0.345944 0.766775
vt 0.383699 0.804530
vt 0.294370 0.856104
vt 0.397519 0.856104
vt 0.294370 0.752956
vt 0.383699 0.907678
vt 0.294370 0.714200
vt 0.365322 0.733212
vt 0.242796 0.766775
vt 0.345944 0.945433
vt 0.223418 0.733212
vt 0.205041 0.804530
vt 0.294370 0.959253
vt 0.191222 0.856104
vt 0.365322 0.978997
vt 0.294370 0.998008
vt 0.242796 0.945433
vt 0.205041 0.907678
vt 0.223418 0.978997
vt 0.922946 0.592091
vt 0.894541 0.620496
vt 0.855740 0.553289
vt 0.958848 0.612819
vt 0.915270 0.656398
vt 0.855740 0.630893
vt 0.933343 0.553289
vt 0.855740 0.672349
vt 0.816938 0.620496
vt 0.922946 0.514488
vt 0.935137 0.690809
vt 0.855740 0.712084
vt 0.796210 0.656398
vt 0.788533 0.592091
vt 0.894541 0.486083
vt 0.776343 0.690809
vt 0.752631 0.612819
vt 0.778136 0.553289
vt 0.915270 0.450181
vt 0.958848 0.493759
vt 0.855740 0.475686
vt 0.788533 0.514488
vt 0.855740 0.434230
vt 0.816938 0.486083
vt 0.855740 0.394495
vt 0.935137 0.415769
vt 0.796210 0.450181
vt 0.752631 0.493759
vt 0.776343 0.415769
vt 0.354183 0.287510
vt 0.287432 0.354261
vt 0.282582 0.345862
vt 0.345783 0.282660
vt 0.364546 0.293493
vt 0.293415 0.364624
vt 0.196248 0.378694
vt 0.196248 0.368995
vt 0.378616 0.196326
vt 0.368917 0.196326
vt 0.390582 0.196326
vt 0.196248 0.390660
vt 0.105064 0.354261
vt 0.109913 0.345862
vt 0.354183 0.105142
vt 0.345783 0.109992
vt 0.364546 0.099159
vt 0.099081 0.364624
vt 0.038313 0.287510
vt 0.046712 0.282660
vt 0.287432 0.038391
vt 0.282582 0.046790
vt 0.293415 0.028028
vt 0.027950 0.293493
vt 0.013880 0.196326
vt 0.023579 0.196326
vt 0.196248 0.013958
vt 0.196248 0.023657
vt 0.196248 0.001992
vt 0.001914 0.196326
vt 0.038313 0.105142
vt 0.046712 0.109992
vt 0.105064 0.038391
vt 0.109913 0.046790
vt 0.099081 0.028028
vt 0.027950 0.099159
vt 0.773896 0.196326
vt 0.749464 0.105142
vt 0.759827 0.099159
vt 0.785862 0.196326
vt 0.682712 0.038391
vt 0.688695 0.028028
vt 0.749464 0.287510
vt 0.759827 0.293493
vt 0.591528 0.013958
vt 0.591528 0.001992
vt 0.682712 0.354261
vt 0.688695 0.364624
vt 0.500345 0.038391
vt 0.494361 0.028028
vt 0.591528 0.378694
vt 0.591528 0.390660
vt 0.433593 0.105142
vt 0.423230 0.099159
vt 0.500345 0.354261
vt 0.494361 0.364624
vt 0.409161 0.196326
vt 0.397194 0.196326
vt 0.433593 0.287510
vt 0.423230 0.293493
vt 0.445879 0.805384
vt 0.445879 0.734432
vt 0.504730 0.717809
vt 0.504730 0.805384
vt 0.559657 0.714200
vt 0.559657 0.805384
vt 0.445879 0.876336
vt 0.504730 0.892960
vt 0.579487 0.714200
vt 0.579487 0.805384
vt 0.559657 0.896568
vt 0.579487 0.896568
vt 0.719923 0.805384
vt 0.719923 0.876336
vt 0.661072 0.892960
vt 0.661072 0.805384
vt 0.606144 0.896568
vt 0.606144 0.805384
vt 0.719923 0.734432
vt 0.661072 0.717809
vt 0.586315 0.896568
vt 0.586315 0.805384
vt 0.606144 0.714200
vt 0.586315 0.714200
vt 0.815444 0.715918
vt 0.815444 0.802253
vt 0.781829 0.802253
vt 0.781829 0.715918
vt 0.815444 0.888587
vt 0.781829 0.888587
vt 0.726751 0.802253
vt 0.726751 0.722856
vt 0.726751 0.881650
vt 0.822247 0.888587
vt 0.822247 0.802253
vt 0.855863 0.802253
vt 0.855863 0.888587
vt 0.822247 0.715918
vt 0.855863 0.715918
vt 0.910941 0.802253
vt 0.910941 0.881650
vt 0.910941 0.722856
vt 0.404684 0.811367
vt 0.404684 0.714200
vt 0.417904 0.714200
vt 0.417904 0.811367
vt 0.404684 0.908534
vt 0.417904 0.908534
vt 0.438501 0.811367
vt 0.438501 0.908534
vt 0.425282 0.908534
vt 0.425282 0.811367
vt 0.438501 0.714200
vt 0.425282 0.714200
vn 0.530566 -0.661059 -0.530566
vn 0.530566 -0.661059 -0.530566
vn 0.574852 -0.582315 -0.574852
vn 0.574852 -0.582315 -0.574852
vn 0.194201 -0.661059 -0.724767
vn 0.194201 -0.661059 -0.724767
vn 0.210410 -0.582315 -0.785262
vn 0.210410 -0.582315 -0.785262
vn -0.194201 -0.661059 -0.724767
vn -0.194201 -0.661059 -0.724767
vn -0.210410 -0.582315 -0.785262
vn -0.210410 -0.582315 -0.785262
vn -0.530566 -0.661059 -0.530566
vn -0.530566 -0.661059 -0.530566
vn -0.574852 -0.582315 -0.574852
vn -0.574852 -0.582315 -0.574852
vn -0.724767 -0.661059 -0.194201
vn -0.724767 -0.661059 -0.194201
vn -0.785262 -0.582315 -0.210410
vn -0.785262 -0.582315 -0.210410
vn -0.724767 -0.661059 0.194201
vn -0.724767 -0.661059 0.194201
vn -0.785262 -0.582315 0.210410
vn -0.785262 -0.582315 0.210410
vn -0.530566 -0.661059 0.530566
vn -0.530566 -0.661059 0.530566
vn -0.574852 -0.582315 0.574852
vn -0.574852 -0.582315 0.574852
vn -0.194201 -0.661059 0.724767
vn -0.194201 -0.661059 0.724767
vn -0.210410 -0.582315 0.785262
vn -0.210410 -0.582315 0.785262
vn 0.194201 -0.661059 0.724767
vn 0.194201 -0.661059 0.724767
vn 0.210410 -0.582315 0.785262
vn 0.210410 -0.582315 0.785262
vn 0.530566 -0.661059 0.530566
vn 0.530566 -0.661059 0.530566
vn 0.574852 -0.582315 0.574852
vn 0.574852 -0.582315 0.574852
vn 0.724767 -0.661059 0.194201
vn 0.724767 -0.661059 0.194201
vn 0.785262 -0.582315 0.210410
vn 0.785262 -0.582315 0.210410
vn 0.724767 -0.661059 -0.194201
vn 0.724767 -0.661059 -0.194201
vn 0.785262 -0.582315 -0.210410
vn 0.785262 -0.582315 -0.210410
vn 0.000000 -1.000000 0.000000
vn 0.000000 -1.000000 0.000000
vn 0.000000 -1.000000 0.000000
vn 0.000000 -1.000000 0.000000
vn 0.000000 -1.000000 0.000000
vn 0.000000 -1.000000 0.000000
vn 0.000000 -1.000000 0.000000
vn 0.000000 -1.000000 0.000000
vn 0.000000 -1.000000 0.000000
vn 0.000000 -1.000000 0.000000
vn 0.000000 -1.000000 0.000000
vn 0.000000 -1.000000 0.000000
vn 0.000000 -1.000000 0.000000
vn 0.000000 1.000000 0.000000
vn -0.000000 1.000000 -0.000000
vn 0.000000 1.000000 0.000000
vn 0.000000 1.000000 -0.000000
vn 0.000000 1.000000 -0.000000
vn 0.000000 1.000000 0.000000
vn 0.000000 1.000000 0.000000
vn 0.000000 1.000000 0.000000
vn 0.000000 1.000000 0.000000
vn 0.000000 1.000000 0.000000
vn -0.000000 1.000000 0.000000
vn 0.000000 1.000000 0.000000
vn 0.000000 1.000000 0.000000
vn 0.906599 -0.345062 -0.242922
vn 0.906599 -0.345062 -0.242922
vn 0.906599 -0.345062 0.242923
vn 0.906599 -0.345062 0.242922
vn 0.663676 -0.345062 0.663676
vn 0.663676 -0.345062 0.663676
vn 0.242922 -0.345062 0.906599
vn 0.242922 -0.345062 0.906599
vn -0.242922 -0.345062 0.906599
vn -0.242922 -0.345062 0.906599
vn -0.663676 -0.345062 0.663676
vn -0.663676 -0.345062 0.663676
vn -0.906599 -0.345062 0.242922
vn -0.906599 -0.345062 0.242922
vn -0.906599 -0.345062 -0.242923
vn -0.906599 -0.345062 -0.242922
vn -0.663676 -0.345062 -0.663676
vn -0.663676 -0.345062 -0.663676
vn -0.242922 -0.345062 -0.906599
vn -0.242922 -0.345062 -0.906599
vn 0.242922 -0.345062 -0.906599
vn 0.242922 -0.345062 -0.906599
vn 0.663676 -0.345062 -0.663676
vn 0.663676 -0.345062 -0.663676
vn 0.960512 -0.105730 -0.257369
vn 0.960512 -0.105730 -0.257369
vn 0.960512 -0.105730 0.257369
vn 0.960512 -0.105730 0.257369
vn 0.703143 -0.105731 0.703143
vn 0.703143 -0.105731 0.703143
vn 0.257369 -0.105731 0.960512
vn 0.257369 -0.105731 0.960512
vn -0.257369 -0.105731 0.960512
vn -0.257369 -0.105731 0.960512
vn -0.703143 -0.105731 0.703143
vn -0.703143 -0.105731 0.703143
vn -0.960512 -0.105730 0.257369
vn -0.960512 -0.105730 0.257369
vn -0.960512 -0.105730 -0.257369
vn -0.960512 -0.105730 -0.257369
vn -0.703143 -0.105731 -0.703143
vn -0.703143 -0.105731 -0.703143
vn -0.257369 -0.105731 -0.960512
vn -0.257369 -0.105731 -0.960512
vn 0.257369 -0.105731 -0.960512
vn 0.257369 -0.105731 -0.960512
vn 0.703143 -0.105731 -0.703143
vn 0.703143 -0.105731 -0.703143
vn 0.965926 0.000000 -0.258819
vn 0.965926 0.000000 -0.258819
vn 0.965926 0.000000 0.258819
vn 0.965926 0.000000 0.258819
vn 0.707107 0.000000 0.707107
vn 0.707107 0.000000 0.707107
vn 0.258819 0.000000 0.965926
vn 0.258819 0.000000 0.965926
vn -0.258819 0.000000 0.965926
vn -0.258819 0.000000 0.965926
vn -0.707107 0.000000 0.707107
vn -0.707107 0.000000 0.707107
vn -0.965926 0.000000 0.258819
vn -0.965926 0.000000 0.258819
vn -0.965926 0.000000 -0.258819
vn -0.965926 0.000000 -0.258819
vn -0.707107 0.000000 -0.707107
vn -0.707107 0.000000 -0.707107
vn -0.258819 0.000000 -0.965926
vn -0.258819 0.000000 -0.965926
vn 0.258819 0.000000 -0.965926
vn 0.258819 0.000000 -0.965926
vn 0.707107 0.000000 -0.707107
vn 0.707107 0.000000 -0.707107
vn 0.000000 1.000000 -0.000000
vn 0.000000 1.000000 0.000000
vn 0.000000 1.000000 0.000000
vn 0.000000 1.000000 0.000000
vn 0.000000 1.000000 0.000001
vn 0.000000 1.000000 -0.000000
vn 0.000000 1.000000 -0.000000
vn 0.000000 1.000000 0.000000
vn 0.000000 1.000000 0.000000
vn 0.000000 1.000000 0.000000
vn 0.000000 1.000000 -0.000000
vn 0.000000 1.000000 0.000000
vn 0.000000 1.000000 0.000000
vn 0.000000 1.000000 0.000000
vn 0.000000 1.000000 0.000000
vn 0.000000 1.000000 0.000000
vn 0.000000 1.000000 0.000000
vn 0.000000 1.000000 0.000000
vn 0.000000 1.000000 0.000000
vn 0.000000 1.000000 -0.000000
vn 0.000000 1.000000 -0.000000
vn 0.000000 1.000000 -0.000000
vn 0.000000 1.000000 -0.000001
vn 0.000000 1.000000 0.000000
vn 0.000000 1.000000 0.000000
vn 0.000000 1.000000 -0.000000
vn 0.000000 1.000000 0.000000
vn 0.000000 1.000000 0.000000
vn 0.000000 1.000000 0.000000
vn 0.000000 1.000000 -0.000000
vn 0.000000 1.000000 -0.000000
vn 0.000000 1.000000 -0.000000
vn 0.000000 1.000000 0.000000
vn 0.000000 1.000000 0.000000
vn 0.000000 1.000000 -0.000000
vn 0.000000 1.000000 -0.000000
vn -0.707107 0.000000 0.707107
vn -0.707107 0.000000 0.707107
vn -0.697276 0.166173 0.697275
vn -0.697276 0.166173 0.697275
vn -0.258819 0.000000 0.965926
vn -0.258819 0.000000 0.965926
vn -0.255221 0.166174 0.952496
vn -0.255221 0.166174 0.952496
vn 0.258819 0.000000 0.965926
vn 0.258819 0.000000 0.965926
vn 0.255221 0.166174 0.952496
vn 0.255221 0.166174 0.952496
vn 0.707107 0.000000 0.707107
vn 0.707107 0.000000 0.707107
vn 0.697276 0.166174 0.697275
vn 0.697276 0.166174 0.697275
vn 0.965926 0.000000 0.258819
vn 0.965926 0.000000 0.258819
vn 0.952496 0.166174 0.255221
vn 0.952496 0.166174 0.255221
vn 0.965926 0.000000 -0.258819
vn 0.965926 0.000000 -0.258819
vn 0.952496 0.166174 -0.255221
vn 0.952496 0.166174 -0.255221
vn 0.707107 0.000000 -0.707107
vn 0.707107 0.000000 -0.707107
vn 0.697276 0.166173 -0.697275
vn 0.697276 0.166173 -0.697275
vn 0.258819 0.000000 -0.965926
vn 0.258819 0.000000 -0.965926
vn 0.255221 0.166174 -0.952496
vn 0.255221 0.166174 -0.952496
vn -0.258819 0.000000 -0.965926
vn -0.258819 0.000000 -0.965926
vn -0.255221 0.166174 -0.952496
vn -0.255221 0.166174 -0.952496
vn -0.707107 0.000000 -0.707107
vn -0.707107 0.000000 -0.707107
vn -0.697276 0.166174 -0.697275
vn -0.697276 0.166174 -0.697275
vn -0.965926 0.000000 -0.258819
vn -0.965926 0.000000 -0.258819
vn -0.952496 0.166174 -0.255221
vn -0.952496 0.166174 -0.255221
vn -0.965926 0.000000 0.258819
vn -0.965926 0.000000 0.258819
vn -0.952496 0.166174 0.255221
vn -0.952496 0.166174 0.255221
vn -0.635230 0.439278 0.635230
vn -0.635230 0.439278 0.635230
vn -0.232510 0.439278 0.867741
vn -0.232510 0.439278 0.867741
vn 0.232510 0.439278 0.867741
vn 0.232510 0.439278 0.867741
vn 0.635230 0.439278 0.635230
vn 0.635230 0.439278 0.635230
vn 0.867741 0.439278 0.232510
vn 0.867741 0.439278 0.232510
vn 0.867741 0.439278 -0.232510
vn 0.867741 0.439278 -0.232510
vn 0.635230 0.439278 -0.635230
vn 0.635230 0.439278 -0.635230
vn 0.232510 0.439278 -0.867741
vn 0.232510 0.439278 -0.867741
vn -0.232510 0.439278 -0.867741
vn -0.232510 0.439278 -0.867741
vn -0.635230 0.439278 -0.635230
vn -0.635230 0.439278 -0.635230
vn -0.867741 0.439278 -0.232510
vn -0.867741 0.439278 -0.232510
vn -0.867741 0.439278 0.232510
vn -0.867741 0.439278 0.232510
vn -0.561922 0.607032 0.561922
vn -0.561922 0.607032 0.561922
vn -0.205678 0.607032 0.767600
vn -0.205678 0.607032 0.767600
vn 0.205678 0.607032 0.767599
vn 0.205678 0.607032 0.767599
vn 0.561922 0.607032 0.561922
vn 0.561922 0.607032 0.561922
vn 0.767600 0.607032 0.205678
vn 0.767600 0.607032 0.205678
vn 0.767600 0.607032 -0.205678
vn 0.767600 0.607032 -0.205678
vn 0.561922 0.607032 -0.561922
vn 0.561922 0.607032 -0.561922
vn 0.205678 0.607032 -0.767600
vn 0.205678 0.607032 -0.767600
vn -0.205678 0.607032 -0.767599
vn -0.205678 0.607032 -0.767599
vn -0.561922 0.607032 -0.561922
vn -0.561922 0.607032 -0.561922
vn -0.767600 0.607032 -0.205678
vn -0.767600 0.607032 -0.205678
vn -0.767600 0.607032 0.205678
vn -0.767600 0.607032 0.205678
vn -0.434970 0.788417 0.434970
vn -0.434970 0.788417 0.434970
vn -0.434970 0.788417 0.434970
vn -0.434970 0.788417 0.434970
vn -0.159211 0.788417 0.594181
vn -0.159211 0.788417 0.594181
vn -0.159211 0.788417 0.594181
vn -0.159211 0.788417 0.594181
vn 0.159210 0.788417 0.594181
vn 0.159210 0.788417 0.594181
vn 0.159210 0.788417 0.594181
vn 0.159210 0.788417 0.594181
vn 0.434970 0.788417 0.434970
vn 0.434970 0.788417 0.434970
vn 0.434971 0.788417 0.434971
vn 0.434971 0.788417 0.434971
vn 0.594181 0.788417 0.159210
vn 0.594181 0.788417 0.159210
vn 0.594181 0.788417 0.159210
vn 0.594181 0.788417 0.159210
vn 0.594181 0.788417 -0.159210
vn 0.594181 0.788417 -0.159210
vn 0.594181 0.788417 -0.159210
vn 0.594181 0.788417 -0.159210
vn 0.434970 0.788417 -0.434970
vn 0.434970 0.788417 -0.434970
vn 0.434970 0.788417 -0.434970
vn 0.434970 0.788417 -0.434970
vn 0.159211 0.788417 -0.594181
vn 0.159211 0.788417 -0.594181
vn 0.159211 0.788417 -0.594181
vn 0.159211 0.788417 -0.594181
vn -0.159210 0.788417 -0.594181
vn -0.159210 0.788417 -0.594181
vn -0.159210 0.788417 -0.594181
vn -0.159210 0.788417 -0.594181
vn -0.434970 0.788417 -0.434970
vn -0.434970 0.788417 -0.434970
vn -0.434971 0.788417 -0.434971
vn -0.434971 0.788417 -0.434971
vn -0.594181 0.788417 -0.159210
vn -0.594181 0.788417 -0.159210
vn -0.594181 0.788417 -0.159210
vn -0.594181 0.788417 -0.159210
vn -0.594181 0.788417 0.159210
vn -0.594181 0.788417 0.159210
vn -0.594181 0.788417 0.159210
vn -0.594181 0.788417 0.159210
vn 0.965926 0.000000 -0.258819
vn 0.965926 0.000000 -0.258819
vn 0.965926 0.000000 -0.258819
vn 0.965926 0.000000 -0.258819
vn 0.965926 0.000000 0.258819
vn 0.965926 0.000000 0.258819
vn 0.965926 0.000000 0.258819
vn 0.965926 0.000000 0.258819
vn 0.707107 0.000000 0.707107
vn 0.707107 0.000000 0.707107
vn 0.707107 0.000000 0.707107
vn 0.707107 0.000000 0.707107
vn 0.258819 0.000000 0.965926
vn 0.258819 0.000000 0.965926
vn 0.258819 0.000000 0.965926
vn 0.258819 0.000000 0.965926
vn -0.258819 0.000000 0.965926
vn -0.258819 0.000000 0.965926
vn -0.258819 0.000000 0.965926
vn -0.258819 0.000000 0.965926
vn -0.707107 0.000000 0.707107
vn -0.707107 0.000000 0.707107
vn -0.707107 0.000000 0.707107
vn -0.707107 0.000000 0.707107
vn -0.965926 0.000000 0.258819
vn -0.965926 0.000000 0.258819
vn -0.965926 0.000000 0.258819
vn -0.965926 0.000000 0.258819
vn -0.965926 0.000000 -0.258819
vn -0.965926 0.000000 -0.258819
vn -0.965926 0.000000 -0.258819
vn -0.965926 0.000000 -0.258819
vn -0.707107 0.000000 -0.707107
vn -0.707107 0.000000 -0.707107
vn -0.707107 0.000000 -0.707107
vn -0.707107 0.000000 -0.707107
vn -0.258819 0.000000 -0.965926
vn -0.258819 0.000000 -0.965926
vn -0.258819 0.000000 -0.965926
vn -0.258819 0.000000 -0.965926
vn 0.258819 0.000000 -0.965926
vn 0.258819 0.000000 -0.965926
vn 0.258819 0.000000 -0.965926
vn 0.258819 0.000000 -0.965926
vn 0.707107 0.000000 -0.707107
vn 0.707107 0.000000 -0.707107
vn 0.707107 0.000000 -0.707107
vn 0.707107 0.000000 -0.707107
vn 0.000000 -1.000000 -0.000000
vn 0.000000 -1.000000 -0.000000
vn 0.000000 -1.000000 -0.000000
vn 0.000000 -1.000000 -0.000000
vn 0.000000 1.000000 -0.000000
vn 0.000000 1.000000 -0.000000
vn 0.000000 -1.000000 0.000000
vn 0.000000 -1.000000 0.000000
vn 0.000000 1.000000 0.000000
vn 0.000000 -1.000000 0.000001
vn 0.000000 -1.000000 0.000001
vn 0.000000 1.000000 -0.000000
vn 0.000000 -1.000000 0.000001
vn 0.000000 -1.000000 0.000001
vn 0.000000 1.000000 -0.000001
vn 0.000000 -1.000000 0.000000
vn 0.000000 -1.000000 0.000000
vn 0.000000 1.000000 -0.000001
vn 0.000000 -1.000000 0.000000
vn 0.000000 -1.000000 0.000000
vn 0.000000 1.000000 0.000000
vn 0.000000 -1.000000 0.000000
vn 0.000000 -1.000000 0.000000
vn 0.000000 1.000000 0.000000
vn 0.000000 -1.000000 -0.000000
vn 0.000000 -1.000000 -0.000000
vn 0.000000 1.000000 -0.000000
vn 0.000000 -1.000000 -0.000001
vn 0.000000 -1.000000 -0.000001
vn 0.000000 1.000000 0.000000
vn 0.000000 -1.000000 -0.000001
vn 0.000000 -1.000000 -0.000001
vn 0.000000 1.000000 0.000001
vn 0.000000 -1.000000 -0.000000
vn 0.000000 -1.000000 -0.000000
vn 0.000000 1.000000 0.000001
s 1
g pCylinder15
usemtl initialShadingGroup
f 1/6/1 2/13/2 37/7/3 26/2/4
s 2
f 2/117/5 3/121/6 36/123/7 37/124/8
s 3
f 3/121/9 4/125/10 35/127/11 36/123/12
s 4
f 4/46/13 5/39/14 34/36/15 35/44/16
s 5
f 5/39/17 6/30/18 33/26/19 34/36/20
s 6
f 6/30/21 7/31/22 32/27/23 33/26/24
s 7
f 7/31/25 8/38/26 31/32/27 32/27/28
s 8
f 8/133/29 9/129/30 30/132/31 31/135/32
s 9
f 9/129/33 10/126/34 29/131/35 30/132/36
s 10
f 10/21/37 11/14/38 28/11/39 29/19/40
s 11
f 11/14/41 12/5/42 27/1/43 28/11/44
s 12
f 12/5/45 1/6/46 26/2/47 27/1/48
s 13
f 2/117/49 1/118/50 25/119/51
f 3/121/52 2/117/49 25/119/51
f 4/125/53 3/121/52 25/119/51
f 5/128/54 4/125/53 25/119/51
f 6/130/55 5/128/54 25/119/51
f 7/134/56 6/130/55 25/119/51
f 8/133/57 7/134/56 25/119/51
f 9/129/58 8/133/57 25/119/51
f 10/126/59 9/129/58 25/119/51
f 11/122/60 10/126/59 25/119/51
f 12/120/61 11/122/60 25/119/51
f 1/118/50 12/120/61 25/119/51
s 14
f 110/136/62 111/137/63 112/138/64
f 111/137/63 113/141/65 112/138/64
f 113/141/65 114/144/66 112/138/64
f 114/144/66 115/149/67 112/138/64
f 115/149/67 116/153/68 112/138/64
f 116/153/68 117/157/69 112/138/64
f 117/157/69 118/159/70 112/138/64
f 118/159/70 119/156/71 112/138/64
f 119/156/71 120/150/72 112/138/64
f 120/150/72 121/145/73 112/138/64
f 121/145/73 122/142/74 112/138/64
f 122/142/74 110/136/62 112/138/64
s 12
f 27/1/48 26/2/47 38/3/75 39/4/76
s 11
f 28/11/44 27/1/43 39/4/77 40/12/78
s 10
f 29/19/40 28/11/39 40/12/79 41/20/80
s 9
f 30/225/36 29/226/35 41/227/81 42/228/82
s 8
f 31/231/32 30/225/31 42/228/83 43/232/84
s 7
f 32/27/28 31/32/27 43/33/85 44/28/86
s 6
f 33/26/24 32/27/23 44/28/87 45/29/88
s 5
f 34/36/20 33/26/19 45/29/89 46/37/90
s 4
f 35/44/16 34/36/15 46/37/91 47/45/92
s 3
f 36/237/12 35/238/11 47/239/93 48/240/94
s 2
f 37/243/8 36/237/7 48/240/95 49/244/96
s 1
f 26/2/4 37/7/3 49/8/97 38/3/98
s 12
f 39/4/76 38/3/75 50/9/99 51/10/100
s 11
f 40/12/78 39/4/77 51/10/101 52/18/102
s 10
f 41/20/80 40/12/79 52/18/103 53/24/104
s 9
f 42/228/82 41/227/81 53/229/105 54/230/106
s 8
f 43/232/84 42/228/83 54/230/107 55/235/108
s 7
f 44/28/86 43/33/85 55/40/109 56/34/110
s 6
f 45/29/88 44/28/87 56/34/111 57/35/112
s 5
f 46/37/90 45/29/89 57/35/113 58/43/114
s 4
f 47/45/92 46/37/91 58/43/115 59/49/116
s 3
f 48/240/94 47/239/93 59/241/117 60/242/118
s 2
f 49/244/96 48/240/95 60/242/119 61/247/120
s 1
f 38/3/98 49/8/97 61/15/121 50/9/122
s 12
f 51/10/100 50/9/99 123/16/123 124/17/124
s 11
f 52/18/102 51/10/101 124/17/125 125/23/126
s 10
f 53/24/104 52/18/103 125/23/127 126/25/128
s 9
f 54/230/106 53/229/105 126/233/129 127/234/130
s 8
f 55/235/108 54/230/107 127/234/131 128/236/132
s 7
f 56/34/110 55/40/109 128/47/133 129/41/134
s 6
f 57/35/112 56/34/111 129/41/135 130/42/136
s 5
f 58/43/114 57/35/113 130/42/137 131/48/138
s 4
f 59/49/116 58/43/115 131/48/139 132/50/140
s 3
f 60/242/118 59/241/117 132/245/141 133/246/142
s 2
f 61/247/120 60/242/119 133/246/143 134/248/144
s 1
f 50/9/122 61/15/121 134/22/145 123/16/146
s 15
f 13/165/147 14/166/148 63/167/149 62/168/150
f 14/166/148 15/171/151 64/172/152 63/167/153
f 15/171/151 16/177/154 65/178/155 64/172/156
f 16/177/154 17/183/157 66/184/158 65/178/159
f 17/183/157 18/189/160 67/190/161 66/184/162
f 18/189/160 19/195/163 68/196/164 67/190/165
f 19/195/163 20/197/166 69/198/167 68/196/168
f 20/197/166 21/191/169 70/192/170 69/198/171
f 21/191/169 22/185/172 71/186/173 70/192/174
f 22/185/172 23/179/175 72/180/176 71/186/177
f 23/179/175 24/173/178 73/174/179 72/180/180
f 24/173/178 13/165/147 62/168/181 73/174/182
s 27
f 62/78/183 63/84/184 75/85/185 74/79/186
s 28
f 63/249/187 64/250/188 76/251/189 75/252/190
s 29
f 64/250/191 65/253/192 77/254/193 76/251/194
s 30
f 65/59/195 66/51/196 78/54/197 77/60/198
s 31
f 66/51/199 67/52/200 79/53/201 78/54/202
s 32
f 67/52/203 68/55/204 80/56/205 79/53/206
s 33
f 68/55/207 69/61/208 81/62/209 80/56/210
s 34
f 69/258/211 70/259/212 82/260/213 81/261/214
s 35
f 70/259/215 71/262/216 83/263/217 82/260/218
s 36
f 71/82/219 72/74/220 84/77/221 83/83/222
s 37
f 72/74/223 73/75/224 85/76/225 84/77/226
s 38
f 73/75/227 62/78/228 74/79/229 85/76/230
s 27
f 74/79/186 75/85/185 87/90/231 86/86/232
s 28
f 75/252/190 76/251/189 88/255/233 87/256/234
s 29
f 76/251/194 77/254/193 89/257/235 88/255/236
s 30
f 77/60/198 78/54/197 90/58/237 89/66/238
s 31
f 78/54/202 79/53/201 91/57/239 90/58/240
s 32
f 79/53/206 80/56/205 92/63/241 91/57/242
s 33
f 80/56/210 81/62/209 93/67/243 92/63/244
s 34
f 81/261/214 82/260/213 94/264/245 93/265/246
s 35
f 82/260/218 83/263/217 95/266/247 94/264/248
s 36
f 83/83/222 84/77/221 96/81/249 95/89/250
s 37
f 84/77/226 85/76/225 97/80/251 96/81/252
s 38
f 85/76/230 74/79/229 86/86/253 97/80/254
s 27
f 86/86/232 87/90/231 99/95/255 98/91/256
s 28
f 87/146/234 88/147/233 100/143/257 99/140/258
s 29
f 88/147/236 89/151/235 101/148/259 100/143/260
s 30
f 89/66/238 90/58/237 102/65/261 101/71/262
s 31
f 90/58/240 91/57/239 103/64/263 102/65/264
s 32
f 91/57/242 92/63/241 104/68/265 103/64/266
s 33
f 92/63/244 93/67/243 105/72/267 104/68/268
s 34
f 93/164/246 94/160/245 106/158/269 105/162/270
s 35
f 94/160/248 95/161/247 107/154/271 106/158/272
s 36
f 95/89/250 96/81/249 108/88/273 107/94/274
s 37
f 96/81/252 97/80/251 109/87/275 108/88/276
s 38
f 97/80/254 86/86/253 98/91/277 109/87/278
s off
f 98/139/279 99/140/280 111/137/281 110/136/282
f 99/140/283 100/143/284 113/141/285 111/137/286
f 100/143/287 101/148/288 114/144/289 113/141/290
f 101/148/291 102/152/292 115/149/293 114/144/294
f 102/65/295 103/64/296 116/69/297 115/70/298
f 103/64/299 104/68/300 117/73/301 116/69/302
f 104/163/303 105/162/304 118/159/305 117/157/306
f 105/162/307 106/158/308 119/156/309 118/159/310
f 106/158/311 107/154/312 120/150/313 119/156/314
f 107/154/315 108/155/316 121/145/317 120/150/318
f 108/88/319 109/87/320 122/92/321 121/93/322
f 109/87/323 98/91/324 110/96/325 122/92/326
f 136/97/327 135/98/328 137/99/329 138/100/330
f 139/103/331 136/97/332 138/100/333 140/104/334
f 141/105/335 139/103/336 140/104/337 142/106/338
f 143/267/339 141/268/340 142/269/341 144/270/342
f 145/271/343 143/267/344 144/270/345 146/272/346
f 147/108/347 145/111/348 146/112/349 148/109/350
f 149/107/351 147/108/352 148/109/353 150/110/354
f 151/113/355 149/107/356 150/110/357 152/114/358
f 153/115/359 151/113/360 152/114/361 154/116/362
f 155/273/363 153/274/364 154/275/365 156/276/366
f 157/277/367 155/273/368 156/276/369 158/278/370
f 135/98/371 157/101/372 158/102/373 137/99/374
s 39
f 124/201/375 123/202/376 135/203/377 136/204/378
s 15
f 13/165/147 24/173/178 138/175/379 137/169/380
s 39
f 125/207/381 124/201/375 136/204/378 139/208/382
s 15
f 24/173/178 23/179/175 140/181/383 138/175/379
s 39
f 126/211/384 125/207/381 139/208/382 141/212/385
s 15
f 23/179/175 22/185/172 142/187/386 140/181/383
s 39
f 127/215/387 126/211/384 141/212/385 143/216/388
s 15
f 22/185/172 21/191/169 144/193/389 142/187/386
s 39
f 128/219/390 127/215/387 143/216/388 145/220/391
s 15
f 21/191/169 20/197/166 146/199/392 144/193/389
s 39
f 129/223/393 128/219/390 145/220/391 147/224/394
s 15
f 20/197/166 19/195/163 148/200/395 146/199/392
s 39
f 130/221/396 129/223/393 147/224/394 149/222/397
s 15
f 19/195/163 18/189/160 150/194/398 148/200/395
s 39
f 131/217/399 130/221/396 149/222/397 151/218/400
s 15
f 18/189/160 17/183/157 152/188/401 150/194/398
s 39
f 132/213/402 131/217/399 151/218/400 153/214/403
s 15
f 17/183/157 16/177/154 154/182/404 152/188/401
s 39
f 133/209/405 132/213/402 153/214/403 155/210/406
s 15
f 16/177/154 15/171/151 156/176/407 154/182/404
s 39
f 134/205/408 133/209/405 155/210/406 157/206/409
s 15
f 15/171/151 14/166/148 158/170/410 156/176/407
s 39
f 123/202/376 134/205/408 157/206/409 135/203/377
s 15
f 14/166/148 13/165/147 137/169/380 158/170/410
