# This file uses centimeters as units for non-parametric coordinates.

mtllib rice cooked no bowl.mtl
g default
v 6.324888 5.079052 -3.651676
v 3.651676 5.079053 -6.324888
v 0.000000 5.079052 -7.303349
v -3.651676 5.079052 -6.324888
v -6.324888 5.079052 -3.651675
v -7.303353 5.079052 0.000001
v -6.324888 5.079053 3.651676
v -3.651675 5.079053 6.324888
v 0.000000 5.079053 7.303353
v 3.651676 5.079052 6.324888
v 6.324888 5.079053 3.651676
v 7.303352 5.079052 0.000001
v -0.000000 9.599496 0.000001
v 5.314128 7.453452 -3.068113
v 2.577615 9.152795 -1.488186
v 1.488187 9.402699 -2.577614
v 3.068113 7.127818 -5.314127
v -0.000000 9.152795 -2.976372
v -0.000000 7.453452 -6.136226
v -1.488187 9.152795 -2.577614
v -3.068114 7.017829 -5.314127
v -2.135995 9.152795 -1.488186
v -5.314128 7.029670 -3.068112
v -2.976376 9.152795 0.000001
v -6.136229 7.453452 0.000001
v -2.577615 9.402699 1.488188
v -5.314128 7.453452 3.068114
v -1.488187 9.402699 2.577616
v -3.068113 7.453452 5.314128
v -0.000000 9.152795 2.976376
v -0.000000 6.445952 6.136230
v 1.488187 9.152795 2.577617
v 3.068114 7.715088 5.314128
v 2.577615 9.152795 1.488188
v 5.314128 6.643688 3.068114
v 2.976375 9.402699 0.000001
v 6.136227 7.453452 0.000001
v 4.766826 7.793321 -2.105052
v 5.504257 7.793321 0.000001
v 4.766826 7.793321 2.752129
v 2.752128 7.560086 4.766827
v -0.000000 7.793321 5.504259
v -2.752128 8.157512 4.766827
v -4.766826 7.683978 2.752129
v -5.504258 8.138871 0.000001
v -4.766826 7.793321 -2.752127
v -2.752128 7.793321 -4.766826
v -0.000000 7.560086 -5.504255
v 2.752128 7.793322 -4.766826
v 4.745892 8.546714 0.000001
v 3.761258 8.012007 -2.864506
v 2.372946 8.201163 -4.110062
v -0.000000 8.618424 -4.745891
v -2.372946 8.201163 -4.110062
v -4.110063 7.967929 -1.732234
v -4.745893 8.201163 0.000001
v -3.710901 8.695241 2.664096
v -1.822590 8.201163 4.269752
v -0.000000 7.967929 4.745894
v 2.372946 8.201163 4.110064
v 4.110063 8.201163 2.372947
v 4.038085 8.581816 0.000001
v 3.497084 8.581816 -2.019042
v 2.019042 8.581816 -3.497083
v -0.000000 8.927366 -4.038083
v -2.019042 8.581816 -3.497083
v -3.497084 8.581816 -2.019041
v -4.038086 8.927366 0.000001
v -3.497084 8.581816 2.019043
v -2.019042 8.348582 3.497084
v -0.000000 8.581816 4.038088
v 2.019042 8.927366 3.497085
v 3.497084 8.581816 2.019043
v 3.401059 8.924403 0.000001
v 2.945403 8.924403 -1.700529
v 1.700530 8.924403 -2.945402
v -0.000000 8.924403 -3.401057
v -1.700530 8.924403 -2.945401
v -2.945403 9.148078 -1.054991
v -3.401060 8.924403 0.000001
v -2.945403 8.924403 1.700530
v -1.700529 8.924403 2.945403
v -0.000000 9.174308 3.401061
v 1.700530 8.924403 2.945404
v 2.945403 8.924403 1.700530
v -0.000000 9.152504 1.488189
v 0.744094 9.514562 1.288809
v 1.288808 9.152504 0.744095
v 1.488187 9.558844 0.000001
v 1.288808 9.421759 -0.744093
v 0.744094 9.277456 -1.288807
v -0.000000 9.373096 -1.488186
v -0.744094 9.152504 -1.288806
v -1.288808 9.038915 -0.744092
v -1.488188 9.152504 0.000001
v -1.288808 9.512177 0.744094
v -0.744094 9.277456 1.288809
v 6.844468 2.521565 -3.951656
v 3.951656 2.521565 -7.682943
v 0.000000 2.521565 -7.903309
v -3.951656 2.521565 -6.844468
v -7.132121 2.521565 -4.352601
v -7.903312 2.521565 0.000001
v -6.844468 2.521565 3.951656
v -3.951654 2.521565 6.844467
v 0.000000 2.521565 7.903313
v 3.951656 2.521565 6.844468
v 6.844468 2.521565 3.951656
v 8.570282 2.521565 0.000001
v 7.511439 0.000000 -3.951656
v 3.951656 0.000000 -7.682943
v 0.000000 0.000000 -8.741784
v -3.951656 0.000000 -6.844468
v -7.373339 0.000000 -4.534849
v -7.903312 0.000000 0.000001
v -6.844468 0.000000 3.951656
v -3.951654 0.000000 6.844467
v 0.000000 0.000000 7.903313
v 3.951656 0.000000 7.550027
v 6.844468 0.000000 4.657215
v 8.570282 0.000000 0.000001
v 0.000000 0.000000 0.000000
v 6.584678 3.800308 -3.801666
v 3.801666 3.800308 -6.584678
v 0.000000 3.800308 -7.603330
v -3.801666 3.800308 -6.584678
v -6.584678 3.800308 -3.801665
v -7.603333 3.800308 0.000001
v -6.584678 3.800308 3.801666
v -3.801664 3.800308 6.584678
v 0.000000 3.800308 7.603333
v 3.801666 3.800308 6.584678
v 6.584678 3.800308 3.801666
v 7.603332 3.800308 0.000001
v 7.511439 1.260782 -3.951656
v 3.951656 1.260782 -7.682943
v 0.000000 1.260782 -8.741784
v -3.951656 1.260782 -6.844468
v -7.373339 1.260782 -4.534849
v -7.903312 1.260782 0.000001
v -6.844468 1.260782 3.951656
v -3.951654 1.260782 6.844467
v 0.000000 1.260782 7.903313
v 3.951656 1.260782 7.550027
v 6.844468 1.260782 3.951656
v 8.570282 1.260782 0.000001
v 5.819508 6.266252 -3.359895
v 6.719790 6.266252 0.000001
v 5.819508 5.861370 3.359895
v 3.359895 6.397070 5.819509
v -0.000000 5.762503 6.719791
v -3.359894 6.266253 5.819508
v -5.819508 6.266253 3.359895
v -6.719790 6.266252 0.000001
v -5.819508 6.054360 -3.359894
v -3.359895 6.048440 -5.819508
v -0.000000 6.266252 -6.719788
v 3.359895 6.103436 -5.819508
vt 0.832374 0.789508
vt 0.832374 0.678263
vt 0.868541 0.678263
vt 0.862086 0.780619
vt 0.793418 0.794077
vt 0.793418 0.678263
vt 0.832374 0.567018
vt 0.868541 0.575907
vt 0.904708 0.678263
vt 0.891798 0.771730
vt 0.832374 0.870945
vt 0.861905 0.855549
vt 0.793418 0.878859
vt 0.754462 0.810861
vt 0.754462 0.678263
vt 0.793418 0.562449
vt 0.832374 0.485581
vt 0.868541 0.500977
vt 0.904708 0.584796
vt 0.925588 0.678263
vt 0.915061 0.762104
vt 0.891437 0.840153
vt 0.754462 0.886774
vt 0.716054 0.816413
vt 0.716054 0.678263
vt 0.754462 0.557880
vt 0.793418 0.477667
vt 0.904708 0.516373
vt 0.911730 0.594422
vt 0.915061 0.823480
vt 0.716054 0.886774
vt 0.677645 0.816413
vt 0.677645 0.678263
vt 0.716054 0.557880
vt 0.754462 0.469753
vt 0.677645 0.886774
vt 0.677645 0.557880
vt 0.716054 0.469753
vt 0.677645 0.469753
vt 0.664672 0.347291
vt 0.664672 0.236046
vt 0.700839 0.236046
vt 0.688505 0.338402
vt 0.625717 0.351860
vt 0.625717 0.236046
vt 0.664672 0.124801
vt 0.700839 0.133690
vt 0.737006 0.236046
vt 0.712338 0.329513
vt 0.664672 0.428728
vt 0.704825 0.413332
vt 0.625717 0.436642
vt 0.586761 0.356430
vt 0.586761 0.236046
vt 0.625717 0.120232
vt 0.664672 0.043364
vt 0.695879 0.058760
vt 0.737006 0.142579
vt 0.747360 0.236046
vt 0.747360 0.319887
vt 0.744977 0.397936
vt 0.586761 0.444557
vt 0.548352 0.356430
vt 0.548352 0.236046
vt 0.586761 0.115662
vt 0.625717 0.035450
vt 0.727086 0.074156
vt 0.770312 0.236046
vt 0.759785 0.308336
vt 0.740255 0.381263
vt 0.548352 0.466051
vt 0.509944 0.377924
vt 0.509944 0.236046
vt 0.548352 0.115662
vt 0.586761 0.001992
vt 0.747360 0.171917
vt 0.754022 0.148781
vt 0.509944 0.466051
vt 0.509944 0.115662
vt 0.548352 0.001992
vt 0.509944 0.001992
vt 0.524283 0.757930
vt 0.507688 0.774524
vt 0.485020 0.735262
vt 0.563545 0.780598
vt 0.530357 0.813786
vt 0.485020 0.780598
vt 0.530357 0.735262
vt 0.574749 0.787067
vt 0.536825 0.824991
vt 0.485020 0.825934
vt 0.575693 0.735262
vt 0.462352 0.774524
vt 0.524283 0.712594
vt 0.588630 0.735262
vt 0.591556 0.796770
vt 0.546529 0.841797
vt 0.485020 0.838872
vt 0.439684 0.813786
vt 0.563545 0.689925
vt 0.445758 0.757930
vt 0.507688 0.695999
vt 0.608037 0.735262
vt 0.574749 0.683457
vt 0.599604 0.822526
vt 0.557310 0.860471
vt 0.485020 0.858278
vt 0.433215 0.824991
vt 0.419949 0.780598
vt 0.530357 0.656737
vt 0.439684 0.735262
vt 0.485020 0.689925
vt 0.629600 0.735262
vt 0.591556 0.673753
vt 0.536825 0.645533
vt 0.630237 0.799390
vt 0.568861 0.880479
vt 0.485020 0.879841
vt 0.423512 0.841797
vt 0.395291 0.767401
vt 0.394348 0.735262
vt 0.485020 0.644589
vt 0.445758 0.712594
vt 0.462352 0.695999
vt 0.610230 0.662972
vt 0.546529 0.628726
vt 0.485020 0.631652
vt 0.646910 0.828729
vt 0.578488 0.897152
vt 0.485020 0.902944
vt 0.412731 0.860471
vt 0.378485 0.796770
vt 0.381410 0.735262
vt 0.406496 0.689925
vt 0.439684 0.656737
vt 0.557310 0.610052
vt 0.485020 0.612245
vt 0.433215 0.645533
vt 0.652703 0.735262
vt 0.671955 0.735262
vt 0.485020 0.922196
vt 0.401179 0.880479
vt 0.359811 0.788033
vt 0.362004 0.735262
vt 0.395291 0.683457
vt 0.485020 0.590682
vt 0.568861 0.590045
vt 0.630237 0.651421
vt 0.423512 0.628726
vt 0.391553 0.897152
vt 0.339803 0.819103
vt 0.340441 0.735262
vt 0.378485 0.673753
vt 0.429497 0.605188
vt 0.485020 0.567579
vt 0.317338 0.735262
vt 0.371971 0.654103
vt 0.401179 0.590045
vt 0.485020 0.548327
vt 0.578488 0.573372
vt 0.339803 0.651421
vt 0.391553 0.573372
vt 0.323130 0.641794
vt 0.382664 0.557976
vt 0.485020 0.530549
vt 0.373775 0.542580
vt 0.485020 0.512772
vt 0.017993 0.130153
vt 0.242615 0.268303
vt 0.001847 0.268303
vt 0.122231 0.059792
vt 0.034104 0.388686
vt 0.242615 0.001992
vt 0.122231 0.476813
vt 0.362998 0.034249
vt 0.242615 0.509070
vt 0.471444 0.147919
vt 0.362998 0.498307
vt 0.503701 0.268303
vt 0.451125 0.410180
vt 0.156919 0.521910
vt 0.156919 0.633155
vt 0.120752 0.633155
vt 0.125712 0.530799
vt 0.195875 0.517341
vt 0.195875 0.633155
vt 0.156919 0.744400
vt 0.127388 0.735511
vt 0.084585 0.633155
vt 0.094505 0.539688
vt 0.234831 0.512772
vt 0.234831 0.633155
vt 0.195875 0.748970
vt 0.097856 0.726623
vt 0.273239 0.512772
vt 0.273239 0.633155
vt 0.234831 0.753539
vt 0.311648 0.512772
vt 0.311648 0.633155
vt 0.273239 0.753539
vt 0.311648 0.753539
vt 0.156576 0.877624
vt 0.156576 0.766379
vt 0.196728 0.775268
vt 0.177397 0.877624
vt 0.117620 0.877624
vt 0.117620 0.761810
vt 0.236881 0.784157
vt 0.198218 0.877624
vt 0.156576 0.988869
vt 0.117620 0.993439
vt 0.078665 0.877624
vt 0.078665 0.757241
vt 0.078665 0.998008
vt 0.040256 0.877624
vt 0.040256 0.757241
vt 0.040256 0.998008
vt 0.001847 0.877624
vt 0.001847 0.757241
vt 0.001847 0.998008
vn 0.068555 0.989732 -0.125421
vn 0.019923 0.998005 -0.059910
vn -0.065491 0.997709 -0.016977
vn -0.083862 0.994056 -0.069429
vn -0.125703 0.991556 -0.031869
vn -0.047761 0.998324 -0.032690
vn -0.080711 0.981925 -0.171199
vn -0.030101 0.996428 -0.078906
vn 0.116971 0.989439 0.085603
vn -0.007762 0.992691 0.120433
vn 0.037832 0.997133 0.065526
vn 0.116144 0.983552 0.138334
vn 0.037466 0.996904 0.069128
vn 0.665060 0.326792 -0.671492
vn 0.665215 0.326228 -0.671613
vn 0.615701 0.454059 -0.644005
vn 0.615190 0.454053 -0.644498
vn 0.249026 0.326228 -0.911900
vn 0.248999 0.326792 -0.911705
vn 0.250556 0.454052 -0.855019
vn 0.249874 0.454059 -0.855215
vn -0.250259 0.329872 -0.910250
vn -0.250287 0.329058 -0.910537
vn -0.255484 0.463100 -0.848685
vn -0.256726 0.463083 -0.848320
vn -0.664515 0.341344 -0.664758
vn -0.664508 0.341373 -0.664751
vn -0.611171 0.501529 -0.612323
vn -0.611171 0.501529 -0.612322
vn -0.910684 0.328753 -0.250152
vn -0.910408 0.329537 -0.250123
vn -0.849061 0.462097 -0.256050
vn -0.849406 0.462112 -0.254876
vn -0.915792 0.317980 0.245386
vn -0.915792 0.317980 0.245386
vn -0.872568 0.428906 0.233804
vn -0.872568 0.428906 0.233804
vn -0.670406 0.317980 0.670406
vn -0.670406 0.317980 0.670406
vn -0.638764 0.428907 0.638764
vn -0.638764 0.428907 0.638764
vn -0.228303 0.346784 0.909736
vn -0.228893 0.344007 0.910641
vn -0.156029 0.514991 0.842875
vn -0.148661 0.514715 0.844375
vn 0.226340 0.336268 0.914163
vn 0.225605 0.339249 0.913243
vn 0.136628 0.488729 0.861671
vn 0.147650 0.489200 0.859583
vn 0.677373 0.333455 0.655724
vn 0.677709 0.331261 0.656488
vn 0.668160 0.471908 0.575208
vn 0.673341 0.471650 0.569349
vn 0.905725 0.338809 0.254697
vn 0.904992 0.340759 0.254702
vn 0.822027 0.495953 0.279827
vn 0.823470 0.496083 0.275315
vn 0.915792 0.317980 -0.245386
vn 0.915792 0.317980 -0.245386
vn 0.872568 0.428907 -0.233804
vn 0.872568 0.428907 -0.233804
vn 0.656420 0.629625 -0.415554
vn 0.460549 0.850467 -0.254165
vn 0.605905 0.793652 0.054731
vn 0.805367 0.591084 0.044765
vn 0.279545 0.829843 -0.482924
vn 0.402098 0.611449 -0.681503
vn -0.009076 0.787191 -0.616643
vn -0.005771 0.608341 -0.793655
vn -0.332261 0.790503 -0.514498
vn -0.431924 0.572954 -0.696538
vn -0.494401 0.802577 -0.333823
vn -0.713412 0.547649 -0.437178
vn -0.537212 0.843210 -0.020004
vn -0.824902 0.564726 -0.024919
vn -0.487163 0.829578 0.272896
vn -0.716922 0.560878 0.414052
vn -0.269916 0.771276 0.576436
vn -0.362456 0.553868 0.749571
vn 0.005018 0.729640 0.683813
vn -0.016848 0.532673 0.846153
vn 0.281603 0.805350 0.521643
vn 0.385769 0.615953 0.686865
vn 0.578256 0.748132 0.325451
vn 0.729461 0.552384 0.403434
vn 0.528287 0.849066 0.000000
vn 0.462395 0.845530 -0.266964
vn 0.304363 0.929838 -0.206797
vn 0.283413 0.958581 0.028284
vn 0.262220 0.944412 0.198312
vn 0.410710 0.894115 0.178539
vn 0.118914 0.981109 0.152596
vn 0.192891 0.938962 0.284858
vn 0.014676 0.982442 0.185990
vn -0.080028 0.860302 0.503464
vn -0.088113 0.964353 0.249520
vn -0.340715 0.763598 0.548481
vn -0.282781 0.953210 0.106895
vn -0.427560 0.838732 0.337227
vn -0.225899 0.972256 -0.060729
vn -0.345290 0.938300 0.019182
vn -0.066512 0.996347 -0.053555
vn -0.295460 0.938207 -0.180198
vn -0.124568 0.979133 -0.160567
vn -0.251917 0.915498 -0.313691
vn -0.049234 0.960215 -0.274886
vn 0.000789 0.935888 -0.352297
vn 0.135204 0.960218 -0.244340
vn 0.278105 0.880221 -0.384537
vn 0.428590 0.846154 -0.316755
vn 0.500437 0.865198 -0.031551
vn 0.304109 0.810448 -0.500691
vn -0.000000 0.802114 -0.597171
vn -0.296343 0.851525 -0.432533
vn -0.374405 0.893937 -0.246370
vn -0.440732 0.897455 -0.018155
vn -0.313741 0.919896 0.235283
vn -0.100389 0.938068 0.331589
vn 0.063079 0.882302 0.466438
vn 0.274403 0.815991 0.508785
vn 0.461592 0.829684 0.313937
vn 0.395629 0.881609 -0.257377
vn 0.382044 0.923835 -0.023923
vn 0.307209 0.883545 -0.353512
vn -0.000000 0.937678 -0.347507
vn -0.360338 0.855165 -0.372625
vn -0.509670 0.782522 -0.357625
vn -0.509607 0.857343 -0.072552
vn -0.323490 0.923919 0.204275
vn -0.109942 0.921382 0.372784
vn -0.040668 0.800446 0.598024
vn 0.253499 0.837257 0.484498
vn 0.387859 0.890143 0.239188
vn 0.693224 0.325550 -0.643006
vn 0.693113 0.334118 -0.638717
vn 0.194385 0.362157 -0.911623
vn 0.191766 0.368072 -0.909807
vn -0.252419 0.220993 -0.942044
vn -0.252419 0.220993 -0.942044
vn -0.649964 0.311330 -0.693268
vn -0.650715 0.309769 -0.693263
vn -0.929244 0.294345 -0.223308
vn -0.930034 0.290680 -0.224814
vn -0.942044 0.220994 0.252420
vn -0.942044 0.220994 0.252420
vn -0.689624 0.220993 0.689624
vn -0.689624 0.220993 0.689624
vn -0.252420 0.220993 0.942044
vn -0.252420 0.220993 0.942044
vn 0.252420 0.220993 0.942044
vn 0.252420 0.220993 0.942044
vn 0.689624 0.220993 0.689624
vn 0.689624 0.220993 0.689624
vn 0.898404 0.337017 0.281585
vn 0.897073 0.339966 0.282283
vn 0.897072 0.339967 -0.282283
vn 0.898404 0.337017 -0.281584
vn 0.725141 0.280603 -0.628834
vn 0.723072 0.289380 -0.627237
vn 0.735199 0.085872 -0.672391
vn 0.736329 0.097382 -0.669579
vn 0.145525 0.400337 -0.904739
vn 0.145547 0.400067 -0.904855
vn 0.207384 0.160444 -0.965013
vn 0.209985 0.152852 -0.965682
vn -0.295959 0.261482 -0.918714
vn -0.297748 0.263147 -0.917660
vn -0.392379 0.138562 -0.909307
vn -0.388253 0.151143 -0.909074
vn -0.604328 0.251684 -0.755938
vn -0.604709 0.255550 -0.754335
vn -0.572893 0.056950 -0.817649
vn -0.572585 0.055542 -0.817961
vn -0.958521 0.226014 -0.173654
vn -0.962688 0.210555 -0.169997
vn -0.990299 0.050015 -0.129638
vn -0.990122 0.052063 -0.130187
vn -0.960046 0.110165 0.257244
vn -0.960046 0.110165 0.257244
vn -0.965926 0.000000 0.258819
vn -0.965926 0.000000 0.258819
vn -0.702803 0.110165 0.702803
vn -0.702803 0.110165 0.702803
vn -0.707106 0.000000 0.707107
vn -0.707106 0.000000 0.707107
vn -0.257244 0.110165 0.960046
vn -0.257244 0.110165 0.960046
vn -0.258820 0.000000 0.965926
vn -0.258820 0.000000 0.965926
vn 0.212231 0.243010 0.946522
vn 0.210487 0.243948 0.946670
vn 0.131592 0.137351 0.981743
vn 0.132145 0.139179 0.981411
vn 0.713242 0.201217 0.671414
vn 0.715453 0.199312 0.669628
vn 0.733902 0.183032 0.654131
vn 0.733902 0.183032 0.654131
vn 0.908573 0.207644 0.362463
vn 0.906127 0.224301 0.358640
vn 0.921674 0.060514 0.383217
vn 0.921276 0.053886 0.385158
vn 0.885316 0.344148 -0.312694
vn 0.889728 0.331200 -0.314151
vn 0.947588 0.125322 -0.293890
vn 0.946611 0.129847 -0.295072
vn 0.000000 -1.000000 0.000000
vn 0.000000 -1.000000 0.000000
vn 0.000000 -1.000000 0.000000
vn 0.000000 -1.000000 0.000000
vn 0.000000 -1.000000 0.000000
vn 0.000000 -1.000000 0.000000
vn 0.000000 -1.000000 0.000000
vn 0.000000 -1.000000 0.000000
vn 0.000000 -1.000000 0.000000
vn 0.000000 -1.000000 0.000000
vn 0.000000 -1.000000 0.000000
vn 0.000000 -1.000000 0.000000
vn 0.000000 -1.000000 0.000000
vn 0.723540 0.000000 -0.690283
vn 0.723540 0.000000 -0.690283
vn 0.258819 0.000000 -0.965926
vn 0.258819 0.000000 -0.965926
vn -0.432828 0.000000 -0.901477
vn -0.432828 0.000000 -0.901477
vn -0.559470 0.000000 -0.828851
vn -0.559470 0.000000 -0.828851
vn -0.993240 0.000000 -0.116077
vn -0.993240 0.000000 -0.116077
vn -0.965926 0.000000 0.258819
vn -0.965926 0.000000 0.258819
vn -0.707106 0.000000 0.707107
vn -0.707106 0.000000 0.707107
vn -0.258820 0.000000 0.965926
vn -0.258820 0.000000 0.965926
vn 0.089047 0.000000 0.996027
vn 0.089047 0.000000 0.996027
vn 0.733902 0.183032 0.654131
vn 0.733902 0.183032 0.654131
vn 0.923185 0.103569 0.370140
vn 0.923185 0.103569 0.370140
vn 0.965926 0.000000 -0.258819
vn 0.965926 0.000000 -0.258819
s 1
g pCylinder8
usemtl initialShadingGroup
f 90/82/1 91/83/2 13/84/3
f 91/83/2 92/87/4 13/84/3
f 92/87/4 93/93/5 13/84/3
f 93/93/5 94/101/6 13/84/3
f 94/101/6 95/111/7 13/84/3
f 95/111/7 96/123/8 13/84/3
f 96/123/8 97/124/9 13/84/3
f 97/124/9 86/112/10 13/84/3
f 86/112/10 87/102/11 13/84/3
f 87/102/11 88/94/12 13/84/3
f 88/94/12 89/88/13 13/84/3
f 89/88/13 90/82/1 13/84/3
f 1/46/14 2/56/15 158/57/16 147/47/17
f 2/181/18 3/182/19 157/183/20 158/184/21
f 3/182/22 4/187/23 156/188/24 157/183/25
f 4/11/26 5/1/27 155/4/28 156/12/29
f 5/1/30 6/2/31 154/3/32 155/4/33
f 6/2/34 7/7/35 153/8/36 154/3/37
f 7/7/38 8/17/39 152/18/40 153/8/41
f 8/166/42 9/167/43 151/165/44 152/164/45
f 9/202/46 10/203/47 150/204/48 151/205/49
f 10/50/50 11/40/51 149/43/52 150/51/53
f 11/40/54 12/41/55 148/42/56 149/43/57
f 12/41/58 1/46/59 147/47/60 148/42/61
f 14/128/62 38/116/63 39/139/64 37/140/65
f 49/117/66 38/116/63 14/128/62 17/129/67
f 48/130/68 49/117/66 17/129/67 19/141/69
f 47/142/70 48/130/68 19/141/69 21/150/71
f 46/21/72 47/30/70 21/22/71 23/10/73
f 45/20/74 46/21/72 23/10/73 25/9/75
f 44/29/76 45/20/74 25/9/75 27/19/77
f 43/158/78 44/161/76 27/163/77 29/162/79
f 42/155/80 43/158/78 29/162/79 31/159/81
f 41/147/82 42/155/80 31/159/81 33/160/83
f 40/60/84 41/70/82 33/61/83 35/49/85
f 39/59/64 40/60/84 35/49/85 37/48/65
f 74/95/86 75/89/87 15/85/88 36/92/89
f 34/100/90 85/104/91 74/95/86 36/92/89
f 32/110/92 84/115/93 85/104/91 34/100/90
f 30/122/94 83/127/95 84/115/93 32/110/92
f 28/135/96 82/138/97 83/127/95 30/122/94
f 26/134/98 81/145/99 82/138/97 28/135/96
f 24/121/100 80/133/101 81/145/99 26/134/98
f 22/109/102 79/120/103 80/133/101 24/121/100
f 20/99/104 78/108/105 79/120/103 22/109/102
f 18/91/106 77/98/107 78/108/105 20/99/104
f 16/86/108 76/90/109 77/98/107 18/91/106
f 15/85/88 75/89/87 76/90/109 16/86/108
f 39/59/64 38/76/63 51/77/110 50/68/111
f 52/106/112 51/105/110 38/116/63 49/117/66
f 53/118/113 52/106/112 49/117/66 48/130/68
f 54/131/114 53/118/113 48/130/68 47/142/70
f 55/143/115 54/131/114 47/142/70 46/151/72
f 56/152/116 55/143/115 46/151/72 45/156/74
f 57/157/117 56/152/116 45/156/74 44/161/76
f 58/154/118 57/157/117 44/161/76 43/158/78
f 59/146/119 58/154/118 43/158/78 42/155/80
f 60/136/120 59/146/119 42/155/80 41/147/82
f 61/125/121 60/136/120 41/147/82 40/148/84
f 50/68/111 61/69/121 40/60/84 39/59/64
f 50/113/111 51/105/110 63/96/122 62/103/123
f 64/97/124 63/96/122 51/105/110 52/106/112
f 65/107/125 64/97/124 52/106/112 53/118/113
f 66/119/126 65/107/125 53/118/113 54/131/114
f 67/132/127 66/119/126 54/131/114 55/143/115
f 68/144/128 67/132/127 55/143/115 56/152/116
f 69/153/129 68/144/128 56/152/116 57/157/117
f 70/149/130 69/153/129 57/157/117 58/154/118
f 71/137/131 70/149/130 58/154/118 59/146/119
f 72/126/132 71/137/131 59/146/119 60/136/120
f 73/114/133 72/126/132 60/136/120 61/125/121
f 62/103/123 73/114/133 61/125/121 50/113/111
f 62/103/123 63/96/122 75/89/87 74/95/86
f 76/90/109 75/89/87 63/96/122 64/97/124
f 77/98/107 76/90/109 64/97/124 65/107/125
f 78/108/105 77/98/107 65/107/125 66/119/126
f 79/120/103 78/108/105 66/119/126 67/132/127
f 80/133/101 79/120/103 67/132/127 68/144/128
f 81/145/99 80/133/101 68/144/128 69/153/129
f 82/138/97 81/145/99 69/153/129 70/149/130
f 83/127/95 82/138/97 70/149/130 71/137/131
f 84/115/93 83/127/95 71/137/131 72/126/132
f 85/104/91 84/115/93 72/126/132 73/114/133
f 74/95/86 85/104/91 73/114/133 62/103/123
f 30/122/94 32/110/92 87/102/11 86/112/10
f 32/110/92 34/100/90 88/94/12 87/102/11
f 34/100/90 36/92/89 89/88/13 88/94/12
f 36/92/89 15/85/88 90/82/1 89/88/13
f 15/85/88 16/86/108 91/83/2 90/82/1
f 16/86/108 18/91/106 92/87/4 91/83/2
f 18/91/106 20/99/104 93/93/5 92/87/4
f 20/99/104 22/109/102 94/101/6 93/93/5
f 22/109/102 24/121/100 95/111/7 94/101/6
f 24/121/100 26/134/98 96/123/8 95/111/7
f 26/134/98 28/135/96 97/124/9 96/123/8
f 28/135/96 30/122/94 86/112/10 97/124/9
f 2/56/15 1/46/14 123/55/134 124/66/135
f 3/182/19 2/181/18 124/185/136 125/186/137
f 4/187/23 3/182/22 125/186/138 126/193/139
f 5/1/27 4/11/26 126/13/140 127/5/141
f 6/2/31 5/1/30 127/5/142 128/6/143
f 7/7/35 6/2/34 128/6/144 129/16/145
f 8/17/39 7/7/38 129/16/146 130/27/147
f 9/202/43 8/210/42 130/211/148 131/206/149
f 10/203/47 9/202/46 131/206/150 132/207/151
f 11/40/51 10/50/50 132/52/152 133/44/153
f 12/41/55 11/40/54 133/44/154 134/45/155
f 1/46/59 12/41/58 134/45/156 123/55/157
f 99/75/158 98/65/159 135/74/160 136/80/161
f 100/192/162 99/191/163 136/195/164 137/196/165
f 101/197/166 100/192/167 137/196/168 138/200/169
f 102/14/170 101/23/171 138/31/172 139/24/173
f 103/15/174 102/14/175 139/24/176 140/25/177
f 104/26/178 103/15/179 140/25/180 141/34/181
f 105/35/182 104/26/183 141/34/184 142/38/185
f 106/212/186 105/214/187 142/217/188 143/215/189
f 107/213/190 106/212/191 143/215/192 144/216/193
f 108/53/194 107/62/195 144/71/196 145/63/197
f 109/54/198 108/53/199 145/63/200 146/64/201
f 98/65/202 109/54/203 146/64/204 135/74/205
s 16
f 114/168/206 122/169/207 115/170/208
f 122/169/207 120/180/209 119/178/210
f 113/171/211 122/169/207 114/168/206
f 112/173/212 122/169/207 113/171/211
f 122/169/207 121/179/213 120/180/209
f 115/170/208 122/169/207 116/172/214
f 122/169/207 110/177/215 121/179/213
f 116/172/214 122/169/207 117/174/216
f 111/175/217 110/177/215 122/169/207
f 117/174/216 122/169/207 118/176/218
f 111/175/217 122/169/207 112/173/212
f 118/176/218 122/169/207 119/178/210
s 1
f 124/66/135 123/55/134 98/65/159 99/75/158
f 125/186/137 124/185/136 99/191/163 100/192/162
f 126/193/139 125/186/138 100/192/167 101/197/166
f 127/5/141 126/13/140 101/23/171 102/14/170
f 128/6/143 127/5/142 102/14/175 103/15/174
f 129/16/145 128/6/144 103/15/179 104/26/178
f 130/27/147 129/16/146 104/26/183 105/35/182
f 131/206/149 130/211/148 105/214/187 106/212/186
f 132/207/151 131/206/150 106/212/191 107/213/190
f 133/44/153 132/52/152 107/62/195 108/53/194
f 134/45/155 133/44/154 108/53/199 109/54/198
f 123/55/157 134/45/156 109/54/203 98/65/202
f 136/80/161 135/74/160 110/79/219 111/81/220
f 137/196/165 136/195/164 111/198/221 112/199/222
f 138/200/169 137/196/168 112/199/223 113/201/224
f 139/24/173 138/31/172 113/36/225 114/32/226
f 140/25/177 139/24/176 114/32/227 115/33/228
f 141/34/181 140/25/180 115/33/229 116/37/230
f 142/38/185 141/34/184 116/37/231 117/39/232
f 143/215/189 142/217/188 117/220/233 118/218/234
f 144/216/193 143/215/192 118/218/235 119/219/236
f 145/63/197 144/71/196 119/78/237 120/72/238
f 146/64/201 145/63/200 120/72/239 121/73/240
f 135/74/205 146/64/204 121/73/241 110/79/242
f 148/42/61 147/47/60 14/58/62 37/48/65
f 149/43/57 148/42/56 37/48/65 35/49/85
f 150/51/53 149/43/52 35/49/85 33/61/83
f 151/205/49 150/204/48 33/208/83 31/209/81
f 152/164/45 151/165/44 31/159/81 29/162/79
f 153/8/41 152/18/40 29/28/79 27/19/77
f 154/3/37 153/8/36 27/19/77 25/9/75
f 155/4/33 154/3/32 25/9/75 23/10/73
f 156/12/29 155/4/28 23/10/73 21/22/71
f 157/183/25 156/188/24 21/194/71 19/189/69
f 158/184/21 157/183/20 19/189/69 17/190/67
f 147/47/17 158/57/16 17/67/67 14/58/62
