# This file uses centimeters as units for non-parametric coordinates.

mtllib chopping board.mtl
g default
v 1.590803 0.000000 47.957336
v 34.098629 0.000000 47.957336
v 34.098629 2.696701 47.957336
v 1.590803 2.696701 47.957336
v 0.000000 2.696701 -0.000004
v 0.000000 2.696701 46.500008
v 35.689434 2.696701 46.500008
v 35.689434 2.696701 -0.000004
v 34.098629 2.696701 -1.457333
v 1.590803 2.696701 -1.457333
v 10.634338 2.696701 0.694750
v 11.277123 2.696701 0.646311
v 24.412312 2.696701 0.646311
v 25.055094 2.696701 0.694750
v 25.055094 2.696701 2.240347
v 24.412312 2.696701 2.288786
v 11.277123 2.696701 2.288786
v 10.634338 2.696701 2.240347
v 0.000000 0.000000 46.500008
v 0.000000 0.000000 -0.000004
v 1.590803 0.000000 -1.457333
v 10.634338 0.000000 0.694750
v 10.634338 0.000000 2.240347
v 11.277123 0.000000 2.288786
v 24.412312 0.000000 2.288786
v 25.055094 0.000000 2.240347
v 25.055094 0.000000 0.694750
v 24.412312 0.000000 0.646311
v 11.277123 0.000000 0.646311
v 34.098629 0.000000 -1.457333
v 35.689434 0.000000 -0.000004
v 35.689434 0.000000 46.500008
vt 0.034583 0.582803
vt 0.001923 0.582803
vt 0.001923 0.019642
vt 0.034583 0.019642
vt 0.034583 0.600453
vt 0.001923 0.600453
vt 0.001923 0.001992
vt 0.034583 0.001992
vt 0.074279 0.582803
vt 0.041619 0.582803
vt 0.041619 0.019642
vt 0.074279 0.019642
vt 0.041619 0.600453
vt 0.074279 0.600453
vt 0.041619 0.001992
vt 0.074279 0.001992
vt 0.809063 0.636966
vt 0.790344 0.636966
vt 0.790344 0.604306
vt 0.809063 0.604306
vt 0.765703 0.636966
vt 0.765703 0.604306
vt 0.784422 0.604306
vt 0.784422 0.636966
vt 0.494096 0.001992
vt 0.513362 0.019642
vt 0.513362 0.582803
vt 0.494096 0.600453
vt 0.100394 0.600453
vt 0.081128 0.582803
vt 0.081128 0.019642
vt 0.100394 0.001992
vt 0.209920 0.574389
vt 0.217705 0.574976
vt 0.376785 0.574976
vt 0.384570 0.574389
vt 0.384570 0.555670
vt 0.376785 0.555084
vt 0.217705 0.555084
vt 0.209920 0.555670
vt 0.538749 0.001992
vt 0.932451 0.001992
vt 0.951718 0.019642
vt 0.951718 0.582803
vt 0.932451 0.600453
vt 0.538749 0.600453
vt 0.519483 0.582803
vt 0.519483 0.019642
vt 0.815140 0.027469
vt 0.656060 0.027469
vt 0.648275 0.028056
vt 0.648275 0.046775
vt 0.656060 0.047361
vt 0.815140 0.047361
vt 0.822925 0.046775
vt 0.822925 0.028056
vt 0.930732 0.998008
vt 0.930732 0.604306
vt 0.963392 0.604306
vt 0.963392 0.998008
vt 0.892150 0.604306
vt 0.924810 0.604306
vt 0.924810 0.998008
vt 0.892150 0.998008
vt 0.853568 0.612091
vt 0.886227 0.612091
vt 0.886227 0.771171
vt 0.853568 0.771171
vt 0.853568 0.604306
vt 0.886227 0.604306
vt 0.886227 0.778956
vt 0.853568 0.778956
vt 0.847645 0.778956
vt 0.814985 0.778956
vt 0.814985 0.771171
vt 0.847645 0.771171
vt 0.814985 0.612091
vt 0.847645 0.612091
vt 0.814985 0.604306
vt 0.847645 0.604306
vn 0.000000 0.000000 1.000000
vn 0.000000 0.000000 1.000000
vn 0.000000 0.000000 1.000000
vn 0.000000 0.000000 1.000000
vn -0.675496 0.000000 0.737364
vn -0.675496 0.000000 0.737364
vn -0.675496 0.000000 0.737364
vn -0.675496 0.000000 0.737364
vn 0.675495 0.000000 0.737364
vn 0.675495 0.000000 0.737364
vn 0.675495 0.000000 0.737364
vn 0.675495 0.000000 0.737364
vn -1.000000 0.000000 0.000000
vn -1.000000 0.000000 0.000000
vn -1.000000 0.000000 0.000000
vn -1.000000 0.000000 0.000000
vn 1.000000 0.000000 0.000000
vn 1.000000 0.000000 0.000000
vn 1.000000 0.000000 0.000000
vn 1.000000 0.000000 0.000000
vn 0.675496 0.000000 -0.737364
vn 0.675496 0.000000 -0.737364
vn 0.675496 0.000000 -0.737364
vn 0.675496 0.000000 -0.737364
vn 0.000000 0.000000 -1.000000
vn 0.000000 0.000000 -1.000000
vn 0.000000 0.000000 -1.000000
vn 0.000000 0.000000 -1.000000
vn -0.675496 0.000000 -0.737364
vn -0.675496 0.000000 -0.737364
vn -0.675496 0.000000 -0.737364
vn -0.675496 0.000000 -0.737364
vn 0.000000 0.000000 -1.000000
vn 0.000000 0.000000 -1.000000
vn 0.000000 0.000000 -1.000000
vn 0.000000 0.000000 -1.000000
vn 0.075146 0.000000 -0.997173
vn 0.075146 0.000000 -0.997173
vn 0.075146 0.000000 -0.997173
vn 0.075146 0.000000 -0.997173
vn -0.075146 0.000000 -0.997173
vn -0.075146 0.000000 -0.997173
vn -0.075146 0.000000 -0.997173
vn -0.075146 0.000000 -0.997173
vn 1.000000 0.000000 0.000000
vn 1.000000 0.000000 0.000000
vn 1.000000 0.000000 0.000000
vn 1.000000 0.000000 0.000000
vn -1.000000 0.000000 0.000000
vn -1.000000 0.000000 0.000000
vn -1.000000 0.000000 0.000000
vn -1.000000 0.000000 0.000000
vn 0.075146 0.000000 0.997173
vn 0.075146 0.000000 0.997173
vn 0.075146 0.000000 0.997173
vn 0.075146 0.000000 0.997173
vn -0.075146 0.000000 0.997173
vn -0.075146 0.000000 0.997173
vn -0.075146 0.000000 0.997173
vn -0.075146 0.000000 0.997173
vn 0.000000 0.000000 1.000000
vn 0.000000 0.000000 1.000000
vn 0.000000 0.000000 1.000000
vn 0.000000 0.000000 1.000000
vn 0.000000 1.000000 0.000000
vn 0.000000 1.000000 0.000000
vn 0.000000 1.000000 0.000000
vn 0.000000 1.000000 0.000000
vn 0.000000 1.000000 0.000000
vn 0.000000 1.000000 0.000000
vn 0.000000 1.000000 0.000000
vn 0.000000 1.000000 0.000000
vn 0.000000 1.000000 0.000000
vn 0.000000 1.000000 0.000000
vn 0.000000 1.000000 0.000000
vn 0.000000 1.000000 0.000000
vn 0.000000 1.000000 0.000000
vn 0.000000 1.000000 0.000000
vn 0.000000 1.000000 0.000000
vn 0.000000 1.000000 0.000000
vn 0.000000 -1.000000 0.000000
vn 0.000000 -1.000000 0.000000
vn 0.000000 -1.000000 0.000000
vn 0.000000 -1.000000 0.000000
vn 0.000000 -1.000000 0.000000
vn 0.000000 -1.000000 0.000000
vn 0.000000 -1.000000 0.000000
vn 0.000000 -1.000000 0.000000
vn 0.000000 -1.000000 0.000000
vn 0.000000 -1.000000 0.000000
vn 0.000000 -1.000000 0.000000
vn 0.000000 -1.000000 0.000000
vn 0.000000 -1.000000 0.000000
vn 0.000000 -1.000000 0.000000
vn 0.000000 -1.000000 0.000000
vn 0.000000 -1.000000 0.000000
s off
g polySurface5
usemtl initialShadingGroup
f 1/57/1 2/58/2 3/59/3 4/60/4
f 1/7/5 4/8/6 6/4/7 19/3/8
f 2/13/9 32/10/10 7/9/11 3/14/12
f 5/1/13 20/2/14 19/3/15 6/4/16
f 7/9/17 32/10/18 31/11/19 8/12/20
f 8/12/21 31/11/22 30/15/23 9/16/24
f 9/61/25 30/62/26 21/63/27 10/64/28
f 5/1/29 10/5/30 21/6/31 20/2/32
f 16/65/33 25/66/34 24/67/35 17/68/36
f 17/68/37 24/67/38 23/71/39 18/72/40
f 15/69/41 26/70/42 25/66/43 16/65/44
f 11/17/45 18/18/46 23/19/47 22/20/48
f 14/21/49 27/22/50 26/23/51 15/24/52
f 11/73/53 22/74/54 29/75/55 12/76/56
f 13/78/57 28/77/58 27/79/59 14/80/60
f 12/76/61 29/75/62 28/77/63 13/78/64
f 3/25/65 7/26/66 8/27/67 9/28/68 10/29/69 5/30/70 6/31/71 4/32/72 11/33/73 12/34/74 13/35/75 14/36/76 15/37/77 16/38/78 17/39/79 18/40/80
f 21/41/81 30/42/82 31/43/83 32/44/84 2/45/85 1/46/86 19/47/87 20/48/88 28/49/89 29/50/90 22/51/91 23/52/92 24/53/93 25/54/94 26/55/95 27/56/96
